<?xml version="1.0" standalone="no"?><!DOCTYPE svg PUBLIC "-//W3C//DTD SVG 1.1//EN" "http://www.w3.org/Graphics/SVG/1.1/DTD/svg11.dtd" ><svg version="1.1" xmlns="http://www.w3.org/2000/svg"><defs><font horiz-adv-x="0" id="font"><font-face ascent="832" bbox="-247 -258 1319 997" cap-height="678" descent="-168" font-family="Gustan Medium Italic" font-stretch="normal" font-style="italic" font-weight="600" units-per-em="1000" x-height="510" /><missing-glyph d="M800 115V665L525 390ZM160 665V115L435 390ZM480 435 759 714H201ZM201 66H759L480 345ZM90 780H870V0H90Z" horiz-adv-x="960" /><glyph d="M382 577Q368 548 354 517.5Q340 487 319 447L217 250H432L402 446Q399 463 396.5 482.5Q394 502 391.5 520.5Q389 539 387 554Q385 569 384 577ZM446 162H169L86 0H-38L330 678H466L584 0H471Z" glyph-name="A" horiz-adv-x="641" unicode="A" /><glyph d="M256 250H485L545 572H543Q520 546 492 513.5Q464 481 435 448ZM874 0H439L469 162H177L29 0H-118L514 678H992L975 589H662L625 390H895L879 301H609L570 89H890Z" glyph-name="AE" horiz-adv-x="956" unicode="&#198;" /><glyph d="M256 250H485L545 572H543Q520 546 492 513.5Q464 481 435 448ZM874 0H439L469 162H177L29 0H-118L514 678H992L975 589H662L625 390H895L879 301H609L570 89H890ZM743 734H646L777 846H914Z" glyph-name="AEacute" horiz-adv-x="956" unicode="&#508;" /><glyph d="M806 762H461L475 841H821ZM256 250H485L545 572H543Q520 546 492 513.5Q464 481 435 448ZM874 0H439L469 162H177L29 0H-118L514 678H992L975 589H662L625 390H895L879 301H609L570 89H890Z" glyph-name="AEmacron" horiz-adv-x="956" unicode="&#482;" /><glyph d="M457 734H360L491 846H628ZM382 577Q368 548 354 517.5Q340 487 319 447L217 250H432L402 446Q399 463 396.5 482.5Q394 502 391.5 520.5Q389 539 387 554Q385 569 384 577ZM446 162H169L86 0H-38L330 678H466L584 0H471Z" glyph-name="Aacute" horiz-adv-x="641" unicode="&#193;" /><glyph d="M413 791Q436 791 457 796.5Q478 802 493 817Q505 829 512 846H604Q596 825 587 808.5Q578 792 564 778Q535 749 494.5 736.5Q454 724 405 724Q363 724 331 733.5Q299 743 279 763Q264 778 255 798Q246 818 247 846H334Q335 824 349 810Q360 799 376.5 795Q393 791 413 791ZM382 577Q368 548 354 517.5Q340 487 319 447L217 250H432L402 446Q399 463 396.5 482.5Q394 502 391.5 520.5Q389 539 387 554Q385 569 384 577ZM446 162H169L86 0H-38L330 678H466L584 0H471Z" glyph-name="Abreve" horiz-adv-x="641" unicode="&#258;" /><glyph d="M262 848H357L410 784L486 848H592L454 730H355ZM382 577Q368 548 354 517.5Q340 487 319 447L217 250H432L402 446Q399 463 396.5 482.5Q394 502 391.5 520.5Q389 539 387 554Q385 569 384 577ZM446 162H169L86 0H-38L330 678H466L584 0H471Z" glyph-name="Acaron" horiz-adv-x="641" unicode="&#461;" /><glyph d="M570 732H475L422 795L346 732H240L378 850H477ZM382 577Q368 548 354 517.5Q340 487 319 447L217 250H432L402 446Q399 463 396.5 482.5Q394 502 391.5 520.5Q389 539 387 554Q385 569 384 577ZM446 162H169L86 0H-38L330 678H466L584 0H471Z" glyph-name="Acircumflex" horiz-adv-x="641" unicode="&#194;" /><glyph d="M565 748H457L475 843H582ZM357 748H250L267 843H375ZM382 577Q368 548 354 517.5Q340 487 319 447L217 250H432L402 446Q399 463 396.5 482.5Q394 502 391.5 520.5Q389 539 387 554Q385 569 384 577ZM446 162H169L86 0H-38L330 678H466L584 0H471Z" glyph-name="Adieresis" horiz-adv-x="641" unicode="&#196;" /><glyph d="M382 577Q368 548 354 517.5Q340 487 319 447L217 250H432L402 446Q399 463 396.5 482.5Q394 502 391.5 520.5Q389 539 387 554Q385 569 384 577ZM446 162H169L86 0H-38L330 678H466L584 0H471ZM567 747H457L475 844H585ZM359 747H250L268 844H377ZM611 909H265L279 988H625Z" glyph-name="Adieresismacron" horiz-adv-x="641" unicode="&#478;" /><glyph d="M464 749H352L370 845H482ZM382 577Q368 548 354 517.5Q340 487 319 447L217 250H432L402 446Q399 463 396.5 482.5Q394 502 391.5 520.5Q389 539 387 554Q385 569 384 577ZM446 162H169L86 0H-38L330 678H466L584 0H471Z" glyph-name="Adotabove" horiz-adv-x="641" unicode="&#550;" /><glyph d="M165 846H282L370 733H293ZM328 846H445L533 733H456ZM382 577Q368 548 354 517.5Q340 487 319 447L217 250H432L402 446Q399 463 396.5 482.5Q394 502 391.5 520.5Q389 539 387 554Q385 569 384 577ZM446 162H169L86 0H-38L330 678H466L584 0H471Z" glyph-name="Adoublegrave" horiz-adv-x="641" unicode="&#512;" /><glyph d="M232 846H363L452 734H361ZM382 577Q368 548 354 517.5Q340 487 319 447L217 250H432L402 446Q399 463 396.5 482.5Q394 502 391.5 520.5Q389 539 387 554Q385 569 384 577ZM446 162H169L86 0H-38L330 678H466L584 0H471Z" glyph-name="Agrave" horiz-adv-x="641" unicode="&#192;" /><glyph d="M416 788Q393 788 372.5 782.5Q352 777 337 762Q331 756 326 749Q321 742 317 733H226Q233 754 242 770.5Q251 787 265 801Q294 830 335 842.5Q376 855 424 855Q466 855 498 845.5Q530 836 550 816Q565 801 574.5 781Q584 761 583 733H495Q495 745 491 753.5Q487 762 480 769Q469 780 452.5 784Q436 788 416 788ZM382 577Q368 548 354 517.5Q340 487 319 447L217 250H432L402 446Q399 463 396.5 482.5Q394 502 391.5 520.5Q389 539 387 554Q385 569 384 577ZM446 162H169L86 0H-38L330 678H466L584 0H471Z" glyph-name="Ainvertedbreve" horiz-adv-x="641" unicode="&#514;" /><glyph d="M582 762H237L251 841H597ZM382 577Q368 548 354 517.5Q340 487 319 447L217 250H432L402 446Q399 463 396.5 482.5Q394 502 391.5 520.5Q389 539 387 554Q385 569 384 577ZM446 162H169L86 0H-38L330 678H466L584 0H471Z" glyph-name="Amacron" horiz-adv-x="641" unicode="&#256;" /><glyph d="M466 678 584 0H471L420 333Q415 363 410 395.5Q405 428 400.5 459.5Q396 491 392.5 519.5Q389 548 386 571H383Q372 548 357 519.5Q342 491 325.5 459.5Q309 428 292 395.5Q275 363 260 333L85 0H-38L330 678Z" glyph-name="Anocross" horiz-adv-x="641" unicode="&#59185;" /><glyph d="M382 577Q368 548 354 517.5Q340 487 319 447L217 250H432L402 446Q399 463 396.5 482.5Q394 502 391.5 520.5Q389 539 387 554Q385 569 384 577ZM446 162H169L86 0H-38L330 678H466L584 0Q570 -7 558.5 -15.5Q547 -24 537 -34Q526 -45 517.5 -59.5Q509 -74 509 -88Q509 -103 520 -109.5Q531 -116 546 -116Q562 -116 577.5 -114Q593 -112 613 -106L602 -167Q582 -175 557.5 -177Q533 -179 516 -179Q500 -179 483 -176Q466 -173 452 -165Q438 -157 429 -144Q420 -131 420 -111Q420 -88 431.5 -68Q443 -48 461 -30Q469 -22 479.5 -14.5Q490 -7 501 0H471Z" glyph-name="Aogonek" horiz-adv-x="641" unicode="&#260;" /><glyph d="M405 728Q358 728 336 750Q328 757 324.5 767.5Q321 778 321 790Q321 807 326.5 824.5Q332 842 345 855Q360 871 382 876Q404 881 432 881Q480 881 502 859Q517 845 517 819Q517 802 511.5 784.5Q506 767 493 754Q478 739 456 733.5Q434 728 405 728ZM414 773Q435 773 446 784Q457 795 457 814Q457 824 451 830Q445 837 426 837Q404 837 394 827Q389 822 386 813Q383 804 383 796Q383 785 388 780Q396 773 414 773ZM382 577Q368 548 354 517.5Q340 487 319 447L217 250H432L402 446Q399 463 396.5 482.5Q394 502 391.5 520.5Q389 539 387 554Q385 569 384 577ZM446 162H169L86 0H-38L330 678H466L584 0H471Z" glyph-name="Aring" horiz-adv-x="641" unicode="&#197;" /><glyph d="M382 577Q368 548 354 517.5Q340 487 319 447L217 250H432L402 446Q399 463 396.5 482.5Q394 502 391.5 520.5Q389 539 387 554Q385 569 384 577ZM446 162H169L86 0H-38L330 678H466L584 0H471ZM447 785Q452 790 455 799Q458 808 458 816Q458 827 453 832Q445 839 427 839Q406 839 395 828Q384 817 384 798Q384 788 390 782Q396 775 415 775Q437 775 447 785ZM456 880Q486 877 502 861Q519 844 519 821Q519 804 513.5 786.5Q508 769 495 756Q479 740 457 735Q435 730 407 730Q359 730 337 752Q322 767 322 792Q322 816 340 842Q353 861 375 879L473 959H551Z" glyph-name="Aringacute" horiz-adv-x="641" unicode="&#506;" /><glyph d="M498 826Q520 826 550 838Q580 850 603 864L589 787Q580 781 567 774Q554 767 539.5 762Q525 757 510.5 753.5Q496 750 483 750Q462 750 443.5 755Q425 760 408.5 766Q392 772 375 777Q358 782 340 782Q317 782 286.5 770.5Q256 759 232 745L247 823Q256 829 269 835.5Q282 842 297 847.5Q312 853 327 856.5Q342 860 354 860Q376 860 393.5 855Q411 850 427.5 843.5Q444 837 461 831.5Q478 826 498 826ZM382 577Q368 548 354 517.5Q340 487 319 447L217 250H432L402 446Q399 463 396.5 482.5Q394 502 391.5 520.5Q389 539 387 554Q385 569 384 577ZM446 162H169L86 0H-38L330 678H466L584 0H471Z" glyph-name="Atilde" horiz-adv-x="641" unicode="&#195;" /><glyph d="M425 118Q446 139 454 170.5Q462 202 462 228Q462 259 444 277Q429 293 406 298Q383 303 350 303H209L169 86H315Q347 86 375.5 91.5Q404 97 425 118ZM357 389Q391 389 416.5 395.5Q442 402 461 421Q481 441 489 469.5Q497 498 497 523Q497 537 493.5 549Q490 561 481 570Q467 584 445.5 588Q424 592 392 592H262L225 389ZM39 0 164 678H404Q467 678 512.5 667.5Q558 657 587 628Q604 611 611.5 586.5Q619 562 619 538Q619 494 604 455Q589 416 560 387Q546 373 529.5 363.5Q513 354 499 346V344Q522 334 541 314Q558 297 568.5 272.5Q579 248 579 216Q579 172 562.5 128.5Q546 85 516 55Q495 35 467 23.5Q439 12 407.5 7Q376 2 344 1Q312 0 284 0Z" glyph-name="B" horiz-adv-x="630" unicode="B" /><glyph d="M336 83Q352 83 373 84.5Q394 86 416.5 89.5Q439 93 461 98Q483 103 503 109L486 14Q465 6 439.5 0.5Q414 -5 389 -8Q364 -11 341 -12.5Q318 -14 302 -14Q242 -14 192 2.5Q142 19 111 50Q84 77 69 121Q54 165 54 224Q54 269 61.5 322.5Q69 376 85 428.5Q101 481 125 528.5Q149 576 182 609Q229 656 293 674Q357 692 428 692Q440 692 459 691.5Q478 691 500.5 688.5Q523 686 547 681.5Q571 677 593 669L576 579Q536 592 495.5 596.5Q455 601 431 601Q382 601 343.5 588.5Q305 576 275 546Q251 522 232.5 482Q214 442 201.5 396.5Q189 351 182.5 306Q176 261 176 227Q176 187 185.5 160.5Q195 134 212 117Q231 98 262.5 90.5Q294 83 336 83Z" glyph-name="C" horiz-adv-x="566" unicode="C" /><glyph d="M336 83Q352 83 373 84.5Q394 86 416.5 89.5Q439 93 461 98Q483 103 503 109L486 14Q465 6 439.5 0.5Q414 -5 389 -8Q364 -11 341 -12.5Q318 -14 302 -14Q242 -14 192 2.5Q142 19 111 50Q84 77 69 121Q54 165 54 224Q54 269 61.5 322.5Q69 376 85 428.5Q101 481 125 528.5Q149 576 182 609Q229 656 293 674Q357 692 428 692Q440 692 459 691.5Q478 691 500.5 688.5Q523 686 547 681.5Q571 677 593 669L576 579Q536 592 495.5 596.5Q455 601 431 601Q382 601 343.5 588.5Q305 576 275 546Q251 522 232.5 482Q214 442 201.5 396.5Q189 351 182.5 306Q176 261 176 227Q176 187 185.5 160.5Q195 134 212 117Q231 98 262.5 90.5Q294 83 336 83ZM441 734H344L475 846H612Z" glyph-name="Cacute" horiz-adv-x="566" unicode="&#262;" /><glyph d="M336 83Q352 83 373 84.5Q394 86 416.5 89.5Q439 93 461 98Q483 103 503 109L486 14Q465 6 439.5 0.5Q414 -5 389 -8Q364 -11 341 -12.5Q318 -14 302 -14Q242 -14 192 2.5Q142 19 111 50Q84 77 69 121Q54 165 54 224Q54 269 61.5 322.5Q69 376 85 428.5Q101 481 125 528.5Q149 576 182 609Q229 656 293 674Q357 692 428 692Q440 692 459 691.5Q478 691 500.5 688.5Q523 686 547 681.5Q571 677 593 669L576 579Q536 592 495.5 596.5Q455 601 431 601Q382 601 343.5 588.5Q305 576 275 546Q251 522 232.5 482Q214 442 201.5 396.5Q189 351 182.5 306Q176 261 176 227Q176 187 185.5 160.5Q195 134 212 117Q231 98 262.5 90.5Q294 83 336 83ZM272 848H367L420 784L496 848H602L464 730H365Z" glyph-name="Ccaron" horiz-adv-x="566" unicode="&#268;" /><glyph d="M253 -11Q208 -5 171.5 10Q135 25 111 50Q84 77 69 121Q54 165 54 224Q54 269 61.5 322.5Q69 376 85 428.5Q101 481 125 528.5Q149 576 182 609Q229 656 293 674Q357 692 428 692Q440 692 459 691.5Q478 691 500.5 688.5Q523 686 547 681.5Q571 677 593 669L576 579Q536 592 495.5 596.5Q455 601 431 601Q382 601 343.5 588.5Q305 576 275 546Q251 522 232.5 482Q214 442 201.5 396.5Q189 351 182.5 306Q176 261 176 227Q176 187 185.5 160.5Q195 134 212 117Q231 98 262.5 90.5Q294 83 336 83Q352 83 373 84.5Q394 86 416.5 89.5Q439 93 461 98Q483 103 503 109L486 14Q452 1 411 -5Q370 -11 336 -13L319 -40Q337 -47 353 -59Q369 -71 369 -94Q369 -121 354.5 -137.5Q340 -154 318.5 -163Q297 -172 271.5 -175.5Q246 -179 224 -179Q207 -179 187 -177Q167 -175 142 -167L154 -106Q175 -114 193 -116Q211 -118 223 -118Q229 -118 238 -117.5Q247 -117 255.5 -114.5Q264 -112 270 -107Q276 -102 276 -93Q276 -81 261.5 -77.5Q247 -74 233 -72L231 -46Z" glyph-name="Ccedilla" horiz-adv-x="566" unicode="&#199;" /><glyph d="M336 83Q352 83 373 84.5Q394 86 416.5 89.5Q439 93 461 98Q483 103 503 109L486 14Q465 6 439.5 0.5Q414 -5 389 -8Q364 -11 341 -12.5Q318 -14 302 -14Q242 -14 192 2.5Q142 19 111 50Q84 77 69 121Q54 165 54 224Q54 269 61.5 322.5Q69 376 85 428.5Q101 481 125 528.5Q149 576 182 609Q229 656 293 674Q357 692 428 692Q440 692 459 691.5Q478 691 500.5 688.5Q523 686 547 681.5Q571 677 593 669L576 579Q536 592 495.5 596.5Q455 601 431 601Q382 601 343.5 588.5Q305 576 275 546Q251 522 232.5 482Q214 442 201.5 396.5Q189 351 182.5 306Q176 261 176 227Q176 187 185.5 160.5Q195 134 212 117Q231 98 262.5 90.5Q294 83 336 83ZM583 732H488L435 795L359 732H253L391 850H490Z" glyph-name="Ccircumflex" horiz-adv-x="566" unicode="&#264;" /><glyph d="M474 749H362L380 845H492ZM336 83Q352 83 373 84.5Q394 86 416.5 89.5Q439 93 461 98Q483 103 503 109L486 14Q465 6 439.5 0.5Q414 -5 389 -8Q364 -11 341 -12.5Q318 -14 302 -14Q242 -14 192 2.5Q142 19 111 50Q84 77 69 121Q54 165 54 224Q54 269 61.5 322.5Q69 376 85 428.5Q101 481 125 528.5Q149 576 182 609Q229 656 293 674Q357 692 428 692Q440 692 459 691.5Q478 691 500.5 688.5Q523 686 547 681.5Q571 677 593 669L576 579Q536 592 495.5 596.5Q455 601 431 601Q382 601 343.5 588.5Q305 576 275 546Q251 522 232.5 482Q214 442 201.5 396.5Q189 351 182.5 306Q176 261 176 227Q176 187 185.5 160.5Q195 134 212 117Q231 98 262.5 90.5Q294 83 336 83Z" glyph-name="Cdotaccent" horiz-adv-x="566" unicode="&#266;" /><glyph d="M409 312H65L79 387H423Z" glyph-name="Crossbar" horiz-adv-x="448" unicode="&#59204;" /><glyph d="M447 322H51L68 411H463Z" glyph-name="Crossbar.cap" horiz-adv-x="448" unicode="&#59205;" /><glyph d="M583 121H230L244 194H596Z" glyph-name="Crossbar.small" horiz-adv-x="448" unicode="&#59206;" /><glyph d="M303 89Q338 89 374.5 97.5Q411 106 440 135Q466 161 484.5 200.5Q503 240 515 283.5Q527 327 532.5 369Q538 411 538 443Q538 470 532 502Q526 534 503 557Q484 576 457.5 582.5Q431 589 398 589H262L169 89ZM659 445Q659 401 652.5 351Q646 301 631 251.5Q616 202 592.5 156.5Q569 111 535 77Q487 29 423.5 14.5Q360 0 290 0H39L164 678H408Q477 678 524 662Q571 646 605 612Q635 581 647 536Q659 491 659 445Z" glyph-name="D" horiz-adv-x="684" unicode="D" /><glyph d="M303 89Q338 89 374.5 97.5Q411 106 440 135Q466 161 484.5 200.5Q503 240 515 283.5Q527 327 532.5 369Q538 411 538 443Q538 470 532 502Q526 534 503 557Q484 576 457.5 582.5Q431 589 398 589H262L169 89ZM659 445Q659 401 652.5 351Q646 301 631 251.5Q616 202 592.5 156.5Q569 111 535 77Q487 29 423.5 14.5Q360 0 290 0H39L164 678H408Q477 678 524 662Q571 646 605 612Q635 581 647 536Q659 491 659 445ZM258 848H353L406 784L482 848H588L450 730H351Z" glyph-name="Dcaron" horiz-adv-x="684" unicode="&#270;" /><glyph d="M303 89Q338 89 374.5 97.5Q411 106 440 135Q466 161 484.5 200.5Q503 240 515 283.5Q527 327 532.5 369Q538 411 538 443Q538 470 532 502Q526 534 503 557Q484 576 457.5 582.5Q431 589 398 589H262L169 89ZM659 445Q659 401 652.5 351Q646 301 631 251.5Q616 202 592.5 156.5Q569 111 535 77Q487 29 423.5 14.5Q360 0 290 0H39L164 678H408Q477 678 524 662Q571 646 605 612Q635 581 647 536Q659 491 659 445ZM255 -36Q271 -37 289.5 -40Q308 -43 324 -50Q340 -57 351 -69Q362 -81 362 -100Q362 -126 347 -141.5Q332 -157 310 -165.5Q288 -174 263.5 -176.5Q239 -179 221 -179Q204 -179 182.5 -177Q161 -175 136 -167L148 -106Q168 -114 185.5 -116Q203 -118 217 -118Q224 -118 233 -117.5Q242 -117 250 -115Q258 -113 263.5 -108Q269 -103 269 -95Q269 -89 264.5 -85.5Q260 -82 253 -79.5Q246 -77 239 -76Q232 -75 228 -75Z" glyph-name="Dcedilla" horiz-adv-x="684" unicode="&#7696;" /><glyph d="M335 89Q370 89 406.5 97.5Q443 106 472 135Q498 161 516.5 200.5Q535 240 547 283.5Q559 327 564.5 369Q570 411 570 443Q570 470 564 502Q558 534 535 557Q516 576 489.5 582.5Q463 589 430 589H294L257 390H438L422 301H240L201 89ZM691 445Q691 401 684.5 351Q678 301 663 251.5Q648 202 624.5 156.5Q601 111 567 77Q519 29 455.5 14.5Q392 0 322 0H71L126 301H26L43 390H143L196 678H440Q509 678 556 662Q603 646 637 612Q667 581 679 536Q691 491 691 445Z" glyph-name="Dcroat" horiz-adv-x="716" unicode="&#272;" /><glyph d="M285 -189H178L196 -92H303ZM303 89Q338 89 374.5 97.5Q411 106 440 135Q466 161 484.5 200.5Q503 240 515 283.5Q527 327 532.5 369Q538 411 538 443Q538 470 532 502Q526 534 503 557Q484 576 457.5 582.5Q431 589 398 589H262L169 89ZM659 445Q659 401 652.5 351Q646 301 631 251.5Q616 202 592.5 156.5Q569 111 535 77Q487 29 423.5 14.5Q360 0 290 0H39L164 678H408Q477 678 524 662Q571 646 605 612Q635 581 647 536Q659 491 659 445Z" glyph-name="Ddotbelow" horiz-adv-x="684" unicode="&#7692;" /><glyph d="M542 88Q554 88 570 88.5Q586 89 594 88L473 524Q469 537 465 553Q461 569 459 580Q453 569 443 553.5Q433 538 425 526L142 88ZM526 684 704 67 690 0H1L11 67L416 684Z" glyph-name="Delta" horiz-adv-x="784" unicode="&#8710;" /><glyph d="M474 0H39L164 678H591L575 589H262L225 390H495L479 301H209L169 89H490Z" glyph-name="E" horiz-adv-x="555" unicode="E" /><glyph d="M474 0H39L164 678H591L575 589H262L225 390H495L479 301H209L169 89H490ZM432 734H335L466 846H603Z" glyph-name="Eacute" horiz-adv-x="555" unicode="&#201;" /><glyph d="M431 734H334L465 846H602ZM286 -189H179L197 -92H304ZM474 0H39L164 678H591L575 589H262L225 390H495L479 301H209L169 89H490Z" glyph-name="Eacutedotbelow" horiz-adv-x="555" unicode="&#59233;" /><glyph d="M396 791Q419 791 440 796.5Q461 802 476 817Q488 829 495 846H587Q579 825 570 808.5Q561 792 547 778Q518 749 477.5 736.5Q437 724 388 724Q346 724 314 733.5Q282 743 262 763Q247 778 238 798Q229 818 230 846H317Q318 824 332 810Q343 799 359.5 795Q376 791 396 791ZM474 0H39L164 678H591L575 589H262L225 390H495L479 301H209L169 89H490Z" glyph-name="Ebreve" horiz-adv-x="555" unicode="&#276;" /><glyph d="M474 0H39L164 678H591L575 589H262L225 390H495L479 301H209L169 89H490ZM246 848H341L394 784L470 848H576L438 730H339Z" glyph-name="Ecaron" horiz-adv-x="555" unicode="&#282;" /><glyph d="M474 0H39L164 678H591L575 589H262L225 390H495L479 301H209L169 89H490ZM553 732H458L405 795L329 732H223L361 850H460Z" glyph-name="Ecircumflex" horiz-adv-x="555" unicode="&#202;" /><glyph d="M474 0H39L164 678H591L575 589H262L225 390H495L479 301H209L169 89H490ZM548 748H440L458 843H565ZM340 748H233L250 843H358Z" glyph-name="Edieresis" horiz-adv-x="555" unicode="&#203;" /><glyph d="M453 749H341L359 845H471ZM474 0H39L164 678H591L575 589H262L225 390H495L479 301H209L169 89H490Z" glyph-name="Edotaccent" horiz-adv-x="555" unicode="&#278;" /><glyph d="M165 846H282L370 733H293ZM328 846H445L533 733H456ZM474 0H39L164 678H591L575 589H262L225 390H495L479 301H209L169 89H490Z" glyph-name="Edoublegrave" horiz-adv-x="555" unicode="&#516;" /><glyph d="M243 846H374L463 734H372ZM474 0H39L164 678H591L575 589H262L225 390H495L479 301H209L169 89H490Z" glyph-name="Egrave" horiz-adv-x="555" unicode="&#200;" /><glyph d="M242 846H373L462 734H371ZM286 -189H179L197 -92H304ZM474 0H39L164 678H591L575 589H262L225 390H495L479 301H209L169 89H490Z" glyph-name="Egravedotbelow" horiz-adv-x="555" unicode="&#59237;" /><glyph d="M474 0H39L164 678H591L575 589H262L225 390H495L479 301H209L169 89H490ZM398 788Q375 788 354.5 782.5Q334 777 319 762Q313 756 308 749Q303 742 299 733H208Q215 754 224 770.5Q233 787 247 801Q276 830 317 842.5Q358 855 406 855Q448 855 480 845.5Q512 836 532 816Q547 801 556.5 781Q566 761 565 733H477Q477 745 473 753.5Q469 762 462 769Q451 780 434.5 784Q418 788 398 788Z" glyph-name="Einvertedbreve" horiz-adv-x="555" unicode="&#518;" /><glyph d="M567 762H222L236 841H582ZM474 0H39L164 678H591L575 589H262L225 390H495L479 301H209L169 89H490Z" glyph-name="Emacron" horiz-adv-x="555" unicode="&#274;" /><glyph d="M302 374Q285 412 269.5 450.5Q254 489 242 524H239Q234 489 227 446.5Q220 404 212.5 360Q205 316 197.5 273.5Q190 231 184 197L149 0H39L163 678H288L451 306Q468 268 484 228Q500 188 512 152H515Q521 187 527.5 230Q534 273 541.5 317.5Q549 362 556.5 404.5Q564 447 570 481L606 678H716L618 147Q609 95 597 52Q585 9 569 -28.5Q553 -66 531.5 -100Q510 -134 480 -168H364Q397 -127 423 -84.5Q449 -42 467 6Z" glyph-name="Eng" horiz-adv-x="724" unicode="&#330;" /><glyph d="M474 0Q460 -7 448.5 -15.5Q437 -24 427 -34Q416 -45 407.5 -59.5Q399 -74 399 -88Q399 -103 410 -109.5Q421 -116 436 -116Q452 -116 467.5 -114Q483 -112 503 -106L492 -167Q472 -175 447.5 -177Q423 -179 406 -179Q390 -179 373 -176Q356 -173 342 -165Q328 -157 319 -144Q310 -131 310 -111Q310 -88 321.5 -68Q333 -48 351 -30Q359 -22 369.5 -14.5Q380 -7 391 0H39L164 678H591L575 589H262L225 390H495L479 301H209L169 89H490Z" glyph-name="Eogonek" horiz-adv-x="555" unicode="&#280;" /><glyph d="M335 89Q370 89 406.5 97.5Q443 106 472 135Q498 161 516.5 200.5Q535 240 547 283.5Q559 327 564.5 369Q570 411 570 443Q570 470 564 502Q558 534 535 557Q516 576 489.5 582.5Q463 589 430 589H294L257 390H438L422 301H240L201 89ZM691 445Q691 401 684.5 351Q678 301 663 251.5Q648 202 624.5 156.5Q601 111 567 77Q519 29 455.5 14.5Q392 0 322 0H71L126 301H26L43 390H143L196 678H440Q509 678 556 662Q603 646 637 612Q667 581 679 536Q691 491 691 445Z" glyph-name="Eth" horiz-adv-x="716" unicode="&#208;" /><glyph d="M37 260H85Q87 272 89.5 284Q92 296 94 309H30L71 374H112Q126 412 145.5 446Q165 480 188 503Q226 541 279 556.5Q332 572 398 572Q408 572 423.5 571Q439 570 457 568Q475 566 495 562Q515 558 533 551L518 468Q483 480 450.5 483Q418 486 397 486Q354 486 323 474.5Q292 463 268 439Q256 428 246 411Q236 394 228 374H461L419 309H208Q202 286 199 260H392L350 195H194V194Q194 162 200.5 140.5Q207 119 223 104Q253 75 321 75Q347 75 384 80.5Q421 86 463 98L447 12Q408 -3 363.5 -8.5Q319 -14 289 -14Q235 -14 196 1Q157 16 131 42Q105 66 93 104Q86 124 82.5 146.5Q79 169 80 195H-4Z" glyph-name="Euro" horiz-adv-x="534" unicode="&#8364;" /><glyph d="M96 320H145Q146 327 149 344.5Q152 362 154 369H84L126 439H171Q188 491 211 537Q234 583 265 615Q309 659 364 675.5Q419 692 485 692Q508 692 548 688.5Q588 685 631 669L614 579Q579 592 544.5 596.5Q510 601 489 601Q449 601 417.5 591Q386 581 360 555Q340 535 324.5 504.5Q309 474 297 439H540L497 369H277Q275 362 271.5 344.5Q268 327 267 320H472L430 250H259Q258 245 258 235Q258 225 258 220Q258 180 266 154.5Q274 129 291 113Q308 96 333.5 89.5Q359 83 393 83Q422 83 464 89.5Q506 96 541 109L524 14Q504 5 481.5 -0.5Q459 -6 436 -9Q413 -12 392 -13Q371 -14 355 -14Q302 -14 263 0.5Q224 15 196 42Q168 68 152 113Q136 158 136 218Q136 224 136 234Q136 244 137 250H55Z" glyph-name="Euro.LP" horiz-adv-x="660" unicode="&#58657;" /><glyph d="M39 0 164 678H599L582 589H262L225 390H495L479 301H209L153 0Z" glyph-name="F" horiz-adv-x="524" unicode="F" /><glyph d="M361 390H631L565 35Q535 21 501.5 11.5Q468 2 435 -4Q402 -10 371 -12.5Q340 -15 314 -15Q181 -15 115 51Q86 79 70 123Q54 167 54 225Q54 270 62 323Q70 376 86 428.5Q102 481 126.5 528Q151 575 184 608Q234 658 302.5 675Q371 692 458 692Q472 692 494.5 691Q517 690 542 687.5Q567 685 593 680.5Q619 676 641 669L624 579Q605 584 583 588Q561 592 539.5 595Q518 598 498 599.5Q478 601 463 601Q400 601 354.5 589Q309 577 274 542Q251 519 233 481Q215 443 202.5 399.5Q190 356 183.5 312Q177 268 177 233Q177 188 187.5 158.5Q198 129 216 111Q236 91 265.5 83.5Q295 76 330 76Q342 76 358.5 77Q375 78 392.5 80Q410 82 428 85.5Q446 89 462 94L500 301H345Z" glyph-name="G" horiz-adv-x="678" unicode="G" /><glyph d="M361 390H631L565 35Q535 21 501.5 11.5Q468 2 435 -4Q402 -10 371 -12.5Q340 -15 314 -15Q181 -15 115 51Q86 79 70 123Q54 167 54 225Q54 270 62 323Q70 376 86 428.5Q102 481 126.5 528Q151 575 184 608Q234 658 302.5 675Q371 692 458 692Q472 692 494.5 691Q517 690 542 687.5Q567 685 593 680.5Q619 676 641 669L624 579Q605 584 583 588Q561 592 539.5 595Q518 598 498 599.5Q478 601 463 601Q400 601 354.5 589Q309 577 274 542Q251 519 233 481Q215 443 202.5 399.5Q190 356 183.5 312Q177 268 177 233Q177 188 187.5 158.5Q198 129 216 111Q236 91 265.5 83.5Q295 76 330 76Q342 76 358.5 77Q375 78 392.5 80Q410 82 428 85.5Q446 89 462 94L500 301H345ZM473 734H376L507 846H644Z" glyph-name="Gacute" horiz-adv-x="678" unicode="&#500;" /><glyph d="M439 791Q462 791 483 796.5Q504 802 519 817Q531 829 538 846H630Q622 825 613 808.5Q604 792 590 778Q561 749 520.5 736.5Q480 724 431 724Q389 724 357 733.5Q325 743 305 763Q290 778 281 798Q272 818 273 846H360Q361 824 375 810Q386 799 402.5 795Q419 791 439 791ZM361 390H631L565 35Q535 21 501.5 11.5Q468 2 435 -4Q402 -10 371 -12.5Q340 -15 314 -15Q181 -15 115 51Q86 79 70 123Q54 167 54 225Q54 270 62 323Q70 376 86 428.5Q102 481 126.5 528Q151 575 184 608Q234 658 302.5 675Q371 692 458 692Q472 692 494.5 691Q517 690 542 687.5Q567 685 593 680.5Q619 676 641 669L624 579Q605 584 583 588Q561 592 539.5 595Q518 598 498 599.5Q478 601 463 601Q400 601 354.5 589Q309 577 274 542Q251 519 233 481Q215 443 202.5 399.5Q190 356 183.5 312Q177 268 177 233Q177 188 187.5 158.5Q198 129 216 111Q236 91 265.5 83.5Q295 76 330 76Q342 76 358.5 77Q375 78 392.5 80Q410 82 428 85.5Q446 89 462 94L500 301H345Z" glyph-name="Gbreve" horiz-adv-x="678" unicode="&#286;" /><glyph d="M361 390H631L565 35Q535 21 501.5 11.5Q468 2 435 -4Q402 -10 371 -12.5Q340 -15 314 -15Q181 -15 115 51Q86 79 70 123Q54 167 54 225Q54 270 62 323Q70 376 86 428.5Q102 481 126.5 528Q151 575 184 608Q234 658 302.5 675Q371 692 458 692Q472 692 494.5 691Q517 690 542 687.5Q567 685 593 680.5Q619 676 641 669L624 579Q605 584 583 588Q561 592 539.5 595Q518 598 498 599.5Q478 601 463 601Q400 601 354.5 589Q309 577 274 542Q251 519 233 481Q215 443 202.5 399.5Q190 356 183.5 312Q177 268 177 233Q177 188 187.5 158.5Q198 129 216 111Q236 91 265.5 83.5Q295 76 330 76Q342 76 358.5 77Q375 78 392.5 80Q410 82 428 85.5Q446 89 462 94L500 301H345ZM298 848H393L446 784L522 848H628L490 730H391Z" glyph-name="Gcaron" horiz-adv-x="678" unicode="&#486;" /><glyph d="M361 390H631L565 35Q535 21 501.5 11.5Q468 2 435 -4Q402 -10 371 -12.5Q340 -15 314 -15Q181 -15 115 51Q86 79 70 123Q54 167 54 225Q54 270 62 323Q70 376 86 428.5Q102 481 126.5 528Q151 575 184 608Q234 658 302.5 675Q371 692 458 692Q472 692 494.5 691Q517 690 542 687.5Q567 685 593 680.5Q619 676 641 669L624 579Q605 584 583 588Q561 592 539.5 595Q518 598 498 599.5Q478 601 463 601Q400 601 354.5 589Q309 577 274 542Q251 519 233 481Q215 443 202.5 399.5Q190 356 183.5 312Q177 268 177 233Q177 188 187.5 158.5Q198 129 216 111Q236 91 265.5 83.5Q295 76 330 76Q342 76 358.5 77Q375 78 392.5 80Q410 82 428 85.5Q446 89 462 94L500 301H345ZM605 732H510L457 795L381 732H275L413 850H512Z" glyph-name="Gcircumflex" horiz-adv-x="678" unicode="&#284;" /><glyph d="M361 390H631L565 35Q535 21 501.5 11.5Q468 2 435 -4Q402 -10 371 -12.5Q340 -15 314 -15Q181 -15 115 51Q86 79 70 123Q54 167 54 225Q54 270 62 323Q70 376 86 428.5Q102 481 126.5 528Q151 575 184 608Q234 658 302.5 675Q371 692 458 692Q472 692 494.5 691Q517 690 542 687.5Q567 685 593 680.5Q619 676 641 669L624 579Q605 584 583 588Q561 592 539.5 595Q518 598 498 599.5Q478 601 463 601Q400 601 354.5 589Q309 577 274 542Q251 519 233 481Q215 443 202.5 399.5Q190 356 183.5 312Q177 268 177 233Q177 188 187.5 158.5Q198 129 216 111Q236 91 265.5 83.5Q295 76 330 76Q342 76 358.5 77Q375 78 392.5 80Q410 82 428 85.5Q446 89 462 94L500 301H345ZM258 -75H373L253 -258H185Z" glyph-name="Gcommaaccent" horiz-adv-x="678" unicode="&#290;" /><glyph d="M361 390H631L565 35Q535 21 501.5 11.5Q468 2 435 -4Q402 -10 371 -12.5Q340 -15 314 -15Q181 -15 115 51Q86 79 70 123Q54 167 54 225Q54 270 62 323Q70 376 86 428.5Q102 481 126.5 528Q151 575 184 608Q234 658 302.5 675Q371 692 458 692Q472 692 494.5 691Q517 690 542 687.5Q567 685 593 680.5Q619 676 641 669L624 579Q605 584 583 588Q561 592 539.5 595Q518 598 498 599.5Q478 601 463 601Q400 601 354.5 589Q309 577 274 542Q251 519 233 481Q215 443 202.5 399.5Q190 356 183.5 312Q177 268 177 233Q177 188 187.5 158.5Q198 129 216 111Q236 91 265.5 83.5Q295 76 330 76Q342 76 358.5 77Q375 78 392.5 80Q410 82 428 85.5Q446 89 462 94L500 301H345ZM770 565H656L776 747H843Z" glyph-name="Gcommaturnedabove" horiz-adv-x="750" unicode="&#57607;" /><glyph d="M497 749H385L403 845H515ZM361 390H631L565 35Q535 21 501.5 11.5Q468 2 435 -4Q402 -10 371 -12.5Q340 -15 314 -15Q181 -15 115 51Q86 79 70 123Q54 167 54 225Q54 270 62 323Q70 376 86 428.5Q102 481 126.5 528Q151 575 184 608Q234 658 302.5 675Q371 692 458 692Q472 692 494.5 691Q517 690 542 687.5Q567 685 593 680.5Q619 676 641 669L624 579Q605 584 583 588Q561 592 539.5 595Q518 598 498 599.5Q478 601 463 601Q400 601 354.5 589Q309 577 274 542Q251 519 233 481Q215 443 202.5 399.5Q190 356 183.5 312Q177 268 177 233Q177 188 187.5 158.5Q198 129 216 111Q236 91 265.5 83.5Q295 76 330 76Q342 76 358.5 77Q375 78 392.5 80Q410 82 428 85.5Q446 89 462 94L500 301H345Z" glyph-name="Gdotaccent" horiz-adv-x="678" unicode="&#288;" /><glyph d="M361 390H631L602 237H704L688 148H586L565 35Q535 21 501.5 11.5Q468 2 435 -4Q402 -10 371 -12.5Q340 -15 314 -15Q181 -15 115 51Q86 79 70 123Q54 167 54 225Q54 270 62 323Q70 376 86 428.5Q102 481 126.5 528Q151 575 184 608Q234 658 302.5 675Q371 692 458 692Q472 692 494.5 691Q517 690 542 687.5Q567 685 593 680.5Q619 676 641 669L624 579Q605 584 583 588Q561 592 539.5 595Q518 598 498 599.5Q478 601 463 601Q400 601 354.5 589Q309 577 274 542Q251 519 233 481Q215 443 202.5 399.5Q190 356 183.5 312Q177 268 177 233Q177 188 187.5 158.5Q198 129 216 111Q236 91 265.5 83.5Q295 76 330 76Q342 76 358.5 77Q375 78 392.5 80Q410 82 428 85.5Q446 89 462 94L472 148H292L309 237H488L500 301H345Z" glyph-name="Gstroke" horiz-adv-x="678" unicode="&#484;" /><glyph d="M527 826Q549 826 579 838Q609 850 632 864L618 787Q609 781 596 774Q583 767 568.5 762Q554 757 539.5 753.5Q525 750 512 750Q491 750 472.5 755Q454 760 437.5 766Q421 772 404 777Q387 782 369 782Q346 782 315.5 770.5Q285 759 261 745L276 823Q285 829 298 835.5Q311 842 326 847.5Q341 853 356 856.5Q371 860 383 860Q405 860 422.5 855Q440 850 456.5 843.5Q473 837 490 831.5Q507 826 527 826ZM361 390H631L565 35Q535 21 501.5 11.5Q468 2 435 -4Q402 -10 371 -12.5Q340 -15 314 -15Q181 -15 115 51Q86 79 70 123Q54 167 54 225Q54 270 62 323Q70 376 86 428.5Q102 481 126.5 528Q151 575 184 608Q234 658 302.5 675Q371 692 458 692Q472 692 494.5 691Q517 690 542 687.5Q567 685 593 680.5Q619 676 641 669L624 579Q605 584 583 588Q561 592 539.5 595Q518 598 498 599.5Q478 601 463 601Q400 601 354.5 589Q309 577 274 542Q251 519 233 481Q215 443 202.5 399.5Q190 356 183.5 312Q177 268 177 233Q177 188 187.5 158.5Q198 129 216 111Q236 91 265.5 83.5Q295 76 330 76Q342 76 358.5 77Q375 78 392.5 80Q410 82 428 85.5Q446 89 462 94L500 301H345Z" glyph-name="Gtilde" horiz-adv-x="678" unicode="&#57605;" /><glyph d="M574 0H459L515 301H209L153 0H39L164 678H278L225 390H531L584 678H699Z" glyph-name="H" horiz-adv-x="706" unicode="H" /><glyph d="M531 390 545 470H239L225 390ZM574 0H459L515 301H209L153 0H39L164 678H278L256 559H562L584 678H699Z" glyph-name="Hbar" horiz-adv-x="706" unicode="&#294;" /><glyph d="M574 0H459L515 301H209L153 0H39L164 678H278L225 390H531L584 678H699ZM295 848H390L443 784L519 848H625L487 730H388Z" glyph-name="Hcaron" horiz-adv-x="706" unicode="&#542;" /><glyph d="M574 0H459L515 301H209L153 0H39L164 678H278L225 390H531L584 678H699ZM602 732H507L454 795L378 732H272L410 850H509Z" glyph-name="Hcircumflex" horiz-adv-x="706" unicode="&#292;" /><glyph d="M325 -189H218L236 -92H343ZM574 0H459L515 301H209L153 0H39L164 678H278L225 390H531L584 678H699Z" glyph-name="Hdotbelow" horiz-adv-x="706" unicode="&#7716;" /><glyph d="M451 -153H106L120 -74H466ZM574 0H459L515 301H209L153 0H39L164 678H278L225 390H531L584 678H699Z" glyph-name="Hmacronbelow" horiz-adv-x="706" unicode="&#57609;" /><glyph d="M153 0H39L164 678H278Z" glyph-name="I" horiz-adv-x="286" unicode="I" /><glyph d="M227 -118Q278 -55 312 14.5Q346 84 361 169L456 678H570L481 197Q472 145 460 102Q448 59 432 21.5Q416 -16 394.5 -50Q373 -84 343 -118ZM153 0H39L164 678H278Z" glyph-name="IJ" horiz-adv-x="578" unicode="&#306;" /><glyph d="M277 734H180L311 846H448ZM153 0H39L164 678H278Z" glyph-name="Iacute" horiz-adv-x="286" unicode="&#205;" /><glyph d="M237 791Q260 791 281 796.5Q302 802 317 817Q329 829 336 846H428Q420 825 411 808.5Q402 792 388 778Q359 749 318.5 736.5Q278 724 229 724Q187 724 155 733.5Q123 743 103 763Q88 778 79 798Q70 818 71 846H158Q159 824 173 810Q184 799 200.5 795Q217 791 237 791ZM153 0H39L164 678H278Z" glyph-name="Ibreve" horiz-adv-x="286" unicode="&#300;" /><glyph d="M153 0H39L164 678H278ZM86 848H181L234 784L310 848H416L278 730H179Z" glyph-name="Icaron" horiz-adv-x="286" unicode="&#463;" /><glyph d="M153 0H39L164 678H278ZM397 732H302L249 795L173 732H67L205 850H304Z" glyph-name="Icircumflex" horiz-adv-x="286" unicode="&#206;" /><glyph d="M153 0H39L164 678H278ZM392 748H284L302 843H409ZM184 748H77L94 843H202Z" glyph-name="Idieresis" horiz-adv-x="286" unicode="&#207;" /><glyph d="M290 749H178L196 845H308ZM153 0H39L164 678H278Z" glyph-name="Idotaccent" horiz-adv-x="286" unicode="&#304;" /><glyph d="M114 -189H7L25 -92H132ZM153 0H39L164 678H278Z" glyph-name="Idotbelow" horiz-adv-x="286" unicode="&#7882;" /><glyph d="M-14 846H103L191 733H114ZM149 846H266L354 733H277ZM154 0H40L165 678H279Z" glyph-name="Idoublegrave" horiz-adv-x="286" unicode="&#520;" /><glyph d="M58 846H189L278 734H187ZM153 0H39L164 678H278Z" glyph-name="Igrave" horiz-adv-x="286" unicode="&#204;" /><glyph d="M240 788Q217 788 196.5 782.5Q176 777 161 762Q155 756 150 749Q145 742 141 733H50Q57 754 66 770.5Q75 787 89 801Q118 830 159 842.5Q200 855 248 855Q290 855 322 845.5Q354 836 374 816Q389 801 398.5 781Q408 761 407 733H319Q319 745 315 753.5Q311 762 304 769Q293 780 276.5 784Q260 788 240 788ZM153 0H39L164 678H278Z" glyph-name="Iinvertedbreve" horiz-adv-x="286" unicode="&#522;" /><glyph d="M410 762H65L79 841H425ZM153 0H39L164 678H278Z" glyph-name="Imacron" horiz-adv-x="286" unicode="&#298;" /><glyph d="M107 -34Q96 -45 87.5 -59.5Q79 -74 79 -88Q79 -103 90 -109.5Q101 -116 116 -116Q132 -116 147.5 -114Q163 -112 183 -106L172 -167Q152 -175 127.5 -177Q103 -179 86 -179Q70 -179 53 -176Q36 -173 22 -165Q8 -157 -1 -144Q-10 -131 -10 -111Q-10 -88 1.5 -68Q13 -48 31 -30Q39 -22 49.5 -14.5Q60 -7 71 0H40L165 678H279L154 0Q140 -7 128.5 -15.5Q117 -24 107 -34Z" glyph-name="Iogonek" horiz-adv-x="286" unicode="&#302;" /><glyph d="M327 826Q349 826 379 838Q409 850 432 864L418 787Q409 781 396 774Q383 767 368.5 762Q354 757 339.5 753.5Q325 750 312 750Q291 750 272.5 755Q254 760 237.5 766Q221 772 204 777Q187 782 169 782Q146 782 115.5 770.5Q85 759 61 745L76 823Q85 829 98 835.5Q111 842 126 847.5Q141 853 156 856.5Q171 860 183 860Q205 860 222.5 855Q240 850 256.5 843.5Q273 837 290 831.5Q307 826 327 826ZM153 0H39L164 678H278Z" glyph-name="Itilde" horiz-adv-x="286" unicode="&#296;" /><glyph d="M-59 -118Q-8 -55 26 14.5Q60 84 75 169L170 678H284L195 197Q186 145 174 102Q162 59 146 21.5Q130 -16 108.5 -50Q87 -84 57 -118Z" glyph-name="J" horiz-adv-x="292" unicode="J" /><glyph d="M-59 -118Q-8 -55 26 14.5Q60 84 75 169L170 678H284L195 197Q186 145 174 102Q162 59 146 21.5Q130 -16 108.5 -50Q87 -84 57 -118ZM91 848H186L239 784L315 848H421L283 730H184Z" glyph-name="Jcaron" horiz-adv-x="292" unicode="&#57611;" /><glyph d="M-59 -118Q-8 -55 26 14.5Q60 84 75 169L170 678H284L195 197Q186 145 174 102Q162 59 146 21.5Q130 -16 108.5 -50Q87 -84 57 -118ZM399 732H304L251 795L175 732H69L207 850H306Z" glyph-name="Jcircumflex" horiz-adv-x="292" unicode="&#308;" /><glyph d="M209 301 153 0H39L164 678H278L225 390H306L541 678H676L407 349L577 0H454L308 301Z" glyph-name="K" horiz-adv-x="627" unicode="K" /><glyph d="M209 301 153 0H39L164 678H278L225 390H306L541 678H676L407 349L577 0H454L308 301ZM256 848H351L404 784L480 848H586L448 730H349Z" glyph-name="Kcaron" horiz-adv-x="627" unicode="&#488;" /><glyph d="M253 -36Q269 -37 287.5 -40Q306 -43 322 -50Q338 -57 349 -69Q360 -81 360 -100Q360 -126 345 -141.5Q330 -157 308 -165.5Q286 -174 261.5 -176.5Q237 -179 219 -179Q202 -179 180.5 -177Q159 -175 134 -167L146 -106Q166 -114 183.5 -116Q201 -118 215 -118Q222 -118 231 -117.5Q240 -117 248 -115Q256 -113 261.5 -108Q267 -103 267 -95Q267 -89 262.5 -85.5Q258 -82 251 -79.5Q244 -77 237 -76Q230 -75 226 -75ZM209 301 153 0H39L164 678H278L225 390H306L541 678H676L407 349L577 0H454L308 301Z" glyph-name="Kcedilla" horiz-adv-x="627" unicode="&#57613;" /><glyph d="M209 301 153 0H39L164 678H278L225 390H306L541 678H676L407 349L577 0H454L308 301ZM216 -75H331L211 -258H143Z" glyph-name="Kcommaaccent" horiz-adv-x="627" unicode="&#310;" /><glyph d="M209 301 153 0H39L164 678H278L225 390H306L541 678H676L407 349L577 0H454L308 301Z" glyph-name="Kgreenlandic" horiz-adv-x="627" unicode="&#59283;" /><glyph d="M577 0H454L309 301H209L153 0H39L164 678H278L225 390H263Q274 395 286 405.5Q298 416 309 427Q332 450 351.5 475Q371 500 389.5 525Q408 550 426 574Q444 598 465 619Q497 651 538.5 668.5Q580 686 628 686Q650 686 669 682Q688 678 699 670L684 585Q672 591 653 593Q634 595 623 595Q600 595 579.5 584Q559 573 541 556Q522 537 505 514.5Q488 492 470.5 468.5Q453 445 434 420.5Q415 396 393 374Z" glyph-name="Khook" horiz-adv-x="627" unicode="&#408;" /><glyph d="M471 0H39L164 678H278L169 89H487Z" glyph-name="L" horiz-adv-x="522" unicode="L" /><glyph d="M471 0H39L164 678H278L169 89H487ZM276 734H179L310 846H447Z" glyph-name="Lacute" horiz-adv-x="522" unicode="&#313;" /><glyph d="M471 0H39L164 678H278L169 89H487ZM464 678H579L459 496H390Z" glyph-name="Lcaron" horiz-adv-x="567" unicode="&#317;" /><glyph d="M471 0H39L164 678H278L169 89H487ZM240 -36Q256 -37 274.5 -40Q293 -43 309 -50Q325 -57 336 -69Q347 -81 347 -100Q347 -126 332 -141.5Q317 -157 295 -165.5Q273 -174 248.5 -176.5Q224 -179 206 -179Q189 -179 167.5 -177Q146 -175 121 -167L133 -106Q153 -114 170.5 -116Q188 -118 202 -118Q209 -118 218 -117.5Q227 -117 235 -115Q243 -113 248.5 -108Q254 -103 254 -95Q254 -89 249.5 -85.5Q245 -82 238 -79.5Q231 -77 224 -76Q217 -75 213 -75Z" glyph-name="Lcedilla" horiz-adv-x="522" unicode="&#57615;" /><glyph d="M471 0H39L164 678H278L169 89H487ZM188 -75H303L183 -258H115Z" glyph-name="Lcommaaccent" horiz-adv-x="522" unicode="&#315;" /><glyph d="M485 297H378L396 394H503ZM471 0H39L164 678H278L169 89H487Z" glyph-name="Ldot" horiz-adv-x="537" unicode="&#319;" /><glyph d="M277 -189H170L188 -92H295ZM471 0H39L164 678H278L169 89H487Z" glyph-name="Ldotbelow" horiz-adv-x="522" unicode="&#7734;" /><glyph d="M277 -189H171L189 -92H295ZM406 762H61L75 841H421ZM471 0H39L164 678H278L169 89H487Z" glyph-name="Ldotbelowmacron" horiz-adv-x="522" unicode="&#7736;" /><glyph d="M494 0H62L103 225L-15 157L6 267L123 334L187 678H301L251 407L471 534L450 424L230 298L192 89H510Z" glyph-name="Lslash" horiz-adv-x="545" unicode="&#321;" /><glyph d="M449 135H364L287 393Q281 413 276 431Q271 449 266.5 468Q262 487 257.5 507Q253 527 247 552H244Q238 507 232 466.5Q226 426 219.5 386Q213 346 206 305Q199 264 191 219L151 0H39L164 678H313L426 279H429L697 678H850L725 0H614L654 219Q662 264 670.5 305.5Q679 347 687.5 387Q696 427 705 467.5Q714 508 724 552H721Q695 502 672 464Q649 426 621 386Z" glyph-name="M" horiz-adv-x="857" unicode="M" /><glyph d="M448 135H363L286 393Q280 413 275 431Q270 449 265.5 468Q261 487 256.5 507Q252 527 246 552H243Q237 507 231 466.5Q225 426 218.5 386Q212 346 205 305Q198 264 190 219L150 0H38L163 678H312L425 279H428L696 678H849L724 0H613L653 219Q661 264 669.5 305.5Q678 347 686.5 387Q695 427 704 467.5Q713 508 723 552H720Q694 502 671 464Q648 426 620 386ZM362 -36Q378 -37 396.5 -40Q415 -43 431 -50Q447 -57 458 -69Q469 -81 469 -100Q469 -126 454 -141.5Q439 -157 417 -165.5Q395 -174 370.5 -176.5Q346 -179 328 -179Q311 -179 289.5 -177Q268 -175 243 -167L255 -106Q275 -114 292.5 -116Q310 -118 324 -118Q331 -118 340 -117.5Q349 -117 357 -115Q365 -113 370.5 -108Q376 -103 376 -95Q376 -89 371.5 -85.5Q367 -82 360 -79.5Q353 -77 346 -76Q339 -75 335 -75Z" glyph-name="Mcedilla" horiz-adv-x="855" unicode="&#57619;" /><glyph d="M398 -189H291L309 -92H416ZM448 135H363L286 393Q280 413 275 431Q270 449 265.5 468Q261 487 256.5 507Q252 527 246 552H243Q237 507 231 466.5Q225 426 218.5 386Q212 346 205 305Q198 264 190 219L150 0H38L163 678H312L425 279H428L696 678H849L724 0H613L653 219Q661 264 669.5 305.5Q678 347 686.5 387Q695 427 704 467.5Q713 508 723 552H720Q694 502 671 464Q648 426 620 386Z" glyph-name="Mdotbelow" horiz-adv-x="855" unicode="&#7746;" /><glyph d="M691 762H346L360 841H706ZM449 135H364L287 393Q281 413 276 431Q271 449 266.5 468Q262 487 257.5 507Q253 527 247 552H244Q238 507 232 466.5Q226 426 219.5 386Q213 346 206 305Q199 264 191 219L151 0H39L164 678H313L426 279H429L697 678H850L725 0H614L654 219Q662 264 670.5 305.5Q679 347 687.5 387Q696 427 705 467.5Q714 508 724 552H721Q695 502 672 464Q649 426 621 386Z" glyph-name="Mmacron" horiz-adv-x="857" unicode="&#57617;" /><glyph d="M451 305Q468 267 484 227.5Q500 188 512 152H515Q521 187 527.5 230Q534 273 541.5 317.5Q549 362 556.5 404.5Q564 447 570 481L606 678H716L592 0H469L302 374Q285 412 269.5 450.5Q254 489 242 524H239Q234 489 227 446.5Q220 404 212.5 360Q205 316 197.5 273.5Q190 231 184 197L149 0H39L163 678H288Z" glyph-name="N" horiz-adv-x="724" unicode="N" /><glyph d="M451 305Q468 267 484 227.5Q500 188 512 152H515Q521 187 527.5 230Q534 273 541.5 317.5Q549 362 556.5 404.5Q564 447 570 481L606 678H716L592 0H469L302 374Q285 412 269.5 450.5Q254 489 242 524H239Q234 489 227 446.5Q220 404 212.5 360Q205 316 197.5 273.5Q190 231 184 197L149 0H39L163 678H288ZM490 734H393L524 846H661Z" glyph-name="Nacute" horiz-adv-x="724" unicode="&#323;" /><glyph d="M451 305Q468 267 484 227.5Q500 188 512 152H515Q521 187 527.5 230Q534 273 541.5 317.5Q549 362 556.5 404.5Q564 447 570 481L606 678H716L592 0H469L302 374Q285 412 269.5 450.5Q254 489 242 524H239Q234 489 227 446.5Q220 404 212.5 360Q205 316 197.5 273.5Q190 231 184 197L149 0H39L163 678H288ZM308 848H403L456 784L532 848H638L500 730H401Z" glyph-name="Ncaron" horiz-adv-x="724" unicode="&#327;" /><glyph d="M451 305Q468 267 484 227.5Q500 188 512 152H515Q521 187 527.5 230Q534 273 541.5 317.5Q549 362 556.5 404.5Q564 447 570 481L606 678H716L592 0H469L302 374Q285 412 269.5 450.5Q254 489 242 524H239Q234 489 227 446.5Q220 404 212.5 360Q205 316 197.5 273.5Q190 231 184 197L149 0H39L163 678H288ZM291 -36Q307 -37 325.5 -40Q344 -43 360 -50Q376 -57 387 -69Q398 -81 398 -100Q398 -126 383 -141.5Q368 -157 346 -165.5Q324 -174 299.5 -176.5Q275 -179 257 -179Q240 -179 218.5 -177Q197 -175 172 -167L184 -106Q204 -114 221.5 -116Q239 -118 253 -118Q260 -118 269 -117.5Q278 -117 286 -115Q294 -113 299.5 -108Q305 -103 305 -95Q305 -89 300.5 -85.5Q296 -82 289 -79.5Q282 -77 275 -76Q268 -75 264 -75Z" glyph-name="Ncedilla" horiz-adv-x="724" unicode="&#57625;" /><glyph d="M451 305Q468 267 484 227.5Q500 188 512 152H515Q521 187 527.5 230Q534 273 541.5 317.5Q549 362 556.5 404.5Q564 447 570 481L606 678H716L592 0H469L302 374Q285 412 269.5 450.5Q254 489 242 524H239Q234 489 227 446.5Q220 404 212.5 360Q205 316 197.5 273.5Q190 231 184 197L149 0H39L163 678H288ZM238 -75H353L233 -258H165Z" glyph-name="Ncommaaccent" horiz-adv-x="724" unicode="&#325;" /><glyph d="M451 305Q468 267 484 227.5Q500 188 512 152H515Q521 187 527.5 230Q534 273 541.5 317.5Q549 362 556.5 404.5Q564 447 570 481L606 678H716L607 82H697L660 -118H566L588 0H469L302 374Q285 412 269.5 450.5Q254 489 242 524H239Q234 489 227 446.5Q220 404 212.5 360Q205 316 197.5 273.5Q190 231 184 197L149 0H39L163 678H288Z" glyph-name="Ndescender" horiz-adv-x="728" unicode="&#59398;" /><glyph d="M451 305Q468 267 484 227.5Q500 188 512 152H515Q521 187 527.5 230Q534 273 541.5 317.5Q549 362 556.5 404.5Q564 447 570 481L606 678H716L592 0H469L302 374Q285 412 269.5 450.5Q254 489 242 524H239Q234 489 227 446.5Q220 404 212.5 360Q205 316 197.5 273.5Q190 231 184 197L149 0H39L163 678H288ZM612 748H504L522 843H629ZM404 748H297L314 843H422Z" glyph-name="Ndieresis" horiz-adv-x="724" unicode="&#57621;" /><glyph d="M451 305Q468 267 484 227.5Q500 188 512 152H515Q521 187 527.5 230Q534 273 541.5 317.5Q549 362 556.5 404.5Q564 447 570 481L606 678H716L592 0H469L302 374Q285 412 269.5 450.5Q254 489 242 524H239Q234 489 227 446.5Q220 404 212.5 360Q205 316 197.5 273.5Q190 231 184 197L149 0H39L163 678H288ZM508 749H396L414 845H526Z" glyph-name="Ndotaccent" horiz-adv-x="724" unicode="&#7748;" /><glyph d="M326 -189H219L237 -92H344ZM451 305Q468 267 484 227.5Q500 188 512 152H515Q521 187 527.5 230Q534 273 541.5 317.5Q549 362 556.5 404.5Q564 447 570 481L606 678H716L592 0H469L302 374Q285 412 269.5 450.5Q254 489 242 524H239Q234 489 227 446.5Q220 404 212.5 360Q205 316 197.5 273.5Q190 231 184 197L149 0H39L163 678H288Z" glyph-name="Ndotbelow" horiz-adv-x="724" unicode="&#7750;" /><glyph d="M451 305Q468 267 484 227.5Q500 188 512 152H515Q521 187 527.5 230Q534 273 541.5 317.5Q549 362 556.5 404.5Q564 447 570 481L606 678H716L592 0H469L302 374Q285 412 269.5 450.5Q254 489 242 524H239Q234 489 227 446.5Q220 404 212.5 360Q205 316 197.5 273.5Q190 231 184 197L149 0H39L163 678H288ZM295 846H426L515 734H424Z" glyph-name="Ngrave" horiz-adv-x="724" unicode="&#504;" /><glyph d="M451 305Q468 267 484 227.5Q500 188 512 152H515Q521 187 527.5 230Q534 273 541.5 317.5Q549 362 556.5 404.5Q564 447 570 481L606 678H716L592 0H469L302 374Q285 412 269.5 450.5Q254 489 242 524H239Q234 489 227 446.5Q220 404 212.5 360Q205 316 197.5 273.5Q190 231 184 197L149 0H39L163 678H288ZM629 762H284L298 841H644Z" glyph-name="Nmacron" horiz-adv-x="724" unicode="&#57623;" /><glyph d="M544 826Q566 826 596 838Q626 850 649 864L635 787Q626 781 613 774Q600 767 585.5 762Q571 757 556.5 753.5Q542 750 529 750Q508 750 489.5 755Q471 760 454.5 766Q438 772 421 777Q404 782 386 782Q363 782 332.5 770.5Q302 759 278 745L293 823Q302 829 315 835.5Q328 842 343 847.5Q358 853 373 856.5Q388 860 400 860Q422 860 439.5 855Q457 850 473.5 843.5Q490 837 507 831.5Q524 826 544 826ZM451 305Q468 267 484 227.5Q500 188 512 152H515Q521 187 527.5 230Q534 273 541.5 317.5Q549 362 556.5 404.5Q564 447 570 481L606 678H716L592 0H469L302 374Q285 412 269.5 450.5Q254 489 242 524H239Q234 489 227 446.5Q220 404 212.5 360Q205 316 197.5 273.5Q190 231 184 197L149 0H39L163 678H288Z" glyph-name="Ntilde" horiz-adv-x="724" unicode="&#209;" /><glyph d="M302 -14Q233 -14 185.5 4Q138 22 109 51Q80 80 66.5 123Q53 166 53 220Q53 264 60.5 318Q68 372 83.5 426Q99 480 122.5 528.5Q146 577 179 610Q223 654 286 673Q349 692 433 692Q502 692 549.5 674.5Q597 657 626 628Q655 599 668.5 555.5Q682 512 682 459Q682 415 674.5 360.5Q667 306 651.5 252Q636 198 612.5 150Q589 102 556 69Q512 25 449 5.5Q386 -14 302 -14ZM319 76Q410 76 462 128Q486 152 504 193.5Q522 235 534.5 282.5Q547 330 553.5 377.5Q560 425 560 460Q560 536 525 570Q493 602 416 602Q324 602 273 551Q249 527 231 485.5Q213 444 200.5 396.5Q188 349 181.5 301.5Q175 254 175 219Q175 143 210 108Q242 76 319 76Z" glyph-name="O" horiz-adv-x="704" unicode="O" /><glyph d="M319 76Q410 76 462 128Q486 152 504 193.5Q522 235 534.5 282.5Q547 330 553.5 377.5Q560 425 560 460Q560 536 525 570Q493 602 416 602Q324 602 273 551Q249 527 231 485.5Q213 444 200.5 396.5Q188 349 181.5 301.5Q175 254 175 219Q175 143 210 108Q242 76 319 76ZM302 -14Q233 -14 185.5 4Q138 22 109 51Q80 80 66.5 122.5Q53 165 53 218Q53 262 60.5 316.5Q68 371 83.5 425.5Q99 480 122.5 528.5Q146 577 179 610Q223 654 286 673Q349 692 433 692Q498 692 537 677.5Q576 663 605 634H607L615 678H1042L1026 589H713L676 390H946L930 301H660L620 89H941L925 0H490L497 40H495Q461 12 416 -1Q371 -14 302 -14Z" glyph-name="OE" horiz-adv-x="1006" unicode="&#338;" /><glyph d="M302 -14Q233 -14 185.5 4Q138 22 109 51Q80 80 66.5 123Q53 166 53 220Q53 264 60.5 318Q68 372 83.5 426Q99 480 122.5 528.5Q146 577 179 610Q223 654 286 673Q349 692 433 692Q502 692 549.5 674.5Q597 657 626 628Q655 599 668.5 555.5Q682 512 682 459Q682 415 674.5 360.5Q667 306 651.5 252Q636 198 612.5 150Q589 102 556 69Q512 25 449 5.5Q386 -14 302 -14ZM319 76Q410 76 462 128Q486 152 504 193.5Q522 235 534.5 282.5Q547 330 553.5 377.5Q560 425 560 460Q560 536 525 570Q493 602 416 602Q324 602 273 551Q249 527 231 485.5Q213 444 200.5 396.5Q188 349 181.5 301.5Q175 254 175 219Q175 143 210 108Q242 76 319 76ZM474 734H377L508 846H645Z" glyph-name="Oacute" horiz-adv-x="704" unicode="&#211;" /><glyph d="M446 791Q469 791 490 796.5Q511 802 526 817Q538 829 545 846H637Q629 825 620 808.5Q611 792 597 778Q568 749 527.5 736.5Q487 724 438 724Q396 724 364 733.5Q332 743 312 763Q297 778 288 798Q279 818 280 846H367Q368 824 382 810Q393 799 409.5 795Q426 791 446 791ZM302 -14Q233 -14 185.5 4Q138 22 109 51Q80 80 66.5 123Q53 166 53 220Q53 264 60.5 318Q68 372 83.5 426Q99 480 122.5 528.5Q146 577 179 610Q223 654 286 673Q349 692 433 692Q502 692 549.5 674.5Q597 657 626 628Q655 599 668.5 555.5Q682 512 682 459Q682 415 674.5 360.5Q667 306 651.5 252Q636 198 612.5 150Q589 102 556 69Q512 25 449 5.5Q386 -14 302 -14ZM319 76Q410 76 462 128Q486 152 504 193.5Q522 235 534.5 282.5Q547 330 553.5 377.5Q560 425 560 460Q560 536 525 570Q493 602 416 602Q324 602 273 551Q249 527 231 485.5Q213 444 200.5 396.5Q188 349 181.5 301.5Q175 254 175 219Q175 143 210 108Q242 76 319 76Z" glyph-name="Obreve" horiz-adv-x="704" unicode="&#334;" /><glyph d="M294 848H389L442 784L518 848H624L486 730H387ZM302 -14Q233 -14 185.5 4Q138 22 109 51Q80 80 66.5 123Q53 166 53 220Q53 264 60.5 318Q68 372 83.5 426Q99 480 122.5 528.5Q146 577 179 610Q223 654 286 673Q349 692 433 692Q502 692 549.5 674.5Q597 657 626 628Q655 599 668.5 555.5Q682 512 682 459Q682 415 674.5 360.5Q667 306 651.5 252Q636 198 612.5 150Q589 102 556 69Q512 25 449 5.5Q386 -14 302 -14ZM319 76Q410 76 462 128Q486 152 504 193.5Q522 235 534.5 282.5Q547 330 553.5 377.5Q560 425 560 460Q560 536 525 570Q493 602 416 602Q324 602 273 551Q249 527 231 485.5Q213 444 200.5 396.5Q188 349 181.5 301.5Q175 254 175 219Q175 143 210 108Q242 76 319 76Z" glyph-name="Ocaron" horiz-adv-x="704" unicode="&#465;" /><glyph d="M319 76Q410 76 462 128Q486 152 504 193.5Q522 235 534.5 282.5Q547 330 553.5 377.5Q560 425 560 460Q560 536 525 570Q493 602 416 602Q324 602 273 551Q249 527 231 485.5Q213 444 200.5 396.5Q188 349 181.5 301.5Q175 254 175 219Q175 143 210 108Q242 76 319 76ZM264 -12Q210 -7 172 9Q134 25 109 51Q80 80 66.5 123Q53 166 53 220Q53 264 60.5 318Q68 372 83.5 426Q99 480 122.5 528.5Q146 577 179 610Q223 654 286 673Q349 692 433 692Q502 692 549.5 674.5Q597 657 626 628Q655 599 668.5 555.5Q682 512 682 459Q682 415 674.5 360.5Q667 306 651.5 252Q636 198 612.5 150Q589 102 556 69Q518 31 466 12Q414 -7 347 -12L330 -40Q348 -47 364 -59Q380 -71 380 -94Q380 -121 365.5 -137.5Q351 -154 329.5 -163Q308 -172 282.5 -175.5Q257 -179 235 -179Q218 -179 198 -177Q178 -175 153 -167L165 -106Q186 -114 204 -116Q222 -118 234 -118Q240 -118 249 -117.5Q258 -117 266.5 -114.5Q275 -112 281 -107Q287 -102 287 -93Q287 -81 272.5 -77.5Q258 -74 244 -72L242 -46Z" glyph-name="Ocedilla" horiz-adv-x="704" unicode="&#57631;" /><glyph d="M302 -14Q233 -14 185.5 4Q138 22 109 51Q80 80 66.5 123Q53 166 53 220Q53 264 60.5 318Q68 372 83.5 426Q99 480 122.5 528.5Q146 577 179 610Q223 654 286 673Q349 692 433 692Q502 692 549.5 674.5Q597 657 626 628Q655 599 668.5 555.5Q682 512 682 459Q682 415 674.5 360.5Q667 306 651.5 252Q636 198 612.5 150Q589 102 556 69Q512 25 449 5.5Q386 -14 302 -14ZM319 76Q410 76 462 128Q486 152 504 193.5Q522 235 534.5 282.5Q547 330 553.5 377.5Q560 425 560 460Q560 536 525 570Q493 602 416 602Q324 602 273 551Q249 527 231 485.5Q213 444 200.5 396.5Q188 349 181.5 301.5Q175 254 175 219Q175 143 210 108Q242 76 319 76ZM602 732H507L454 795L378 732H272L410 850H509Z" glyph-name="Ocircumflex" horiz-adv-x="704" unicode="&#212;" /><glyph d="M302 -14Q233 -14 185.5 4Q138 22 109 51Q80 80 66.5 123Q53 166 53 220Q53 264 60.5 318Q68 372 83.5 426Q99 480 122.5 528.5Q146 577 179 610Q223 654 286 673Q349 692 433 692Q502 692 549.5 674.5Q597 657 626 628Q655 599 668.5 555.5Q682 512 682 459Q682 415 674.5 360.5Q667 306 651.5 252Q636 198 612.5 150Q589 102 556 69Q512 25 449 5.5Q386 -14 302 -14ZM319 76Q410 76 462 128Q486 152 504 193.5Q522 235 534.5 282.5Q547 330 553.5 377.5Q560 425 560 460Q560 536 525 570Q493 602 416 602Q324 602 273 551Q249 527 231 485.5Q213 444 200.5 396.5Q188 349 181.5 301.5Q175 254 175 219Q175 143 210 108Q242 76 319 76ZM811 565H697L817 747H884Z" glyph-name="Ocommaturnedabove" horiz-adv-x="790" unicode="&#57627;" /><glyph d="M302 -14Q233 -14 185.5 4Q138 22 109 51Q80 80 66.5 123Q53 166 53 220Q53 264 60.5 318Q68 372 83.5 426Q99 480 122.5 528.5Q146 577 179 610Q223 654 286 673Q349 692 433 692Q502 692 549.5 674.5Q597 657 626 628Q655 599 668.5 555.5Q682 512 682 459Q682 415 674.5 360.5Q667 306 651.5 252Q636 198 612.5 150Q589 102 556 69Q512 25 449 5.5Q386 -14 302 -14ZM319 76Q410 76 462 128Q486 152 504 193.5Q522 235 534.5 282.5Q547 330 553.5 377.5Q560 425 560 460Q560 536 525 570Q493 602 416 602Q324 602 273 551Q249 527 231 485.5Q213 444 200.5 396.5Q188 349 181.5 301.5Q175 254 175 219Q175 143 210 108Q242 76 319 76ZM600 748H492L510 843H617ZM392 748H285L302 843H410Z" glyph-name="Odieresis" horiz-adv-x="704" unicode="&#214;" /><glyph d="M499 749H387L405 845H517ZM302 -14Q233 -14 185.5 4Q138 22 109 51Q80 80 66.5 123Q53 166 53 220Q53 264 60.5 318Q68 372 83.5 426Q99 480 122.5 528.5Q146 577 179 610Q223 654 286 673Q349 692 433 692Q502 692 549.5 674.5Q597 657 626 628Q655 599 668.5 555.5Q682 512 682 459Q682 415 674.5 360.5Q667 306 651.5 252Q636 198 612.5 150Q589 102 556 69Q512 25 449 5.5Q386 -14 302 -14ZM319 76Q410 76 462 128Q486 152 504 193.5Q522 235 534.5 282.5Q547 330 553.5 377.5Q560 425 560 460Q560 536 525 570Q493 602 416 602Q324 602 273 551Q249 527 231 485.5Q213 444 200.5 396.5Q188 349 181.5 301.5Q175 254 175 219Q175 143 210 108Q242 76 319 76Z" glyph-name="Odotabove" horiz-adv-x="704" unicode="&#558;" /><glyph d="M645 909H299L314 988H659ZM500 747H388L406 844H518ZM302 -14Q233 -14 185.5 4Q138 22 109 51Q80 80 66.5 123Q53 166 53 220Q53 264 60.5 318Q68 372 83.5 426Q99 480 122.5 528.5Q146 577 179 610Q223 654 286 673Q349 692 433 692Q502 692 549.5 674.5Q597 657 626 628Q655 599 668.5 555.5Q682 512 682 459Q682 415 674.5 360.5Q667 306 651.5 252Q636 198 612.5 150Q589 102 556 69Q512 25 449 5.5Q386 -14 302 -14ZM319 76Q410 76 462 128Q486 152 504 193.5Q522 235 534.5 282.5Q547 330 553.5 377.5Q560 425 560 460Q560 536 525 570Q493 602 416 602Q324 602 273 551Q249 527 231 485.5Q213 444 200.5 396.5Q188 349 181.5 301.5Q175 254 175 219Q175 143 210 108Q242 76 319 76Z" glyph-name="Odotabovemacron" horiz-adv-x="704" unicode="&#560;" /><glyph d="M323 -189H216L234 -92H341ZM302 -14Q233 -14 185.5 4Q138 22 109 51Q80 80 66.5 123Q53 166 53 220Q53 264 60.5 318Q68 372 83.5 426Q99 480 122.5 528.5Q146 577 179 610Q223 654 286 673Q349 692 433 692Q502 692 549.5 674.5Q597 657 626 628Q655 599 668.5 555.5Q682 512 682 459Q682 415 674.5 360.5Q667 306 651.5 252Q636 198 612.5 150Q589 102 556 69Q512 25 449 5.5Q386 -14 302 -14ZM319 76Q410 76 462 128Q486 152 504 193.5Q522 235 534.5 282.5Q547 330 553.5 377.5Q560 425 560 460Q560 536 525 570Q493 602 416 602Q324 602 273 551Q249 527 231 485.5Q213 444 200.5 396.5Q188 349 181.5 301.5Q175 254 175 219Q175 143 210 108Q242 76 319 76Z" glyph-name="Odotbelow" horiz-adv-x="704" unicode="&#7884;" /><glyph d="M302 -14Q233 -14 185.5 4Q138 22 109 51Q80 80 66.5 123Q53 166 53 220Q53 264 60.5 318Q68 372 83.5 426Q99 480 122.5 528.5Q146 577 179 610Q223 654 286 673Q349 692 433 692Q502 692 549.5 674.5Q597 657 626 628Q655 599 668.5 555.5Q682 512 682 459Q682 415 674.5 360.5Q667 306 651.5 252Q636 198 612.5 150Q589 102 556 69Q512 25 449 5.5Q386 -14 302 -14ZM319 76Q410 76 462 128Q486 152 504 193.5Q522 235 534.5 282.5Q547 330 553.5 377.5Q560 425 560 460Q560 536 525 570Q493 602 416 602Q324 602 273 551Q249 527 231 485.5Q213 444 200.5 396.5Q188 349 181.5 301.5Q175 254 175 219Q175 143 210 108Q242 76 319 76ZM200 846H317L405 733H328ZM363 846H480L568 733H491Z" glyph-name="Odoublegrave" horiz-adv-x="704" unicode="&#524;" /><glyph d="M268 846H399L488 734H397ZM302 -14Q233 -14 185.5 4Q138 22 109 51Q80 80 66.5 123Q53 166 53 220Q53 264 60.5 318Q68 372 83.5 426Q99 480 122.5 528.5Q146 577 179 610Q223 654 286 673Q349 692 433 692Q502 692 549.5 674.5Q597 657 626 628Q655 599 668.5 555.5Q682 512 682 459Q682 415 674.5 360.5Q667 306 651.5 252Q636 198 612.5 150Q589 102 556 69Q512 25 449 5.5Q386 -14 302 -14ZM319 76Q410 76 462 128Q486 152 504 193.5Q522 235 534.5 282.5Q547 330 553.5 377.5Q560 425 560 460Q560 536 525 570Q493 602 416 602Q324 602 273 551Q249 527 231 485.5Q213 444 200.5 396.5Q188 349 181.5 301.5Q175 254 175 219Q175 143 210 108Q242 76 319 76Z" glyph-name="Ograve" horiz-adv-x="704" unicode="&#210;" /><glyph d="M302 -14Q233 -14 185.5 4Q138 22 109 51Q80 80 66.5 123Q53 166 53 220Q53 264 60.5 318Q68 372 83.5 426Q99 480 122.5 528.5Q146 577 179 610Q223 654 286 673Q349 692 433 692Q502 692 549.5 674.5Q597 657 626 628Q655 599 668.5 555.5Q682 512 682 459Q682 415 674.5 360.5Q667 306 651.5 252Q636 198 612.5 150Q589 102 556 69Q512 25 449 5.5Q386 -14 302 -14ZM319 76Q410 76 462 128Q486 152 504 193.5Q522 235 534.5 282.5Q547 330 553.5 377.5Q560 425 560 460Q560 536 525 570Q493 602 416 602Q324 602 273 551Q249 527 231 485.5Q213 444 200.5 396.5Q188 349 181.5 301.5Q175 254 175 219Q175 143 210 108Q242 76 319 76ZM546 733H463L593 846H716ZM381 733H299L429 846H551Z" glyph-name="Ohungarumlaut" horiz-adv-x="704" unicode="&#336;" /><glyph d="M302 -14Q233 -14 185.5 4Q138 22 109 51Q80 80 66.5 123Q53 166 53 220Q53 264 60.5 318Q68 372 83.5 426Q99 480 122.5 528.5Q146 577 179 610Q223 654 286 673Q349 692 433 692Q502 692 549.5 674.5Q597 657 626 628Q655 599 668.5 555.5Q682 512 682 459Q682 415 674.5 360.5Q667 306 651.5 252Q636 198 612.5 150Q589 102 556 69Q512 25 449 5.5Q386 -14 302 -14ZM319 76Q410 76 462 128Q486 152 504 193.5Q522 235 534.5 282.5Q547 330 553.5 377.5Q560 425 560 460Q560 536 525 570Q493 602 416 602Q324 602 273 551Q249 527 231 485.5Q213 444 200.5 396.5Q188 349 181.5 301.5Q175 254 175 219Q175 143 210 108Q242 76 319 76ZM456 788Q433 788 412.5 782.5Q392 777 377 762Q371 756 366 749Q361 742 357 733H266Q273 754 282 770.5Q291 787 305 801Q334 830 375 842.5Q416 855 464 855Q506 855 538 845.5Q570 836 590 816Q605 801 614.5 781Q624 761 623 733H535Q535 745 531 753.5Q527 762 520 769Q509 780 492.5 784Q476 788 456 788Z" glyph-name="Oinvertedbreve" horiz-adv-x="704" unicode="&#526;" /><glyph d="M302 -14Q233 -14 185.5 4Q138 22 109 51Q80 80 66.5 123Q53 166 53 220Q53 264 60.5 318Q68 372 83.5 426Q99 480 122.5 528.5Q146 577 179 610Q223 654 286 673Q349 692 433 692Q502 692 549.5 674.5Q597 657 626 628Q655 599 668.5 555.5Q682 512 682 459Q682 415 674.5 360.5Q667 306 651.5 252Q636 198 612.5 150Q589 102 556 69Q512 25 449 5.5Q386 -14 302 -14ZM319 76Q410 76 462 128Q486 152 504 193.5Q522 235 534.5 282.5Q547 330 553.5 377.5Q560 425 560 460Q560 536 525 570Q493 602 416 602Q324 602 273 551Q249 527 231 485.5Q213 444 200.5 396.5Q188 349 181.5 301.5Q175 254 175 219Q175 143 210 108Q242 76 319 76ZM618 761H273L287 840H633Z" glyph-name="Omacron" horiz-adv-x="704" unicode="&#332;" /><glyph d="M319 76Q410 76 462 128Q486 152 504 193.5Q522 235 534.5 282.5Q547 330 553.5 377.5Q560 425 560 460Q560 536 525 570Q493 602 416 602Q324 602 273 551Q249 527 231 485.5Q213 444 200.5 396.5Q188 349 181.5 301.5Q175 254 175 219Q175 143 210 108Q242 76 319 76ZM321 -34Q310 -45 301.5 -59.5Q293 -74 293 -88Q293 -103 304 -109.5Q315 -116 330 -116Q346 -116 361.5 -114Q377 -112 397 -106L386 -167Q366 -175 341.5 -177Q317 -179 300 -179Q284 -179 267 -176Q250 -173 236 -165Q222 -157 213 -144Q204 -131 204 -111Q204 -88 215.5 -68Q227 -48 245 -30Q250 -25 255 -21Q260 -17 265 -12Q211 -7 172.5 9Q134 25 109 51Q80 80 66.5 123Q53 166 53 220Q53 264 60.5 318Q68 372 83.5 426Q99 480 122.5 528.5Q146 577 179 610Q223 654 286 673Q349 692 433 692Q502 692 549.5 674.5Q597 657 626 628Q655 599 668.5 555.5Q682 512 682 459Q682 415 674.5 360.5Q667 306 651.5 252Q636 198 612.5 150Q589 102 556 69Q518 31 465.5 11.5Q413 -8 346 -13Q339 -18 332.5 -23Q326 -28 321 -34Z" glyph-name="Oogonek" horiz-adv-x="704" unicode="&#490;" /><glyph d="M617 762H272L286 841H632ZM319 76Q410 76 462 128Q486 152 504 193.5Q522 235 534.5 282.5Q547 330 553.5 377.5Q560 425 560 460Q560 536 525 570Q493 602 416 602Q324 602 273 551Q249 527 231 485.5Q213 444 200.5 396.5Q188 349 181.5 301.5Q175 254 175 219Q175 143 210 108Q242 76 319 76ZM320 -34Q309 -45 300.5 -59.5Q292 -74 292 -88Q292 -103 303 -109.5Q314 -116 329 -116Q345 -116 360.5 -114Q376 -112 396 -106L385 -167Q365 -175 340.5 -177Q316 -179 299 -179Q283 -179 266 -176Q249 -173 235 -165Q221 -157 212 -144Q203 -131 203 -111Q203 -88 214.5 -68Q226 -48 244 -30Q249 -25 254 -21Q259 -17 264 -12Q210 -7 172 9Q134 25 109 51Q80 80 66.5 123Q53 166 53 220Q53 264 60.5 318Q68 372 83.5 426Q99 480 122.5 528.5Q146 577 179 610Q223 654 286 673Q349 692 433 692Q502 692 549.5 674.5Q597 657 626 628Q655 599 668.5 555.5Q682 512 682 459Q682 415 674.5 360.5Q667 306 651.5 252Q636 198 612.5 150Q589 102 556 69Q518 31 465.5 11.5Q413 -8 345 -13Q338 -18 331.5 -23Q325 -28 320 -34Z" glyph-name="Oogonekmacron" horiz-adv-x="704" unicode="&#492;" /><glyph d="M319 76Q410 76 462 128Q486 152 504 193.5Q522 235 534.5 282.5Q547 330 553.5 377.5Q560 425 560 460Q560 523 537 556L281 78Q290 77 299 76.5Q308 76 319 76ZM175 219Q175 152 201 117L458 599Q438 602 416 602Q324 602 273 551Q249 527 231 485.5Q213 444 200.5 396.5Q188 349 181.5 301.5Q175 254 175 219ZM590 655Q609 643 626 628Q655 599 668.5 555.5Q682 512 682 459Q682 415 674.5 360.5Q667 306 651.5 252Q636 198 612.5 150Q589 102 556 69Q512 25 449 5.5Q386 -14 302 -14Q283 -14 266.5 -12.5Q250 -11 235 -9L194 -86H93L149 20Q138 27 127.5 34.5Q117 42 109 51Q80 80 66.5 123Q53 166 53 220Q53 264 60.5 318Q68 372 83.5 426Q99 480 122.5 528.5Q146 577 179 610Q223 654 286 673Q349 692 433 692Q472 692 504 686L545 762H647Z" glyph-name="Oslash" horiz-adv-x="704" unicode="&#216;" /><glyph d="M464 734H367L498 846H635ZM462 128Q486 152 504 193.5Q522 235 534.5 282.5Q547 330 553.5 377.5Q560 425 560 460Q560 523 537 556L281 78Q290 77 299 76.5Q308 76 319 76Q410 76 462 128ZM175 219Q175 152 201 117L458 599Q438 602 416 602Q324 602 273 551Q249 527 231 485.5Q213 444 200.5 396.5Q188 349 181.5 301.5Q175 254 175 219ZM590 655Q609 643 626 628Q655 599 668.5 555.5Q682 512 682 459Q682 415 674.5 360.5Q667 306 651.5 252Q636 198 612.5 150Q589 102 556 69Q512 25 449 5.5Q386 -14 302 -14Q283 -14 266.5 -12.5Q250 -11 235 -9L194 -86H93L149 20Q138 27 127.5 34.5Q117 42 109 51Q80 80 66.5 123Q53 166 53 220Q53 264 60.5 318Q68 372 83.5 426Q99 480 122.5 528.5Q146 577 179 610Q223 654 286 673Q349 692 433 692Q472 692 504 686L545 762H647Z" glyph-name="Oslashacute" horiz-adv-x="704" unicode="&#510;" /><glyph d="M534 826Q556 826 586 838Q616 850 639 864L625 787Q616 781 603 774Q590 767 575.5 762Q561 757 546.5 753.5Q532 750 519 750Q498 750 479.5 755Q461 760 444.5 766Q428 772 411 777Q394 782 376 782Q353 782 322.5 770.5Q292 759 268 745L283 823Q292 829 305 835.5Q318 842 333 847.5Q348 853 363 856.5Q378 860 390 860Q412 860 429.5 855Q447 850 463.5 843.5Q480 837 497 831.5Q514 826 534 826ZM302 -14Q233 -14 185.5 4Q138 22 109 51Q80 80 66.5 123Q53 166 53 220Q53 264 60.5 318Q68 372 83.5 426Q99 480 122.5 528.5Q146 577 179 610Q223 654 286 673Q349 692 433 692Q502 692 549.5 674.5Q597 657 626 628Q655 599 668.5 555.5Q682 512 682 459Q682 415 674.5 360.5Q667 306 651.5 252Q636 198 612.5 150Q589 102 556 69Q512 25 449 5.5Q386 -14 302 -14ZM319 76Q410 76 462 128Q486 152 504 193.5Q522 235 534.5 282.5Q547 330 553.5 377.5Q560 425 560 460Q560 536 525 570Q493 602 416 602Q324 602 273 551Q249 527 231 485.5Q213 444 200.5 396.5Q188 349 181.5 301.5Q175 254 175 219Q175 143 210 108Q242 76 319 76Z" glyph-name="Otilde" horiz-adv-x="704" unicode="&#213;" /><glyph d="M646 909H300L314 985H659ZM520 752Q499 752 480.5 757Q462 762 445.5 768Q429 774 412 779.5Q395 785 377 785Q354 785 323.5 773.5Q293 762 270 748L284 823Q293 829 306 835.5Q319 842 333.5 847.5Q348 853 363 856.5Q378 860 390 860Q412 860 430 855Q448 850 464.5 843.5Q481 837 497.5 831.5Q514 826 534 826Q557 826 587 838Q617 850 639 864L626 789Q617 783 604 776.5Q591 770 576.5 764.5Q562 759 547.5 755.5Q533 752 520 752ZM302 -14Q233 -14 185.5 4Q138 22 109 51Q80 80 66.5 123Q53 166 53 220Q53 264 60.5 318Q68 372 83.5 426Q99 480 122.5 528.5Q146 577 179 610Q223 654 286 673Q349 692 433 692Q502 692 549.5 674.5Q597 657 626 628Q655 599 668.5 555.5Q682 512 682 459Q682 415 674.5 360.5Q667 306 651.5 252Q636 198 612.5 150Q589 102 556 69Q512 25 449 5.5Q386 -14 302 -14ZM525 570Q493 602 416 602Q324 602 273 551Q249 527 231 485.5Q213 444 200.5 396.5Q188 349 181.5 301.5Q175 254 175 219Q175 143 210 108Q242 76 319 76Q410 76 462 128Q486 152 504 193.5Q522 235 534.5 282.5Q547 330 553.5 377.5Q560 425 560 460Q560 536 525 570Z" glyph-name="Otildemacron" horiz-adv-x="704" unicode="&#556;" /><glyph d="M302 -14Q233 -14 185.5 4Q138 22 109 51Q80 80 66.5 123Q53 166 53 220Q53 264 60.5 318Q68 372 83.5 426Q99 480 122.5 528.5Q146 577 179 610Q223 654 286 673Q349 692 433 692Q502 692 549.5 674.5Q597 657 626 628Q655 599 668.5 555.5Q682 512 682 459Q682 415 674.5 360.5Q667 306 651.5 252Q636 198 612.5 150Q589 102 556 69Q512 25 449 5.5Q386 -14 302 -14ZM319 76Q410 76 462 128Q486 152 504 193.5Q522 235 534.5 282.5Q547 330 553.5 377.5Q560 425 560 460Q560 536 525 570Q493 602 416 602Q324 602 273 551Q249 527 231 485.5Q213 444 200.5 396.5Q188 349 181.5 301.5Q175 254 175 219Q175 143 210 108Q242 76 319 76ZM305 -244H214L245 -75H337Z" glyph-name="Ounderlineaccent" horiz-adv-x="704" unicode="&#57633;" /><glyph d="M212 319H339Q381 319 411 323Q441 327 464 350Q477 363 486 382Q495 401 501 422Q507 443 510 464Q513 485 513 503Q513 520 509 537Q505 554 492 567Q477 582 453 585.5Q429 589 388 589H262ZM153 0H39L164 678H408Q482 678 526 665.5Q570 653 598 625Q620 603 627.5 571.5Q635 540 635 511Q635 483 630.5 453Q626 423 616.5 393.5Q607 364 592 337Q577 310 556 289Q535 268 508.5 256Q482 244 452.5 238.5Q423 233 392.5 231.5Q362 230 332 230H195Z" glyph-name="P" horiz-adv-x="621" unicode="P" /><glyph d="M567 762H222L236 841H582ZM212 319H339Q381 319 411 323Q441 327 464 350Q477 363 486 382Q495 401 501 422Q507 443 510 464Q513 485 513 503Q513 520 509 537Q505 554 492 567Q477 582 453 585.5Q429 589 388 589H262ZM153 0H39L164 678H408Q482 678 526 665.5Q570 653 598 625Q620 603 627.5 571.5Q635 540 635 511Q635 483 630.5 453Q626 423 616.5 393.5Q607 364 592 337Q577 310 556 289Q535 268 508.5 256Q482 244 452.5 238.5Q423 233 392.5 231.5Q362 230 332 230H195Z" glyph-name="Pmacron" horiz-adv-x="621" unicode="&#57635;" /><glyph d="M319 76Q410 76 462 128Q486 152 504 193.5Q522 235 534.5 282.5Q547 330 553.5 377.5Q560 425 560 460Q560 536 525 570Q493 602 416 602Q324 602 273 551Q249 527 231 485.5Q213 444 200.5 396.5Q188 349 181.5 301.5Q175 254 175 219Q175 143 210 108Q242 76 319 76ZM302 -14Q233 -14 185.5 4Q138 22 109 51Q80 80 66.5 122.5Q53 165 53 219Q53 263 60.5 317.5Q68 372 83.5 426Q99 480 122.5 528.5Q146 577 179 610Q223 654 286 673Q349 692 433 692Q502 692 549.5 674.5Q597 657 626 628Q655 599 668.5 556Q682 513 682 460Q682 416 674.5 361.5Q667 307 651.5 253Q636 199 612.5 150.5Q589 102 556 69Q541 54 524 42Q507 30 488 20L588 -118H454L375 -9Q358 -12 340 -13Q322 -14 302 -14Z" glyph-name="Q" horiz-adv-x="704" unicode="Q" /><glyph d="M218 354H360Q394 354 422 358.5Q450 363 472 385Q495 408 505 441.5Q515 475 515 510Q515 525 511 541.5Q507 558 495 570Q481 583 460 586Q439 589 404 589H262ZM425 678Q491 678 532.5 666Q574 654 600 628Q619 609 627.5 579Q636 549 636 520Q636 468 620 416Q604 364 562 322Q538 298 503 285Q468 272 434 268L566 0H443L314 265H202L153 0H39L164 678Z" glyph-name="R" horiz-adv-x="639" unicode="R" /><glyph d="M218 354H360Q394 354 422 358.5Q450 363 472 385Q495 408 505 441.5Q515 475 515 510Q515 525 511 541.5Q507 558 495 570Q481 583 460 586Q439 589 404 589H262ZM425 678Q491 678 532.5 666Q574 654 600 628Q619 609 627.5 579Q636 549 636 520Q636 468 620 416Q604 364 562 322Q538 298 503 285Q468 272 434 268L566 0H443L314 265H202L153 0H39L164 678ZM425 734H328L459 846H596Z" glyph-name="Racute" horiz-adv-x="639" unicode="&#340;" /><glyph d="M218 354H360Q394 354 422 358.5Q450 363 472 385Q495 408 505 441.5Q515 475 515 510Q515 525 511 541.5Q507 558 495 570Q481 583 460 586Q439 589 404 589H262ZM425 678Q491 678 532.5 666Q574 654 600 628Q619 609 627.5 579Q636 549 636 520Q636 468 620 416Q604 364 562 322Q538 298 503 285Q468 272 434 268L566 0H443L314 265H202L153 0H39L164 678ZM257 848H352L405 784L481 848H587L449 730H350Z" glyph-name="Rcaron" horiz-adv-x="639" unicode="&#344;" /><glyph d="M262 -36Q278 -37 296.5 -40Q315 -43 331 -50Q347 -57 358 -69Q369 -81 369 -100Q369 -126 354 -141.5Q339 -157 317 -165.5Q295 -174 270.5 -176.5Q246 -179 228 -179Q211 -179 189.5 -177Q168 -175 143 -167L155 -106Q175 -114 192.5 -116Q210 -118 224 -118Q231 -118 240 -117.5Q249 -117 257 -115Q265 -113 270.5 -108Q276 -103 276 -95Q276 -89 271.5 -85.5Q267 -82 260 -79.5Q253 -77 246 -76Q239 -75 235 -75ZM218 354H360Q394 354 422 358.5Q450 363 472 385Q495 408 505 441.5Q515 475 515 510Q515 525 511 541.5Q507 558 495 570Q481 583 460 586Q439 589 404 589H262ZM425 678Q491 678 532.5 666Q574 654 600 628Q619 609 627.5 579Q636 549 636 520Q636 468 620 416Q604 364 562 322Q538 298 503 285Q468 272 434 268L566 0H443L314 265H202L153 0H39L164 678Z" glyph-name="Rcedilla" horiz-adv-x="639" unicode="&#57639;" /><glyph d="M218 354H360Q394 354 422 358.5Q450 363 472 385Q495 408 505 441.5Q515 475 515 510Q515 525 511 541.5Q507 558 495 570Q481 583 460 586Q439 589 404 589H262ZM425 678Q491 678 532.5 666Q574 654 600 628Q619 609 627.5 579Q636 549 636 520Q636 468 620 416Q604 364 562 322Q538 298 503 285Q468 272 434 268L566 0H443L314 265H202L153 0H39L164 678ZM214 -75H329L209 -258H141Z" glyph-name="Rcommaaccent" horiz-adv-x="639" unicode="&#342;" /><glyph d="M306 -189H199L217 -92H324ZM218 354H360Q394 354 422 358.5Q450 363 472 385Q495 408 505 441.5Q515 475 515 510Q515 525 511 541.5Q507 558 495 570Q481 583 460 586Q439 589 404 589H262ZM425 678Q491 678 532.5 666Q574 654 600 628Q619 609 627.5 579Q636 549 636 520Q636 468 620 416Q604 364 562 322Q538 298 503 285Q468 272 434 268L566 0H443L314 265H202L153 0H39L164 678Z" glyph-name="Rdotbelow" horiz-adv-x="639" unicode="&#7770;" /><glyph d="M306 -189H199L217 -92H324ZM571 762H225L240 841H585ZM218 354H360Q394 354 422 358.5Q450 363 472 385Q495 408 505 441.5Q515 475 515 510Q515 525 511 541.5Q507 558 495 570Q481 583 460 586Q439 589 404 589H262ZM425 678Q491 678 532.5 666Q574 654 600 628Q619 609 627.5 579Q636 549 636 520Q636 468 619 415Q602 362 562 322Q538 298 503 285Q468 272 434 268L566 0H443L314 265H202L153 0H39L164 678Z" glyph-name="Rdotbelowmacron" horiz-adv-x="639" unicode="&#7772;" /><glyph d="M160 846H277L365 733H288ZM323 846H440L528 733H451ZM218 354H360Q394 354 422 358.5Q450 363 472 385Q495 408 505 441.5Q515 475 515 510Q515 525 511 541.5Q507 558 495 570Q481 583 460 586Q439 589 404 589H262ZM425 678Q491 678 532.5 666Q574 654 600 628Q619 609 627.5 579Q636 549 636 520Q636 468 620 416Q604 364 562 322Q538 298 503 285Q468 272 434 268L566 0H443L314 265H202L153 0H39L164 678Z" glyph-name="Rdoublegrave" horiz-adv-x="639" unicode="&#57637;" /><glyph d="M218 354H360Q394 354 422 358.5Q450 363 472 385Q495 408 505 441.5Q515 475 515 510Q515 525 511 541.5Q507 558 495 570Q481 583 460 586Q439 589 404 589H262ZM425 678Q491 678 532.5 666Q574 654 600 628Q619 609 627.5 579Q636 549 636 520Q636 468 620 416Q604 364 562 322Q538 298 503 285Q468 272 434 268L566 0H443L314 265H202L153 0H39L164 678ZM404 788Q381 788 360.5 782.5Q340 777 325 762Q319 756 314 749Q309 742 305 733H214Q221 754 230 770.5Q239 787 253 801Q282 830 323 842.5Q364 855 412 855Q454 855 486 845.5Q518 836 538 816Q553 801 562.5 781Q572 761 571 733H483Q483 745 479 753.5Q475 762 468 769Q457 780 440.5 784Q424 788 404 788Z" glyph-name="Rinvertedbreve" horiz-adv-x="639" unicode="&#530;" /><glyph d="M97 453Q97 499 111 542Q125 585 158 618Q180 640 208.5 654.5Q237 669 269.5 677.5Q302 686 337.5 689Q373 692 410 692Q423 692 444 691Q465 690 489 687.5Q513 685 537.5 680.5Q562 676 581 669L564 579Q516 593 469.5 597Q423 601 393 601Q293 601 249 557Q235 543 227 523Q219 503 219 480Q219 450 234 435Q251 418 285.5 413.5Q320 409 361.5 404.5Q403 400 444.5 388Q486 376 518 345Q534 329 544.5 302Q555 275 555 243Q555 196 539.5 149.5Q524 103 485 64Q439 19 369.5 2.5Q300 -14 222 -14Q209 -14 185.5 -13Q162 -12 133.5 -9Q105 -6 76 -0.5Q47 5 23 14L40 109Q64 101 92.5 96Q121 91 148.5 88Q176 85 200 84Q224 83 240 83Q299 83 336.5 94.5Q374 106 396 127Q414 144 423 167.5Q432 191 432 217Q432 232 427.5 245Q423 258 415 266Q402 279 381.5 284.5Q361 290 336.5 293Q312 296 285 298Q258 300 231 305.5Q204 311 178.5 322Q153 333 133 353Q117 369 107 395Q97 421 97 453Z" glyph-name="S" horiz-adv-x="598" unicode="S" /><glyph d="M97 453Q97 499 111 542Q125 585 158 618Q180 640 208.5 654.5Q237 669 269.5 677.5Q302 686 337.5 689Q373 692 410 692Q423 692 444 691Q465 690 489 687.5Q513 685 537.5 680.5Q562 676 581 669L564 579Q516 593 469.5 597Q423 601 393 601Q293 601 249 557Q235 543 227 523Q219 503 219 480Q219 450 234 435Q251 418 285.5 413.5Q320 409 361.5 404.5Q403 400 444.5 388Q486 376 518 345Q534 329 544.5 302Q555 275 555 243Q555 196 539.5 149.5Q524 103 485 64Q439 19 369.5 2.5Q300 -14 222 -14Q209 -14 185.5 -13Q162 -12 133.5 -9Q105 -6 76 -0.5Q47 5 23 14L40 109Q64 101 92.5 96Q121 91 148.5 88Q176 85 200 84Q224 83 240 83Q299 83 336.5 94.5Q374 106 396 127Q414 144 423 167.5Q432 191 432 217Q432 232 427.5 245Q423 258 415 266Q402 279 381.5 284.5Q361 290 336.5 293Q312 296 285 298Q258 300 231 305.5Q204 311 178.5 322Q153 333 133 353Q117 369 107 395Q97 421 97 453ZM425 734H328L459 846H596Z" glyph-name="Sacute" horiz-adv-x="598" unicode="&#346;" /><glyph d="M97 453Q97 499 111 542Q125 585 158 618Q180 640 208.5 654.5Q237 669 269.5 677.5Q302 686 337.5 689Q373 692 410 692Q423 692 444 691Q465 690 489 687.5Q513 685 537.5 680.5Q562 676 581 669L564 579Q516 593 469.5 597Q423 601 393 601Q293 601 249 557Q235 543 227 523Q219 503 219 480Q219 450 234 435Q251 418 285.5 413.5Q320 409 361.5 404.5Q403 400 444.5 388Q486 376 518 345Q534 329 544.5 302Q555 275 555 243Q555 196 539.5 149.5Q524 103 485 64Q439 19 369.5 2.5Q300 -14 222 -14Q209 -14 185.5 -13Q162 -12 133.5 -9Q105 -6 76 -0.5Q47 5 23 14L40 109Q64 101 92.5 96Q121 91 148.5 88Q176 85 200 84Q224 83 240 83Q299 83 336.5 94.5Q374 106 396 127Q414 144 423 167.5Q432 191 432 217Q432 232 427.5 245Q423 258 415 266Q402 279 381.5 284.5Q361 290 336.5 293Q312 296 285 298Q258 300 231 305.5Q204 311 178.5 322Q153 333 133 353Q117 369 107 395Q97 421 97 453ZM242 848H337L390 784L466 848H572L434 730H335Z" glyph-name="Scaron" horiz-adv-x="598" unicode="&#352;" /><glyph d="M213 -14Q198 -14 174.5 -12.5Q151 -11 124.5 -8Q98 -5 71.5 0Q45 5 23 14L40 109Q64 101 92.5 96Q121 91 148.5 88Q176 85 200 84Q224 83 240 83Q299 83 336.5 94.5Q374 106 396 127Q414 144 423 167.5Q432 191 432 217Q432 232 427.5 245Q423 258 415 266Q402 279 381.5 284.5Q361 290 336.5 293Q312 296 285 298Q258 300 231 305.5Q204 311 178.5 322Q153 333 133 353Q117 369 107 395Q97 421 97 453Q97 499 111 542Q125 585 158 618Q180 640 208.5 654.5Q237 669 269.5 677.5Q302 686 337.5 689Q373 692 410 692Q423 692 444 691Q465 690 489 687.5Q513 685 537.5 680.5Q562 676 581 669L564 579Q516 593 469.5 597Q423 601 393 601Q293 601 249 557Q235 543 227 523Q219 503 219 480Q219 450 234 435Q251 418 285.5 413.5Q320 409 361.5 404.5Q403 400 444.5 388Q486 376 518 345Q534 329 544.5 302Q555 275 555 243Q555 196 539.5 149.5Q524 103 485 64Q450 30 402 13Q354 -4 298 -10L280 -40Q298 -47 314 -59Q330 -71 330 -94Q330 -121 315.5 -137.5Q301 -154 279.5 -163Q258 -172 232.5 -175.5Q207 -179 185 -179Q168 -179 148 -177Q128 -175 103 -167L115 -106Q136 -114 154 -116Q172 -118 184 -118Q190 -118 199 -117.5Q208 -117 216.5 -114.5Q225 -112 231 -107Q237 -102 237 -93Q237 -81 222.5 -77.5Q208 -74 194 -72L192 -46Z" glyph-name="Scedilla" horiz-adv-x="598" unicode="&#350;" /><glyph d="M294 76Q332 76 372 87Q412 98 442 127Q467 152 483.5 186.5Q500 221 514 275H170Q165 255 161.5 234Q158 213 158 190Q158 170 163.5 148Q169 126 186 109Q203 92 231 84Q259 76 294 76ZM532 364Q537 390 539.5 413.5Q542 437 542 457Q542 486 535 512Q528 538 509 557Q465 601 349 601Q330 601 305 599.5Q280 598 252.5 594.5Q225 591 196.5 585.5Q168 580 141 572L158 663Q215 680 276.5 686Q338 692 388 692Q466 692 520 672.5Q574 653 607 620Q662 565 662 454Q662 407 655 355.5Q648 304 632 253Q616 202 590.5 155Q565 108 528 71Q477 20 413 3Q349 -14 277 -14Q213 -14 169 3.5Q125 21 96 50Q45 99 45 190Q45 234 53.5 277Q62 320 74 364Z" glyph-name="Schwa" horiz-adv-x="686" unicode="&#399;" /><glyph d="M97 453Q97 499 111 542Q125 585 158 618Q180 640 208.5 654.5Q237 669 269.5 677.5Q302 686 337.5 689Q373 692 410 692Q423 692 444 691Q465 690 489 687.5Q513 685 537.5 680.5Q562 676 581 669L564 579Q516 593 469.5 597Q423 601 393 601Q293 601 249 557Q235 543 227 523Q219 503 219 480Q219 450 234 435Q251 418 285.5 413.5Q320 409 361.5 404.5Q403 400 444.5 388Q486 376 518 345Q534 329 544.5 302Q555 275 555 243Q555 196 539.5 149.5Q524 103 485 64Q439 19 369.5 2.5Q300 -14 222 -14Q209 -14 185.5 -13Q162 -12 133.5 -9Q105 -6 76 -0.5Q47 5 23 14L40 109Q64 101 92.5 96Q121 91 148.5 88Q176 85 200 84Q224 83 240 83Q299 83 336.5 94.5Q374 106 396 127Q414 144 423 167.5Q432 191 432 217Q432 232 427.5 245Q423 258 415 266Q402 279 381.5 284.5Q361 290 336.5 293Q312 296 285 298Q258 300 231 305.5Q204 311 178.5 322Q153 333 133 353Q117 369 107 395Q97 421 97 453ZM550 732H455L402 795L326 732H220L358 850H457Z" glyph-name="Scircumflex" horiz-adv-x="598" unicode="&#348;" /><glyph d="M97 453Q97 499 111 542Q125 585 158 618Q180 640 208.5 654.5Q237 669 269.5 677.5Q302 686 337.5 689Q373 692 410 692Q423 692 444 691Q465 690 489 687.5Q513 685 537.5 680.5Q562 676 581 669L564 579Q516 593 469.5 597Q423 601 393 601Q293 601 249 557Q235 543 227 523Q219 503 219 480Q219 450 234 435Q251 418 285.5 413.5Q320 409 361.5 404.5Q403 400 444.5 388Q486 376 518 345Q534 329 544.5 302Q555 275 555 243Q555 196 539.5 149.5Q524 103 485 64Q439 19 369.5 2.5Q300 -14 222 -14Q209 -14 185.5 -13Q162 -12 133.5 -9Q105 -6 76 -0.5Q47 5 23 14L40 109Q64 101 92.5 96Q121 91 148.5 88Q176 85 200 84Q224 83 240 83Q299 83 336.5 94.5Q374 106 396 127Q414 144 423 167.5Q432 191 432 217Q432 232 427.5 245Q423 258 415 266Q402 279 381.5 284.5Q361 290 336.5 293Q312 296 285 298Q258 300 231 305.5Q204 311 178.5 322Q153 333 133 353Q117 369 107 395Q97 421 97 453ZM192 -75H307L187 -258H119Z" glyph-name="Scommaaccent" horiz-adv-x="598" unicode="&#536;" /><glyph d="M275 -189H168L186 -92H293ZM97 453Q97 499 111 542Q125 585 158 618Q180 640 208.5 654.5Q237 669 269.5 677.5Q302 686 337.5 689Q373 692 410 692Q423 692 444 691Q465 690 489 687.5Q513 685 537.5 680.5Q562 676 581 669L564 579Q516 593 469.5 597Q423 601 393 601Q293 601 249 557Q235 543 227 523Q219 503 219 480Q219 450 234 435Q251 418 285.5 413.5Q320 409 361.5 404.5Q403 400 444.5 388Q486 376 518 345Q534 329 544.5 302Q555 275 555 243Q555 196 539.5 149.5Q524 103 485 64Q439 19 369.5 2.5Q300 -14 222 -14Q209 -14 185.5 -13Q162 -12 133.5 -9Q105 -6 76 -0.5Q47 5 23 14L40 109Q64 101 92.5 96Q121 91 148.5 88Q176 85 200 84Q224 83 240 83Q299 83 336.5 94.5Q374 106 396 127Q414 144 423 167.5Q432 191 432 217Q432 232 427.5 245Q423 258 415 266Q402 279 381.5 284.5Q361 290 336.5 293Q312 296 285 298Q258 300 231 305.5Q204 311 178.5 322Q153 333 133 353Q117 369 107 395Q97 421 97 453Z" glyph-name="Sdotbelow" horiz-adv-x="598" unicode="&#7778;" /><glyph d="M274 0H159L268 589H72L89 678H594L578 589H382Z" glyph-name="T" horiz-adv-x="527" unicode="T" /><glyph d="M345 390H488L471 301H329L274 0H159L214 301H76L92 390H231L268 589H72L89 678H594L578 589H382Z" glyph-name="Tbar" horiz-adv-x="527" unicode="&#358;" /><glyph d="M274 0H159L268 589H72L89 678H594L578 589H382ZM205 848H300L353 784L429 848H535L397 730H298Z" glyph-name="Tcaron" horiz-adv-x="527" unicode="&#356;" /><glyph d="M274 0H159L268 589H72L89 678H594L578 589H382ZM192 -36Q208 -37 226.5 -40Q245 -43 261 -50Q277 -57 288 -69Q299 -81 299 -100Q299 -126 284 -141.5Q269 -157 247 -165.5Q225 -174 200.5 -176.5Q176 -179 158 -179Q141 -179 119.5 -177Q98 -175 73 -167L85 -106Q105 -114 122.5 -116Q140 -118 154 -118Q161 -118 170 -117.5Q179 -117 187 -115Q195 -113 200.5 -108Q206 -103 206 -95Q206 -89 201.5 -85.5Q197 -82 190 -79.5Q183 -77 176 -76Q169 -75 165 -75Z" glyph-name="Tcedilla" horiz-adv-x="527" unicode="&#57641;" /><glyph d="M274 0H159L268 589H72L89 678H594L578 589H382ZM144 -75H259L139 -258H71Z" glyph-name="Tcommaaccent" horiz-adv-x="527" unicode="&#354;" /><glyph d="M235 -189H128L146 -92H253ZM274 0H159L268 589H72L89 678H594L578 589H382Z" glyph-name="Tdotbelow" horiz-adv-x="527" unicode="&#7788;" /><glyph d="M190 202H317Q359 202 389 206Q419 210 442 233Q455 246 464 264.5Q473 283 479 304Q485 325 488 346Q491 367 491 385Q491 403 487 420Q483 437 470 450Q454 466 430.5 469Q407 472 366 472H240ZM278 678 256 561H385Q458 561 502.5 548Q547 535 575 507Q597 486 605 454.5Q613 423 613 394Q613 366 608.5 335.5Q604 305 594.5 276Q585 247 570 220Q555 193 534 172Q513 151 486.5 139Q460 127 430.5 121Q401 115 370.5 113.5Q340 112 310 112H173L153 0H39L163 678Z" glyph-name="Thorn" horiz-adv-x="626" unicode="&#222;" /><glyph d="M304 74Q348 74 382 84.5Q416 95 438 118Q461 141 470.5 166Q480 191 484 213L570 678H685L601 225Q592 176 575 135Q558 94 522 58Q499 35 472.5 20.5Q446 6 417 -1.5Q388 -9 357 -11.5Q326 -14 293 -14Q221 -14 174.5 1Q128 16 100 47Q66 84 60.5 133Q55 182 66 236L147 678H262L176 213Q171 190 172.5 161Q174 132 194 109Q210 91 235 82.5Q260 74 304 74Z" glyph-name="U" horiz-adv-x="679" unicode="U" /><glyph d="M880 0H417Q389 -8 358 -11Q327 -14 293 -14Q221 -14 174.5 1Q128 16 100 47Q66 84 60.5 133Q55 182 66 236L147 678H262L176 213Q171 190 172.5 161Q174 132 194 109Q210 91 235 82.5Q260 74 304 74Q348 74 382 84.5Q416 95 438 118Q461 141 470.5 166Q480 191 484 213L570 678H998L981 589H668L631 390H901L885 301H615L576 89H896Z" glyph-name="UE" horiz-adv-x="962" unicode="&#59481;" /><glyph d="M304 74Q348 74 382 84.5Q416 95 438 118Q461 141 470.5 166Q480 191 484 213L570 678H685L601 225Q592 176 575 135Q558 94 522 58Q499 35 472.5 20.5Q446 6 417 -1.5Q388 -9 357 -11.5Q326 -14 293 -14Q221 -14 174.5 1Q128 16 100 47Q66 84 60.5 133Q55 182 66 236L147 678H262L176 213Q171 190 172.5 161Q174 132 194 109Q210 91 235 82.5Q260 74 304 74ZM464 734H367L498 846H635Z" glyph-name="Uacute" horiz-adv-x="679" unicode="&#218;" /><glyph d="M433 791Q456 791 477 796.5Q498 802 513 817Q525 829 532 846H624Q616 825 607 808.5Q598 792 584 778Q555 749 514.5 736.5Q474 724 425 724Q383 724 351 733.5Q319 743 299 763Q284 778 275 798Q266 818 267 846H354Q355 824 369 810Q380 799 396.5 795Q413 791 433 791ZM304 74Q348 74 382 84.5Q416 95 438 118Q461 141 470.5 166Q480 191 484 213L570 678H685L601 225Q592 176 575 135Q558 94 522 58Q499 35 472.5 20.5Q446 6 417 -1.5Q388 -9 357 -11.5Q326 -14 293 -14Q221 -14 174.5 1Q128 16 100 47Q66 84 60.5 133Q55 182 66 236L147 678H262L176 213Q171 190 172.5 161Q174 132 194 109Q210 91 235 82.5Q260 74 304 74Z" glyph-name="Ubreve" horiz-adv-x="679" unicode="&#364;" /><glyph d="M304 74Q348 74 382 84.5Q416 95 438 118Q461 141 470.5 166Q480 191 484 213L570 678H685L601 225Q592 176 575 135Q558 94 522 58Q499 35 472.5 20.5Q446 6 417 -1.5Q388 -9 357 -11.5Q326 -14 293 -14Q221 -14 174.5 1Q128 16 100 47Q66 84 60.5 133Q55 182 66 236L147 678H262L176 213Q171 190 172.5 161Q174 132 194 109Q210 91 235 82.5Q260 74 304 74ZM276 848H371L424 784L500 848H606L468 730H369Z" glyph-name="Ucaron" horiz-adv-x="679" unicode="&#467;" /><glyph d="M304 74Q348 74 382 84.5Q416 95 438 118Q461 141 470.5 166Q480 191 484 213L570 678H685L601 225Q592 176 575 135Q558 94 522 58Q499 35 472.5 20.5Q446 6 417 -1.5Q388 -9 357 -11.5Q326 -14 293 -14Q221 -14 174.5 1Q128 16 100 47Q66 84 60.5 133Q55 182 66 236L147 678H262L176 213Q171 190 172.5 161Q174 132 194 109Q210 91 235 82.5Q260 74 304 74ZM589 732H494L441 795L365 732H259L397 850H496Z" glyph-name="Ucircumflex" horiz-adv-x="679" unicode="&#219;" /><glyph d="M304 74Q348 74 382 84.5Q416 95 438 118Q461 141 470.5 166Q480 191 484 213L570 678H685L601 225Q592 176 575 135Q558 94 522 58Q499 35 472.5 20.5Q446 6 417 -1.5Q388 -9 357 -11.5Q326 -14 293 -14Q221 -14 174.5 1Q128 16 100 47Q66 84 60.5 133Q55 182 66 236L147 678H262L176 213Q171 190 172.5 161Q174 132 194 109Q210 91 235 82.5Q260 74 304 74ZM585 748H477L495 843H602ZM377 748H270L287 843H395Z" glyph-name="Udieresis" horiz-adv-x="679" unicode="&#220;" /><glyph d="M311 -189H204L222 -92H329ZM304 74Q348 74 382 84.5Q416 95 438 118Q461 141 470.5 166Q480 191 484 213L570 678H685L601 225Q592 176 575 135Q558 94 522 58Q499 35 472.5 20.5Q446 6 417 -1.5Q388 -9 357 -11.5Q326 -14 293 -14Q221 -14 174.5 1Q128 16 100 47Q66 84 60.5 133Q55 182 66 236L147 678H262L176 213Q171 190 172.5 161Q174 132 194 109Q210 91 235 82.5Q260 74 304 74Z" glyph-name="Udotbelow" horiz-adv-x="679" unicode="&#7908;" /><glyph d="M192 846H309L397 733H320ZM355 846H472L560 733H483ZM304 74Q348 74 382 84.5Q416 95 438 118Q461 141 470.5 166Q480 191 484 213L570 678H685L601 225Q592 176 575 135Q558 94 522 58Q499 35 472.5 20.5Q446 6 417 -1.5Q388 -9 357 -11.5Q326 -14 293 -14Q221 -14 174.5 1Q128 16 100 47Q66 84 60.5 133Q55 182 66 236L147 678H262L176 213Q171 190 172.5 161Q174 132 194 109Q210 91 235 82.5Q260 74 304 74Z" glyph-name="Udoublegrave" horiz-adv-x="679" unicode="&#532;" /><glyph d="M264 846H395L484 734H393ZM304 74Q348 74 382 84.5Q416 95 438 118Q461 141 470.5 166Q480 191 484 213L570 678H685L601 225Q592 176 575 135Q558 94 522 58Q499 35 472.5 20.5Q446 6 417 -1.5Q388 -9 357 -11.5Q326 -14 293 -14Q221 -14 174.5 1Q128 16 100 47Q66 84 60.5 133Q55 182 66 236L147 678H262L176 213Q171 190 172.5 161Q174 132 194 109Q210 91 235 82.5Q260 74 304 74Z" glyph-name="Ugrave" horiz-adv-x="679" unicode="&#217;" /><glyph d="M532 733H449L579 846H702ZM367 733H285L415 846H537ZM304 74Q348 74 382 84.5Q416 95 438 118Q461 141 470.5 166Q480 191 484 213L570 678H685L601 225Q592 176 575 135Q558 94 522 58Q499 35 472.5 20.5Q446 6 417 -1.5Q388 -9 357 -11.5Q326 -14 293 -14Q221 -14 174.5 1Q128 16 100 47Q66 84 60.5 133Q55 182 66 236L147 678H262L176 213Q171 190 172.5 161Q174 132 194 109Q210 91 235 82.5Q260 74 304 74Z" glyph-name="Uhungarumlaut" horiz-adv-x="679" unicode="&#368;" /><glyph d="M304 74Q348 74 382 84.5Q416 95 438 118Q461 141 470.5 166Q480 191 484 213L570 678H685L601 225Q592 176 575 135Q558 94 522 58Q499 35 472.5 20.5Q446 6 417 -1.5Q388 -9 357 -11.5Q326 -14 293 -14Q221 -14 174.5 1Q128 16 100 47Q66 84 60.5 133Q55 182 66 236L147 678H262L176 213Q171 190 172.5 161Q174 132 194 109Q210 91 235 82.5Q260 74 304 74ZM436 788Q413 788 392.5 782.5Q372 777 357 762Q351 756 346 749Q341 742 337 733H246Q253 754 262 770.5Q271 787 285 801Q314 830 355 842.5Q396 855 444 855Q486 855 518 845.5Q550 836 570 816Q585 801 594.5 781Q604 761 603 733H515Q515 745 511 753.5Q507 762 500 769Q489 780 472.5 784Q456 788 436 788Z" glyph-name="Uinvertedbreve" horiz-adv-x="679" unicode="&#534;" /><glyph d="M602 762H257L271 841H617ZM304 74Q348 74 382 84.5Q416 95 438 118Q461 141 470.5 166Q480 191 484 213L570 678H685L601 225Q592 176 575 135Q558 94 522 58Q499 35 472.5 20.5Q446 6 417 -1.5Q388 -9 357 -11.5Q326 -14 293 -14Q221 -14 174.5 1Q128 16 100 47Q66 84 60.5 133Q55 182 66 236L147 678H262L176 213Q171 190 172.5 161Q174 132 194 109Q210 91 235 82.5Q260 74 304 74Z" glyph-name="Umacron" horiz-adv-x="679" unicode="&#362;" /><glyph d="M434 -162H89L103 -83H449ZM304 74Q348 74 382 84.5Q416 95 438 118Q461 141 470.5 166Q480 191 484 213L570 678H685L601 225Q592 176 575 135Q558 94 522 58Q499 35 472.5 20.5Q446 6 417 -1.5Q388 -9 357 -11.5Q326 -14 293 -14Q221 -14 174.5 1Q128 16 100 47Q66 84 60.5 133Q55 182 66 236L147 678H262L176 213Q171 190 172.5 161Q174 132 194 109Q210 91 235 82.5Q260 74 304 74Z" glyph-name="Umacronbelow" horiz-adv-x="679" unicode="&#57643;" /><glyph d="M304 74Q348 74 382 84.5Q416 95 438 118Q461 141 470.5 166Q480 191 484 213L570 678H685L601 225Q592 176 575 135Q558 94 522 58Q483 18 434.5 4Q386 -10 332 -13Q318 -22 308 -34Q297 -45 288.5 -59.5Q280 -74 280 -88Q280 -103 291 -109.5Q302 -116 317 -116Q333 -116 348.5 -114Q364 -112 384 -106L373 -167Q353 -175 328.5 -177Q304 -179 287 -179Q271 -179 254 -176Q237 -173 223 -165Q209 -157 200 -144Q191 -131 191 -111Q191 -88 202.5 -68Q214 -48 232 -30Q237 -25 242 -21Q247 -17 252 -12Q197 -8 160 6.5Q123 21 100 47Q66 84 60.5 133Q55 182 66 236L147 678H262L176 213Q171 190 172.5 161Q174 132 194 109Q210 91 235 82.5Q260 74 304 74Z" glyph-name="Uogonek" horiz-adv-x="679" unicode="&#370;" /><glyph d="M304 74Q348 74 382 84.5Q416 95 438 118Q461 141 470.5 166Q480 191 484 213L570 678H685L601 225Q592 176 575 135Q558 94 522 58Q499 35 472.5 20.5Q446 6 417 -1.5Q388 -9 357 -11.5Q326 -14 293 -14Q221 -14 174.5 1Q128 16 100 47Q66 84 60.5 133Q55 182 66 236L147 678H262L176 213Q171 190 172.5 161Q174 132 194 109Q210 91 235 82.5Q260 74 304 74ZM424 728Q377 728 355 750Q347 757 343.5 767.5Q340 778 340 790Q340 807 345.5 824.5Q351 842 364 855Q379 871 401 876Q423 881 451 881Q499 881 521 859Q536 845 536 819Q536 802 530.5 784.5Q525 767 512 754Q497 739 475 733.5Q453 728 424 728ZM433 773Q454 773 465 784Q476 795 476 814Q476 824 470 830Q464 837 445 837Q423 837 413 827Q408 822 405 813Q402 804 402 796Q402 785 407 780Q415 773 433 773Z" glyph-name="Uring" horiz-adv-x="679" unicode="&#366;" /><glyph d="M518 826Q540 826 570 838Q600 850 623 864L609 787Q600 781 587 774Q574 767 559.5 762Q545 757 530.5 753.5Q516 750 503 750Q482 750 463.5 755Q445 760 428.5 766Q412 772 395 777Q378 782 360 782Q337 782 306.5 770.5Q276 759 252 745L267 823Q276 829 289 835.5Q302 842 317 847.5Q332 853 347 856.5Q362 860 374 860Q396 860 413.5 855Q431 850 447.5 843.5Q464 837 481 831.5Q498 826 518 826ZM304 74Q348 74 382 84.5Q416 95 438 118Q461 141 470.5 166Q480 191 484 213L570 678H685L601 225Q592 176 575 135Q558 94 522 58Q499 35 472.5 20.5Q446 6 417 -1.5Q388 -9 357 -11.5Q326 -14 293 -14Q221 -14 174.5 1Q128 16 100 47Q66 84 60.5 133Q55 182 66 236L147 678H262L176 213Q171 190 172.5 161Q174 132 194 109Q210 91 235 82.5Q260 74 304 74Z" glyph-name="Utilde" horiz-adv-x="679" unicode="&#360;" /><glyph d="M191 0 83 678H199L251 330Q259 277 267 219Q275 161 280 110H283Q308 161 336 219Q364 277 391 330L571 678H694L335 0Z" glyph-name="V" horiz-adv-x="620" unicode="V" /><glyph d="M573 678 622 361Q632 301 640.5 240.5Q649 180 655 120H659Q685 180 710.5 242Q736 304 765 368L905 678H1021L707 0H578L540 244Q537 265 533 290Q529 315 525 339.5Q521 364 518 387Q515 410 512 428H509Q499 408 487 385Q475 362 462 337.5Q449 313 436 289Q423 265 412 244L283 0H151L87 678H200L226 355Q231 297 235 237Q239 177 241 119H245Q272 176 301.5 233Q331 290 361 346L480 571L461 678Z" glyph-name="W" horiz-adv-x="954" unicode="W" /><glyph d="M573 678 622 361Q632 301 640.5 240.5Q649 180 655 120H659Q685 180 710.5 242Q736 304 765 368L905 678H1021L707 0H578L540 244Q537 265 533 290Q529 315 525 339.5Q521 364 518 387Q515 410 512 428H509Q499 408 487 385Q475 362 462 337.5Q449 313 436 289Q423 265 412 244L283 0H151L87 678H200L226 355Q231 297 235 237Q239 177 241 119H245Q272 176 301.5 233Q331 290 361 346L480 571L461 678ZM572 734H475L606 846H743Z" glyph-name="Wacute" horiz-adv-x="954" unicode="&#7810;" /><glyph d="M573 678 622 361Q632 301 640.5 240.5Q649 180 655 120H659Q685 180 710.5 242Q736 304 765 368L905 678H1021L707 0H578L540 244Q537 265 533 290Q529 315 525 339.5Q521 364 518 387Q515 410 512 428H509Q499 408 487 385Q475 362 462 337.5Q449 313 436 289Q423 265 412 244L283 0H151L87 678H200L226 355Q231 297 235 237Q239 177 241 119H245Q272 176 301.5 233Q331 290 361 346L480 571L461 678ZM724 732H629L576 795L500 732H394L532 850H631Z" glyph-name="Wcircumflex" horiz-adv-x="954" unicode="&#372;" /><glyph d="M573 678 622 361Q632 301 640.5 240.5Q649 180 655 120H659Q685 180 710.5 242Q736 304 765 368L905 678H1021L707 0H578L540 244Q537 265 533 290Q529 315 525 339.5Q521 364 518 387Q515 410 512 428H509Q499 408 487 385Q475 362 462 337.5Q449 313 436 289Q423 265 412 244L283 0H151L87 678H200L226 355Q231 297 235 237Q239 177 241 119H245Q272 176 301.5 233Q331 290 361 346L480 571L461 678ZM718 748H610L628 843H735ZM510 748H403L420 843H528Z" glyph-name="Wdieresis" horiz-adv-x="954" unicode="&#7812;" /><glyph d="M346 846H477L566 734H475ZM573 678 622 361Q632 301 640.5 240.5Q649 180 655 120H659Q685 180 710.5 242Q736 304 765 368L905 678H1021L707 0H578L540 244Q537 265 533 290Q529 315 525 339.5Q521 364 518 387Q515 410 512 428H509Q499 408 487 385Q475 362 462 337.5Q449 313 436 289Q423 265 412 244L283 0H151L87 678H200L226 355Q231 297 235 237Q239 177 241 119H245Q272 176 301.5 233Q331 290 361 346L480 571L461 678Z" glyph-name="Wgrave" horiz-adv-x="954" unicode="&#7808;" /><glyph d="M242 349 82 678H207L320 439L515 678H652L370 339L535 0H411L292 250L88 0H-48Z" glyph-name="X" horiz-adv-x="582" unicode="X" /><glyph d="M308 0H194L240 255L78 678H195L310 356H312L549 678H676L354 256Z" glyph-name="Y" horiz-adv-x="598" unicode="Y" /><glyph d="M424 734H327L458 846H595ZM308 0H194L240 255L78 678H195L310 356H312L549 678H676L354 256Z" glyph-name="Yacute" horiz-adv-x="598" unicode="&#221;" /><glyph d="M552 732H457L404 795L328 732H222L360 850H459ZM308 0H194L240 255L78 678H195L310 356H312L549 678H676L354 256Z" glyph-name="Ycircumflex" horiz-adv-x="598" unicode="&#374;" /><glyph d="M547 748H439L457 843H564ZM339 748H232L249 843H357ZM308 0H194L240 255L78 678H195L310 356H312L549 678H676L354 256Z" glyph-name="Ydieresis" horiz-adv-x="598" unicode="&#376;" /><glyph d="M220 846H351L440 734H349ZM308 0H194L240 255L78 678H195L310 356H312L549 678H676L354 256Z" glyph-name="Ygrave" horiz-adv-x="598" unicode="&#7922;" /><glyph d="M568 762H223L237 841H583ZM308 0H194L240 255L78 678H195L310 356H312L549 678H676L354 256Z" glyph-name="Ymacron" horiz-adv-x="598" unicode="&#562;" /><glyph d="M400 587V589H90L107 678H560L544 592L294 343Q340 338 378 320Q416 302 442 276Q463 255 475 224Q487 193 487 153Q487 100 469 49Q451 -2 411 -43Q360 -94 287 -113Q214 -132 136 -132Q117 -132 93 -130.5Q69 -129 43 -126Q17 -123 -9 -117.5Q-35 -112 -58 -104L-42 -7Q-17 -15 11 -20.5Q39 -26 65.5 -29Q92 -32 115 -33.5Q138 -35 154 -35Q211 -35 253 -20Q295 -5 321 21Q343 44 354.5 75Q366 106 366 140Q366 185 342 209Q320 231 283 239Q246 247 197 248Q168 248 131 245L141 328Z" glyph-name="Yogh" horiz-adv-x="557" unicode="&#439;" /><glyph d="M400 587V589H90L107 678H560L544 592L294 343Q340 338 378 320Q416 302 442 276Q463 255 475 224Q487 193 487 153Q487 100 469 49Q451 -2 411 -43Q360 -94 287 -113Q214 -132 136 -132Q117 -132 93 -130.5Q69 -129 43 -126Q17 -123 -9 -117.5Q-35 -112 -58 -104L-42 -7Q-17 -15 11 -20.5Q39 -26 65.5 -29Q92 -32 115 -33.5Q138 -35 154 -35Q211 -35 253 -20Q295 -5 321 21Q343 44 354.5 75Q366 106 366 140Q366 185 342 209Q320 231 283 239Q246 247 197 248Q168 248 131 245L141 328ZM210 848H305L358 784L434 848H540L402 730H303Z" glyph-name="Yoghcaron" horiz-adv-x="553" unicode="&#59526;" /><glyph d="M484 832Q506 832 536 844Q566 856 589 870L575 793Q566 787 553 780Q540 773 525.5 768Q511 763 496.5 759.5Q482 756 469 756Q448 756 429.5 761Q411 766 394.5 772Q378 778 361 783Q344 788 326 788Q303 788 272.5 776.5Q242 765 218 751L233 829Q242 835 255 841.5Q268 848 283 853.5Q298 859 313 862.5Q328 866 340 866Q362 866 379.5 861Q397 856 413.5 849.5Q430 843 447 837.5Q464 832 484 832ZM308 0H194L240 255L78 678H195L310 356H312L549 678H676L354 256Z" glyph-name="Ytilde" horiz-adv-x="598" unicode="&#7928;" /><glyph d="M4 81 428 588V589H119L136 678H589L574 596L150 91V89H482L466 0H-11Z" glyph-name="Z" horiz-adv-x="550" unicode="Z" /><glyph d="M4 81 428 588V589H119L136 678H589L574 596L150 91V89H482L466 0H-11ZM397 734H300L431 846H568Z" glyph-name="Zacute" horiz-adv-x="550" unicode="&#377;" /><glyph d="M4 81 428 588V589H119L136 678H589L574 596L150 91V89H482L466 0H-11ZM227 848H322L375 784L451 848H557L419 730H320Z" glyph-name="Zcaron" horiz-adv-x="550" unicode="&#381;" /><glyph d="M430 749H318L336 845H448ZM4 81 428 588V589H119L136 678H589L574 596L150 91V89H482L466 0H-11Z" glyph-name="Zdotaccent" horiz-adv-x="550" unicode="&#379;" /><glyph d="M363 232Q337 234 314 235Q291 236 280 236Q247 236 213.5 231Q180 226 157 203Q143 189 137 171Q131 153 131 135Q131 121 135.5 111Q140 101 146 95Q157 84 173.5 80.5Q190 77 210 77Q259 77 292 97.5Q325 118 346 143ZM288 311Q303 311 327 310Q351 309 377 307L387 363Q391 386 390 401Q389 416 377.5 425Q366 434 342 437.5Q318 441 276 441Q249 441 207 437Q165 433 114 422L130 506Q152 511 177.5 514.5Q203 518 228 520Q253 522 274.5 523Q296 524 311 524Q367 524 405.5 516Q444 508 466 488.5Q488 469 494.5 437Q501 405 492 356L428 0H354L347 53H346Q313 22 269 6Q225 -10 178 -10Q139 -10 107.5 0Q76 10 53 33Q36 49 28 72.5Q20 96 20 119Q20 159 32 193Q44 227 70 253Q89 272 115.5 283.5Q142 295 171 301Q200 307 230.5 309Q261 311 288 311Z" glyph-name="a" horiz-adv-x="546" unicode="a" /><glyph d="M40 173Q40 206 46 243.5Q52 281 63.5 318Q75 355 93 389Q111 423 137 449Q176 489 229 505Q282 521 338 521Q363 521 385.5 516Q408 511 426 504Q444 497 457.5 489Q471 481 478 475H480L500 510H569L477 0H401L397 58H396Q358 26 317 7.5Q276 -11 225 -11Q178 -11 143.5 3.5Q109 18 86 40Q64 61 52 95Q40 129 40 173ZM441 400Q433 408 405.5 420.5Q378 433 336 433Q301 433 272.5 423.5Q244 414 223 393Q206 376 193.5 351.5Q181 327 173 298Q165 269 160.5 238.5Q156 208 156 181Q156 152 162.5 133Q169 114 182 101Q207 77 255 77Q277 77 297.5 84.5Q318 92 336.5 103.5Q355 115 370 128.5Q385 142 396 154Z" glyph-name="a.hist" horiz-adv-x="603" unicode="&#59153;" /><glyph d="M308 451Q300 430 287.5 402.5Q275 375 262 351L185 207H347L323 351Q320 371 316 400Q312 429 310 451ZM361 127H140L72 0H-45L262 541H383L490 0H384Z" glyph-name="a.small" horiz-adv-x="539" unicode="&#63329;" /><glyph d="M254 426Q250 426 243.5 426.5Q237 427 230.5 427Q224 427 218.5 427Q213 427 212 427Q192 427 175.5 424Q159 421 146 409Q138 401 133.5 389.5Q129 378 129 366Q129 351 137 345Q142 339 151.5 337Q161 335 173 335Q193 335 211 342.5Q229 350 243 367ZM218 481Q219 481 224.5 481Q230 481 237.5 481Q245 481 252 480.5Q259 480 264 480L269 508Q272 521 271 529.5Q270 538 264 542.5Q258 547 244.5 549Q231 551 209 551Q192 551 165.5 548.5Q139 546 103 538L114 600Q144 607 179 610Q214 613 232 613Q305 613 333.5 590Q362 567 351 505L309 279H247L246 308H245Q231 294 203 283.5Q175 273 148 273Q122 273 101.5 279Q81 285 67 299Q56 311 50.5 326.5Q45 342 45 358Q45 381 54 403.5Q63 426 78 442Q91 455 107.5 463Q124 471 142.5 475Q161 479 180.5 480Q200 481 218 481Z" glyph-name="a.superior" horiz-adv-x="354" unicode="&#58209;" /><glyph d="M359 566H262L393 678H530ZM363 232Q337 234 314 235Q291 236 280 236Q247 236 213.5 231Q180 226 157 203Q143 189 137 171Q131 153 131 135Q131 121 135.5 111Q140 101 146 95Q157 84 173.5 80.5Q190 77 210 77Q259 77 292 97.5Q325 118 346 143ZM288 311Q303 311 327 310Q351 309 377 307L387 363Q391 386 390 401Q389 416 377.5 425Q366 434 342 437.5Q318 441 276 441Q249 441 207 437Q165 433 114 422L130 506Q152 511 177.5 514.5Q203 518 228 520Q253 522 274.5 523Q296 524 311 524Q367 524 405.5 516Q444 508 466 488.5Q488 469 494.5 437Q501 405 492 356L428 0H354L347 53H346Q313 22 269 6Q225 -10 178 -10Q139 -10 107.5 0Q76 10 53 33Q36 49 28 72.5Q20 96 20 119Q20 159 32 193Q44 227 70 253Q89 272 115.5 283.5Q142 295 171 301Q200 307 230.5 309Q261 311 288 311Z" glyph-name="aacute" horiz-adv-x="546" unicode="&#225;" /><glyph d="M40 173Q40 206 46 243.5Q52 281 63.5 318Q75 355 93 389Q111 423 137 449Q176 489 229 505Q282 521 338 521Q363 521 385.5 516Q408 511 426 504Q444 497 457.5 489Q471 481 478 475H480L500 510H569L477 0H401L397 58H396Q358 26 317 7.5Q276 -11 225 -11Q178 -11 143.5 3.5Q109 18 86 40Q64 61 52 95Q40 129 40 173ZM441 400Q433 408 405.5 420.5Q378 433 336 433Q301 433 272.5 423.5Q244 414 223 393Q206 376 193.5 351.5Q181 327 173 298Q165 269 160.5 238.5Q156 208 156 181Q156 152 162.5 133Q169 114 182 101Q207 77 255 77Q277 77 297.5 84.5Q318 92 336.5 103.5Q355 115 370 128.5Q385 142 396 154ZM387 566H290L421 678H558Z" glyph-name="aacute.hist" horiz-adv-x="603" unicode="&#59154;" /><glyph d="M308 451Q300 430 287.5 402.5Q275 375 262 351L185 207H347L323 351Q320 371 316 400Q312 429 310 451ZM361 127H140L72 0H-45L262 541H383L490 0H384ZM379 598H282L413 710H550Z" glyph-name="aacute.small" horiz-adv-x="539" unicode="&#63457;" /><glyph d="M339 623Q362 623 383 628.5Q404 634 419 649Q431 661 438 678H530Q522 657 513 640.5Q504 624 490 610Q461 581 420.5 568.5Q380 556 331 556Q289 556 257 565.5Q225 575 205 595Q190 610 181 630Q172 650 173 678H260Q261 656 275 642Q286 631 302.5 627Q319 623 339 623ZM363 232Q337 234 314 235Q291 236 280 236Q247 236 213.5 231Q180 226 157 203Q143 189 137 171Q131 153 131 135Q131 121 135.5 111Q140 101 146 95Q157 84 173.5 80.5Q190 77 210 77Q259 77 292 97.5Q325 118 346 143ZM288 311Q303 311 327 310Q351 309 377 307L387 363Q391 386 390 401Q389 416 377.5 425Q366 434 342 437.5Q318 441 276 441Q249 441 207 437Q165 433 114 422L130 506Q152 511 177.5 514.5Q203 518 228 520Q253 522 274.5 523Q296 524 311 524Q367 524 405.5 516Q444 508 466 488.5Q488 469 494.5 437Q501 405 492 356L428 0H354L347 53H346Q313 22 269 6Q225 -10 178 -10Q139 -10 107.5 0Q76 10 53 33Q36 49 28 72.5Q20 96 20 119Q20 159 32 193Q44 227 70 253Q89 272 115.5 283.5Q142 295 171 301Q200 307 230.5 309Q261 311 288 311Z" glyph-name="abreve" horiz-adv-x="546" unicode="&#259;" /><glyph d="M367 623Q390 623 411 628.5Q432 634 447 649Q459 661 466 678H558Q550 657 541 640.5Q532 624 518 610Q489 581 448.5 568.5Q408 556 359 556Q317 556 285 565.5Q253 575 233 595Q218 610 209 630Q200 650 201 678H288Q289 656 303 642Q314 631 330.5 627Q347 623 367 623ZM40 173Q40 206 46 243.5Q52 281 63.5 318Q75 355 93 389Q111 423 137 449Q176 489 229 505Q282 521 338 521Q363 521 385.5 516Q408 511 426 504Q444 497 457.5 489Q471 481 478 475H480L500 510H569L477 0H401L397 58H396Q358 26 317 7.5Q276 -11 225 -11Q178 -11 143.5 3.5Q109 18 86 40Q64 61 52 95Q40 129 40 173ZM441 400Q433 408 405.5 420.5Q378 433 336 433Q301 433 272.5 423.5Q244 414 223 393Q206 376 193.5 351.5Q181 327 173 298Q165 269 160.5 238.5Q156 208 156 181Q156 152 162.5 133Q169 114 182 101Q207 77 255 77Q277 77 297.5 84.5Q318 92 336.5 103.5Q355 115 370 128.5Q385 142 396 154Z" glyph-name="abreve.hist" horiz-adv-x="603" unicode="&#59155;" /><glyph d="M337 655Q360 655 381 660.5Q402 666 417 681Q429 693 436 710H528Q520 689 511 672.5Q502 656 488 642Q459 613 418.5 600.5Q378 588 329 588Q287 588 255 597.5Q223 607 203 627Q188 642 179 662Q170 682 171 710H258Q259 688 273 674Q284 663 300.5 659Q317 655 337 655ZM308 451Q300 430 287.5 402.5Q275 375 262 351L185 207H347L323 351Q320 371 316 400Q312 429 310 451ZM361 127H140L72 0H-45L262 541H383L490 0H384Z" glyph-name="abreve.small" horiz-adv-x="539" unicode="&#63040;" /><glyph d="M185 680H280L333 616L409 680H515L377 562H278ZM363 232Q337 234 314 235Q291 236 280 236Q247 236 213.5 231Q180 226 157 203Q143 189 137 171Q131 153 131 135Q131 121 135.5 111Q140 101 146 95Q157 84 173.5 80.5Q190 77 210 77Q259 77 292 97.5Q325 118 346 143ZM288 311Q303 311 327 310Q351 309 377 307L387 363Q391 386 390 401Q389 416 377.5 425Q366 434 342 437.5Q318 441 276 441Q249 441 207 437Q165 433 114 422L130 506Q152 511 177.5 514.5Q203 518 228 520Q253 522 274.5 523Q296 524 311 524Q367 524 405.5 516Q444 508 466 488.5Q488 469 494.5 437Q501 405 492 356L428 0H354L347 53H346Q313 22 269 6Q225 -10 178 -10Q139 -10 107.5 0Q76 10 53 33Q36 49 28 72.5Q20 96 20 119Q20 159 32 193Q44 227 70 253Q89 272 115.5 283.5Q142 295 171 301Q200 307 230.5 309Q261 311 288 311Z" glyph-name="acaron" horiz-adv-x="546" unicode="&#462;" /><glyph d="M40 173Q40 206 46 243.5Q52 281 63.5 318Q75 355 93 389Q111 423 137 449Q176 489 229 505Q282 521 338 521Q363 521 385.5 516Q408 511 426 504Q444 497 457.5 489Q471 481 478 475H480L500 510H569L477 0H401L397 58H396Q358 26 317 7.5Q276 -11 225 -11Q178 -11 143.5 3.5Q109 18 86 40Q64 61 52 95Q40 129 40 173ZM441 400Q433 408 405.5 420.5Q378 433 336 433Q301 433 272.5 423.5Q244 414 223 393Q206 376 193.5 351.5Q181 327 173 298Q165 269 160.5 238.5Q156 208 156 181Q156 152 162.5 133Q169 114 182 101Q207 77 255 77Q277 77 297.5 84.5Q318 92 336.5 103.5Q355 115 370 128.5Q385 142 396 154ZM213 680H308L361 616L437 680H543L405 562H306Z" glyph-name="acaron.hist" horiz-adv-x="603" unicode="&#59156;" /><glyph d="M308 451Q300 430 287.5 402.5Q275 375 262 351L185 207H347L323 351Q320 371 316 400Q312 429 310 451ZM361 127H140L72 0H-45L262 541H383L490 0H384ZM186 712H281L334 648L410 712H516L378 594H279Z" glyph-name="acaron.small" horiz-adv-x="539" unicode="&#59157;" /><glyph d="M496 564H401L348 627L272 564H166L304 682H403ZM363 232Q337 234 314 235Q291 236 280 236Q247 236 213.5 231Q180 226 157 203Q143 189 137 171Q131 153 131 135Q131 121 135.5 111Q140 101 146 95Q157 84 173.5 80.5Q190 77 210 77Q259 77 292 97.5Q325 118 346 143ZM288 311Q303 311 327 310Q351 309 377 307L387 363Q391 386 390 401Q389 416 377.5 425Q366 434 342 437.5Q318 441 276 441Q249 441 207 437Q165 433 114 422L130 506Q152 511 177.5 514.5Q203 518 228 520Q253 522 274.5 523Q296 524 311 524Q367 524 405.5 516Q444 508 466 488.5Q488 469 494.5 437Q501 405 492 356L428 0H354L347 53H346Q313 22 269 6Q225 -10 178 -10Q139 -10 107.5 0Q76 10 53 33Q36 49 28 72.5Q20 96 20 119Q20 159 32 193Q44 227 70 253Q89 272 115.5 283.5Q142 295 171 301Q200 307 230.5 309Q261 311 288 311Z" glyph-name="acircumflex" horiz-adv-x="546" unicode="&#226;" /><glyph d="M40 173Q40 206 46 243.5Q52 281 63.5 318Q75 355 93 389Q111 423 137 449Q176 489 229 505Q282 521 338 521Q363 521 385.5 516Q408 511 426 504Q444 497 457.5 489Q471 481 478 475H480L500 510H569L477 0H401L397 58H396Q358 26 317 7.5Q276 -11 225 -11Q178 -11 143.5 3.5Q109 18 86 40Q64 61 52 95Q40 129 40 173ZM441 400Q433 408 405.5 420.5Q378 433 336 433Q301 433 272.5 423.5Q244 414 223 393Q206 376 193.5 351.5Q181 327 173 298Q165 269 160.5 238.5Q156 208 156 181Q156 152 162.5 133Q169 114 182 101Q207 77 255 77Q277 77 297.5 84.5Q318 92 336.5 103.5Q355 115 370 128.5Q385 142 396 154ZM518 564H423L370 627L294 564H188L326 682H425Z" glyph-name="acircumflex.hist" horiz-adv-x="603" unicode="&#59158;" /><glyph d="M308 451Q300 430 287.5 402.5Q275 375 262 351L185 207H347L323 351Q320 371 316 400Q312 429 310 451ZM361 127H140L72 0H-45L262 541H383L490 0H384ZM494 594H399L346 657L270 594H164L302 712H401Z" glyph-name="acircumflex.small" horiz-adv-x="539" unicode="&#63458;" /><glyph d="M395 566H298L429 678H566Z" glyph-name="acute" horiz-adv-x="600" unicode="&#180;" /><glyph d="M400 734H303L434 846H571Z" glyph-name="acute.cap" horiz-adv-x="600" unicode="&#58402;" /><glyph d="M385 598H288L419 710H556Z" glyph-name="acute.small" horiz-adv-x="600" unicode="&#63412;" /><glyph d="M487 580H379L397 675H504ZM279 580H172L189 675H297ZM363 232Q337 234 314 235Q291 236 280 236Q247 236 213.5 231Q180 226 157 203Q143 189 137 171Q131 153 131 135Q131 121 135.5 111Q140 101 146 95Q157 84 173.5 80.5Q190 77 210 77Q259 77 292 97.5Q325 118 346 143ZM288 311Q303 311 327 310Q351 309 377 307L387 363Q391 386 390 401Q389 416 377.5 425Q366 434 342 437.5Q318 441 276 441Q249 441 207 437Q165 433 114 422L130 506Q152 511 177.5 514.5Q203 518 228 520Q253 522 274.5 523Q296 524 311 524Q367 524 405.5 516Q444 508 466 488.5Q488 469 494.5 437Q501 405 492 356L428 0H354L347 53H346Q313 22 269 6Q225 -10 178 -10Q139 -10 107.5 0Q76 10 53 33Q36 49 28 72.5Q20 96 20 119Q20 159 32 193Q44 227 70 253Q89 272 115.5 283.5Q142 295 171 301Q200 307 230.5 309Q261 311 288 311Z" glyph-name="adieresis" horiz-adv-x="546" unicode="&#228;" /><glyph d="M40 173Q40 206 46 243.5Q52 281 63.5 318Q75 355 93 389Q111 423 137 449Q176 489 229 505Q282 521 338 521Q363 521 385.5 516Q408 511 426 504Q444 497 457.5 489Q471 481 478 475H480L500 510H569L477 0H401L397 58H396Q358 26 317 7.5Q276 -11 225 -11Q178 -11 143.5 3.5Q109 18 86 40Q64 61 52 95Q40 129 40 173ZM441 400Q433 408 405.5 420.5Q378 433 336 433Q301 433 272.5 423.5Q244 414 223 393Q206 376 193.5 351.5Q181 327 173 298Q165 269 160.5 238.5Q156 208 156 181Q156 152 162.5 133Q169 114 182 101Q207 77 255 77Q277 77 297.5 84.5Q318 92 336.5 103.5Q355 115 370 128.5Q385 142 396 154ZM518 580H410L428 675H535ZM310 580H203L220 675H328Z" glyph-name="adieresis.hist" horiz-adv-x="603" unicode="&#59159;" /><glyph d="M308 451Q300 430 287.5 402.5Q275 375 262 351L185 207H347L323 351Q320 371 316 400Q312 429 310 451ZM361 127H140L72 0H-45L262 541H383L490 0H384ZM491 612H383L401 707H508ZM283 612H176L193 707H301Z" glyph-name="adieresis.small" horiz-adv-x="539" unicode="&#63460;" /><glyph d="M503 579H393L411 676H521ZM295 579H186L204 676H313ZM547 741H201L215 820H561ZM363 232Q337 234 314 235Q291 236 280 236Q247 236 213.5 231Q180 226 157 203Q143 189 137 171Q131 153 131 135Q131 121 135.5 111Q140 101 146 95Q157 84 173.5 80.5Q190 77 210 77Q259 77 292 97.5Q325 118 346 143ZM288 311Q303 311 327 310Q351 309 377 307L387 363Q391 386 390 401Q389 416 377.5 425Q366 434 342 437.5Q318 441 276 441Q249 441 207 437Q165 433 114 422L130 506Q152 511 177.5 514.5Q203 518 228 520Q253 522 274.5 523Q296 524 311 524Q367 524 405.5 516Q444 508 466 488.5Q488 469 494.5 437Q501 405 492 356L428 0H354L347 53H346Q313 22 269 6Q225 -10 178 -10Q139 -10 107.5 0Q76 10 53 33Q36 49 28 72.5Q20 96 20 119Q20 159 32 193Q44 227 70 253Q89 272 115.5 283.5Q142 295 171 301Q200 307 230.5 309Q261 311 288 311Z" glyph-name="adieresismacron" horiz-adv-x="546" unicode="&#479;" /><glyph d="M521 579H412L430 676H539ZM314 579H204L222 676H332ZM566 741H220L234 820H580ZM40 173Q40 206 46 243.5Q52 281 63.5 318Q75 355 93 389Q111 423 137 449Q176 489 229 505Q282 521 338 521Q363 521 385.5 516Q408 511 426 504Q444 497 457.5 489Q471 481 478 475H480L500 510H569L477 0H401L397 58H396Q358 26 317 7.5Q276 -11 225 -11Q178 -11 143.5 3.5Q109 18 86 40Q64 61 52 95Q40 129 40 173ZM441 400Q433 408 405.5 420.5Q378 433 336 433Q301 433 272.5 423.5Q244 414 223 393Q206 376 193.5 351.5Q181 327 173 298Q165 269 160.5 238.5Q156 208 156 181Q156 152 162.5 133Q169 114 182 101Q207 77 255 77Q277 77 297.5 84.5Q318 92 336.5 103.5Q355 115 370 128.5Q385 142 396 154Z" glyph-name="adieresismacron.hist" horiz-adv-x="603" unicode="&#59160;" /><glyph d="M308 451Q300 430 287.5 402.5Q275 375 262 351L185 207H347L323 351Q320 371 316 400Q312 429 310 451ZM361 127H140L72 0H-45L262 541H383L490 0H384ZM491 611H384L401 706H509ZM284 611H176L194 706H301ZM540 774H195L209 853H555Z" glyph-name="adieresismacron.small" horiz-adv-x="539" unicode="&#59161;" /><glyph d="M384 581H272L290 677H402ZM363 232Q337 234 314 235Q291 236 280 236Q247 236 213.5 231Q180 226 157 203Q143 189 137 171Q131 153 131 135Q131 121 135.5 111Q140 101 146 95Q157 84 173.5 80.5Q190 77 210 77Q259 77 292 97.5Q325 118 346 143ZM288 311Q303 311 327 310Q351 309 377 307L387 363Q391 386 390 401Q389 416 377.5 425Q366 434 342 437.5Q318 441 276 441Q249 441 207 437Q165 433 114 422L130 506Q152 511 177.5 514.5Q203 518 228 520Q253 522 274.5 523Q296 524 311 524Q367 524 405.5 516Q444 508 466 488.5Q488 469 494.5 437Q501 405 492 356L428 0H354L347 53H346Q313 22 269 6Q225 -10 178 -10Q139 -10 107.5 0Q76 10 53 33Q36 49 28 72.5Q20 96 20 119Q20 159 32 193Q44 227 70 253Q89 272 115.5 283.5Q142 295 171 301Q200 307 230.5 309Q261 311 288 311Z" glyph-name="adotabove" horiz-adv-x="546" unicode="&#551;" /><glyph d="M40 173Q40 206 46 243.5Q52 281 63.5 318Q75 355 93 389Q111 423 137 449Q176 489 229 505Q282 521 338 521Q363 521 385.5 516Q408 511 426 504Q444 497 457.5 489Q471 481 478 475H480L500 510H569L477 0H401L397 58H396Q358 26 317 7.5Q276 -11 225 -11Q178 -11 143.5 3.5Q109 18 86 40Q64 61 52 95Q40 129 40 173ZM441 400Q433 408 405.5 420.5Q378 433 336 433Q301 433 272.5 423.5Q244 414 223 393Q206 376 193.5 351.5Q181 327 173 298Q165 269 160.5 238.5Q156 208 156 181Q156 152 162.5 133Q169 114 182 101Q207 77 255 77Q277 77 297.5 84.5Q318 92 336.5 103.5Q355 115 370 128.5Q385 142 396 154ZM414 581H302L320 677H432Z" glyph-name="adotabove.hist" horiz-adv-x="603" unicode="&#59168;" /><glyph d="M388 613H276L294 709H406ZM308 451Q300 430 287.5 402.5Q275 375 262 351L185 207H347L323 351Q320 371 316 400Q312 429 310 451ZM361 127H140L72 0H-45L262 541H383L490 0H384Z" glyph-name="adotabove.small" horiz-adv-x="539" unicode="&#59169;" /><glyph d="M95 678H212L300 565H223ZM258 678H375L463 565H386ZM363 232Q337 234 314 235Q291 236 280 236Q247 236 213.5 231Q180 226 157 203Q143 189 137 171Q131 153 131 135Q131 121 135.5 111Q140 101 146 95Q157 84 173.5 80.5Q190 77 210 77Q259 77 292 97.5Q325 118 346 143ZM288 311Q303 311 327 310Q351 309 377 307L387 363Q391 386 390 401Q389 416 377.5 425Q366 434 342 437.5Q318 441 276 441Q249 441 207 437Q165 433 114 422L130 506Q152 511 177.5 514.5Q203 518 228 520Q253 522 274.5 523Q296 524 311 524Q367 524 405.5 516Q444 508 466 488.5Q488 469 494.5 437Q501 405 492 356L428 0H354L347 53H346Q313 22 269 6Q225 -10 178 -10Q139 -10 107.5 0Q76 10 53 33Q36 49 28 72.5Q20 96 20 119Q20 159 32 193Q44 227 70 253Q89 272 115.5 283.5Q142 295 171 301Q200 307 230.5 309Q261 311 288 311Z" glyph-name="adoublegrave" horiz-adv-x="546" unicode="&#59170;" /><glyph d="M40 173Q40 206 46 243.5Q52 281 63.5 318Q75 355 93 389Q111 423 137 449Q176 489 229 505Q282 521 338 521Q363 521 385.5 516Q408 511 426 504Q444 497 457.5 489Q471 481 478 475H480L500 510H569L477 0H401L397 58H396Q358 26 317 7.5Q276 -11 225 -11Q178 -11 143.5 3.5Q109 18 86 40Q64 61 52 95Q40 129 40 173ZM441 400Q433 408 405.5 420.5Q378 433 336 433Q301 433 272.5 423.5Q244 414 223 393Q206 376 193.5 351.5Q181 327 173 298Q165 269 160.5 238.5Q156 208 156 181Q156 152 162.5 133Q169 114 182 101Q207 77 255 77Q277 77 297.5 84.5Q318 92 336.5 103.5Q355 115 370 128.5Q385 142 396 154ZM139 678H256L344 565H267ZM302 678H419L507 565H430Z" glyph-name="adoublegrave.hist" horiz-adv-x="603" unicode="&#59171;" /><glyph d="M88 710H205L293 597H216ZM251 710H368L456 597H379ZM308 451Q300 430 287.5 402.5Q275 375 262 351L185 207H347L323 351Q320 371 316 400Q312 429 310 451ZM361 127H140L72 0H-45L262 541H383L490 0H384Z" glyph-name="adoublegrave.small" horiz-adv-x="539" unicode="&#59172;" /><glyph d="M641 441Q618 441 591 434Q564 427 543 406Q527 390 515.5 366.5Q504 343 495 311H725Q728 324 730.5 338Q733 352 733 367Q733 380 730 394Q727 408 716 419Q705 431 685 436Q665 441 641 441ZM281 236Q248 236 214.5 231Q181 226 158 203Q144 189 138 171Q132 153 132 135Q132 108 147 95Q158 84 174.5 80.5Q191 77 211 77Q256 77 294.5 97.5Q333 118 360 150Q359 154 359 162Q359 170 359 174Q359 188 360 202.5Q361 217 363 231Q337 234 314 235Q291 236 281 236ZM482 468Q519 500 561.5 512Q604 524 654 524Q704 524 739.5 509.5Q775 495 798 473Q835 437 835 367Q835 332 828 298.5Q821 265 810 232H478Q476 216 474.5 202Q473 188 473 175Q473 155 478 135.5Q483 116 498 101Q514 84 540 78Q566 72 607 72Q622 72 641 73Q660 74 681 76.5Q702 79 724 83.5Q746 88 766 94L751 11Q731 4 708 -0.5Q685 -5 661 -8Q637 -11 613.5 -12.5Q590 -14 571 -14Q512 -14 471 1.5Q430 17 405 42Q399 47 394 54Q389 61 384 69Q362 46 335.5 31Q309 16 281 7Q253 -2 226.5 -6Q200 -10 179 -10Q140 -10 108.5 0Q77 10 54 33Q37 49 29 73.5Q21 98 21 121Q21 203 71 253Q90 272 116.5 283.5Q143 295 172 301Q201 307 231.5 309Q262 311 289 311Q304 311 328 310Q352 309 378 307L388 363Q392 386 391 401Q390 416 378.5 425Q367 434 343 437.5Q319 441 277 441Q250 441 208 437Q166 433 115 422L131 506Q153 511 178.5 514.5Q204 518 229 520Q254 522 275.5 523Q297 524 312 524Q379 524 421 511.5Q463 499 482 468Z" glyph-name="ae" horiz-adv-x="869" unicode="&#230;" /><glyph d="M219 207H387Q390 224 395.5 255Q401 286 407.5 320Q414 354 420 385Q426 416 429 433H426Q406 409 389.5 389Q373 369 348 343ZM722 0H349L372 127H144L23 0H-120L411 541H816L801 460H541L514 318H739L724 234H499L471 83H737Z" glyph-name="ae.small" horiz-adv-x="806" unicode="&#63462;" /><glyph d="M641 441Q618 441 591 434Q564 427 543 406Q527 390 515.5 366.5Q504 343 495 311H725Q728 324 730.5 338Q733 352 733 367Q733 380 730 394Q727 408 716 419Q705 431 685 436Q665 441 641 441ZM281 236Q248 236 214.5 231Q181 226 158 203Q144 189 138 171Q132 153 132 135Q132 108 147 95Q158 84 174.5 80.5Q191 77 211 77Q256 77 294.5 97.5Q333 118 360 150Q359 154 359 162Q359 170 359 174Q359 188 360 202.5Q361 217 363 231Q337 234 314 235Q291 236 281 236ZM482 468Q519 500 561.5 512Q604 524 654 524Q704 524 739.5 509.5Q775 495 798 473Q835 437 835 367Q835 332 828 298.5Q821 265 810 232H478Q476 216 474.5 202Q473 188 473 175Q473 155 478 135.5Q483 116 498 101Q514 84 540 78Q566 72 607 72Q622 72 641 73Q660 74 681 76.5Q702 79 724 83.5Q746 88 766 94L751 11Q731 4 708 -0.5Q685 -5 661 -8Q637 -11 613.5 -12.5Q590 -14 571 -14Q512 -14 471 1.5Q430 17 405 42Q399 47 394 54Q389 61 384 69Q362 46 335.5 31Q309 16 281 7Q253 -2 226.5 -6Q200 -10 179 -10Q140 -10 108.5 0Q77 10 54 33Q37 49 29 73.5Q21 98 21 121Q21 203 71 253Q90 272 116.5 283.5Q143 295 172 301Q201 307 231.5 309Q262 311 289 311Q304 311 328 310Q352 309 378 307L388 363Q392 386 391 401Q390 416 378.5 425Q367 434 343 437.5Q319 441 277 441Q250 441 208 437Q166 433 115 422L131 506Q153 511 178.5 514.5Q204 518 229 520Q254 522 275.5 523Q297 524 312 524Q379 524 421 511.5Q463 499 482 468ZM544 569H447L578 681H715Z" glyph-name="aeacute" horiz-adv-x="869" unicode="&#509;" /><glyph d="M587 598H490L621 710H758ZM219 207H387Q390 224 395.5 255Q401 286 407.5 320Q414 354 420 385Q426 416 429 433H426Q406 409 389.5 389Q373 369 348 343ZM722 0H349L372 127H144L23 0H-120L411 541H816L801 460H541L514 318H739L724 234H499L471 83H737Z" glyph-name="aeacute.small" horiz-adv-x="806" unicode="&#63012;" /><glyph d="M683 594H338L352 673H698ZM641 441Q618 441 591 434Q564 427 543 406Q527 390 515.5 366.5Q504 343 495 311H725Q728 324 730.5 338Q733 352 733 367Q733 380 730 394Q727 408 716 419Q705 431 685 436Q665 441 641 441ZM281 236Q248 236 214.5 231Q181 226 158 203Q144 189 138 171Q132 153 132 135Q132 108 147 95Q158 84 174.5 80.5Q191 77 211 77Q256 77 294.5 97.5Q333 118 360 150Q359 154 359 162Q359 170 359 174Q359 188 360 202.5Q361 217 363 231Q337 234 314 235Q291 236 281 236ZM482 468Q519 500 561.5 512Q604 524 654 524Q704 524 739.5 509.5Q775 495 798 473Q835 437 835 367Q835 332 828 298.5Q821 265 810 232H478Q476 216 474.5 202Q473 188 473 175Q473 155 478 135.5Q483 116 498 101Q514 84 540 78Q566 72 607 72Q622 72 641 73Q660 74 681 76.5Q702 79 724 83.5Q746 88 766 94L751 11Q731 4 708 -0.5Q685 -5 661 -8Q637 -11 613.5 -12.5Q590 -14 571 -14Q512 -14 471 1.5Q430 17 405 42Q399 47 394 54Q389 61 384 69Q362 46 335.5 31Q309 16 281 7Q253 -2 226.5 -6Q200 -10 179 -10Q140 -10 108.5 0Q77 10 54 33Q37 49 29 73.5Q21 98 21 121Q21 203 71 253Q90 272 116.5 283.5Q143 295 172 301Q201 307 231.5 309Q262 311 289 311Q304 311 328 310Q352 309 378 307L388 363Q392 386 391 401Q390 416 378.5 425Q367 434 343 437.5Q319 441 277 441Q250 441 208 437Q166 433 115 422L131 506Q153 511 178.5 514.5Q204 518 229 520Q254 522 275.5 523Q297 524 312 524Q379 524 421 511.5Q463 499 482 468Z" glyph-name="aemacron" horiz-adv-x="869" unicode="&#483;" /><glyph d="M694 626H349L363 705H709ZM219 207H387Q390 224 395.5 255Q401 286 407.5 320Q414 354 420 385Q426 416 429 433H426Q406 409 389.5 389Q373 369 348 343ZM722 0H349L372 127H144L23 0H-120L411 541H816L801 460H541L514 318H739L724 234H499L471 83H737Z" glyph-name="aemacron.small" horiz-adv-x="806" unicode="&#59173;" /><glyph d="M235 358Q252 379 269.5 407.5Q287 436 301 466.5Q315 497 324 528.5Q333 560 333 587Q333 595 330 602Q327 609 316 609Q306 609 297 600Q286 589 276 561Q266 533 257 482ZM272 1Q255 -4 233.5 -6.5Q212 -9 197 -9Q169 -9 146.5 -3Q124 3 109.5 18Q95 33 90 59.5Q85 86 92 127L98 159Q87 154 70 146.5Q53 139 36 133L53 225Q66 230 84 239Q102 248 115 258L159 492Q170 554 187.5 593Q205 632 228 655Q250 677 274.5 684.5Q299 692 327 692Q373 692 400.5 662.5Q428 633 428 587Q428 537 408.5 487Q389 437 358 390.5Q327 344 289 302.5Q251 261 214 228L198 141Q193 112 197 94.5Q201 77 229 77Q240 77 256 79Q272 81 288 86Z" glyph-name="afii61289" horiz-adv-x="415" unicode="&#8467;" /><glyph d="M175 678H306L395 566H304ZM363 232Q337 234 314 235Q291 236 280 236Q247 236 213.5 231Q180 226 157 203Q143 189 137 171Q131 153 131 135Q131 121 135.5 111Q140 101 146 95Q157 84 173.5 80.5Q190 77 210 77Q259 77 292 97.5Q325 118 346 143ZM288 311Q303 311 327 310Q351 309 377 307L387 363Q391 386 390 401Q389 416 377.5 425Q366 434 342 437.5Q318 441 276 441Q249 441 207 437Q165 433 114 422L130 506Q152 511 177.5 514.5Q203 518 228 520Q253 522 274.5 523Q296 524 311 524Q367 524 405.5 516Q444 508 466 488.5Q488 469 494.5 437Q501 405 492 356L428 0H354L347 53H346Q313 22 269 6Q225 -10 178 -10Q139 -10 107.5 0Q76 10 53 33Q36 49 28 72.5Q20 96 20 119Q20 159 32 193Q44 227 70 253Q89 272 115.5 283.5Q142 295 171 301Q200 307 230.5 309Q261 311 288 311Z" glyph-name="agrave" horiz-adv-x="546" unicode="&#224;" /><glyph d="M40 173Q40 206 46 243.5Q52 281 63.5 318Q75 355 93 389Q111 423 137 449Q176 489 229 505Q282 521 338 521Q363 521 385.5 516Q408 511 426 504Q444 497 457.5 489Q471 481 478 475H480L500 510H569L477 0H401L397 58H396Q358 26 317 7.5Q276 -11 225 -11Q178 -11 143.5 3.5Q109 18 86 40Q64 61 52 95Q40 129 40 173ZM441 400Q433 408 405.5 420.5Q378 433 336 433Q301 433 272.5 423.5Q244 414 223 393Q206 376 193.5 351.5Q181 327 173 298Q165 269 160.5 238.5Q156 208 156 181Q156 152 162.5 133Q169 114 182 101Q207 77 255 77Q277 77 297.5 84.5Q318 92 336.5 103.5Q355 115 370 128.5Q385 142 396 154ZM186 678H317L406 566H315Z" glyph-name="agrave.hist" horiz-adv-x="603" unicode="&#59174;" /><glyph d="M153 710H284L373 598H282ZM308 451Q300 430 287.5 402.5Q275 375 262 351L185 207H347L323 351Q320 371 316 400Q312 429 310 451ZM361 127H140L72 0H-45L262 541H383L490 0H384Z" glyph-name="agrave.small" horiz-adv-x="539" unicode="&#63456;" /><glyph d="M339 620Q316 620 295.5 614.5Q275 609 260 594Q254 588 249 581Q244 574 240 565H149Q156 586 165 602.5Q174 619 188 633Q217 662 258 674.5Q299 687 347 687Q389 687 421 677.5Q453 668 473 648Q488 633 497.5 613Q507 593 506 565H418Q418 577 414 585.5Q410 594 403 601Q392 612 375.5 616Q359 620 339 620ZM363 232Q337 234 314 235Q291 236 280 236Q247 236 213.5 231Q180 226 157 203Q143 189 137 171Q131 153 131 135Q131 121 135.5 111Q140 101 146 95Q157 84 173.5 80.5Q190 77 210 77Q259 77 292 97.5Q325 118 346 143ZM288 311Q303 311 327 310Q351 309 377 307L387 363Q391 386 390 401Q389 416 377.5 425Q366 434 342 437.5Q318 441 276 441Q249 441 207 437Q165 433 114 422L130 506Q152 511 177.5 514.5Q203 518 228 520Q253 522 274.5 523Q296 524 311 524Q367 524 405.5 516Q444 508 466 488.5Q488 469 494.5 437Q501 405 492 356L428 0H354L347 53H346Q313 22 269 6Q225 -10 178 -10Q139 -10 107.5 0Q76 10 53 33Q36 49 28 72.5Q20 96 20 119Q20 159 32 193Q44 227 70 253Q89 272 115.5 283.5Q142 295 171 301Q200 307 230.5 309Q261 311 288 311Z" glyph-name="ainvertedbreve" horiz-adv-x="546" unicode="&#515;" /><glyph d="M40 173Q40 206 46 243.5Q52 281 63.5 318Q75 355 93 389Q111 423 137 449Q176 489 229 505Q282 521 338 521Q363 521 385.5 516Q408 511 426 504Q444 497 457.5 489Q471 481 478 475H480L500 510H569L477 0H401L397 58H396Q358 26 317 7.5Q276 -11 225 -11Q178 -11 143.5 3.5Q109 18 86 40Q64 61 52 95Q40 129 40 173ZM441 400Q433 408 405.5 420.5Q378 433 336 433Q301 433 272.5 423.5Q244 414 223 393Q206 376 193.5 351.5Q181 327 173 298Q165 269 160.5 238.5Q156 208 156 181Q156 152 162.5 133Q169 114 182 101Q207 77 255 77Q277 77 297.5 84.5Q318 92 336.5 103.5Q355 115 370 128.5Q385 142 396 154ZM366 620Q343 620 322.5 614.5Q302 609 287 594Q281 588 276 581Q271 574 267 565H176Q183 586 192 602.5Q201 619 215 633Q244 662 285 674.5Q326 687 374 687Q416 687 448 677.5Q480 668 500 648Q515 633 524.5 613Q534 593 533 565H445Q445 577 441 585.5Q437 594 430 601Q419 612 402.5 616Q386 620 366 620Z" glyph-name="ainvertedbreve.hist" horiz-adv-x="603" unicode="&#59175;" /><glyph d="M308 451Q300 430 287.5 402.5Q275 375 262 351L185 207H347L323 351Q320 371 316 400Q312 429 310 451ZM361 127H140L72 0H-45L262 541H383L490 0H384ZM341 652Q318 652 297.5 646.5Q277 641 262 626Q256 620 251 613Q246 606 242 597H151Q158 618 167 634.5Q176 651 190 665Q219 694 260 706.5Q301 719 349 719Q391 719 423 709.5Q455 700 475 680Q490 665 499.5 645Q509 625 508 597H420Q420 609 416 617.5Q412 626 405 633Q394 644 377.5 648Q361 652 341 652Z" glyph-name="ainvertedbreve.small" horiz-adv-x="539" unicode="&#59176;" /><glyph d="M235 -36Q251 -37 269.5 -40Q288 -43 304 -50Q320 -57 331 -69Q342 -81 342 -100Q342 -126 327 -141.5Q312 -157 290 -165.5Q268 -174 243.5 -176.5Q219 -179 201 -179Q184 -179 162.5 -177Q141 -175 116 -167L128 -106Q148 -114 165.5 -116Q183 -118 197 -118Q204 -118 213 -117.5Q222 -117 230 -115Q238 -113 243.5 -108Q249 -103 249 -95Q249 -89 244.5 -85.5Q240 -82 233 -79.5Q226 -77 219 -76Q212 -75 208 -75Z" glyph-name="altcedilla" horiz-adv-x="600" unicode="&#58390;" /><glyph d="M507 594H162L176 673H522ZM363 232Q337 234 314 235Q291 236 280 236Q247 236 213.5 231Q180 226 157 203Q143 189 137 171Q131 153 131 135Q131 121 135.5 111Q140 101 146 95Q157 84 173.5 80.5Q190 77 210 77Q259 77 292 97.5Q325 118 346 143ZM288 311Q303 311 327 310Q351 309 377 307L387 363Q391 386 390 401Q389 416 377.5 425Q366 434 342 437.5Q318 441 276 441Q249 441 207 437Q165 433 114 422L130 506Q152 511 177.5 514.5Q203 518 228 520Q253 522 274.5 523Q296 524 311 524Q367 524 405.5 516Q444 508 466 488.5Q488 469 494.5 437Q501 405 492 356L428 0H354L347 53H346Q313 22 269 6Q225 -10 178 -10Q139 -10 107.5 0Q76 10 53 33Q36 49 28 72.5Q20 96 20 119Q20 159 32 193Q44 227 70 253Q89 272 115.5 283.5Q142 295 171 301Q200 307 230.5 309Q261 311 288 311Z" glyph-name="amacron" horiz-adv-x="546" unicode="&#257;" /><glyph d="M40 173Q40 206 46 243.5Q52 281 63.5 318Q75 355 93 389Q111 423 137 449Q176 489 229 505Q282 521 338 521Q363 521 385.5 516Q408 511 426 504Q444 497 457.5 489Q471 481 478 475H480L500 510H569L477 0H401L397 58H396Q358 26 317 7.5Q276 -11 225 -11Q178 -11 143.5 3.5Q109 18 86 40Q64 61 52 95Q40 129 40 173ZM441 400Q433 408 405.5 420.5Q378 433 336 433Q301 433 272.5 423.5Q244 414 223 393Q206 376 193.5 351.5Q181 327 173 298Q165 269 160.5 238.5Q156 208 156 181Q156 152 162.5 133Q169 114 182 101Q207 77 255 77Q277 77 297.5 84.5Q318 92 336.5 103.5Q355 115 370 128.5Q385 142 396 154ZM533 594H188L202 673H548Z" glyph-name="amacron.hist" horiz-adv-x="603" unicode="&#59177;" /><glyph d="M308 451Q300 430 287.5 402.5Q275 375 262 351L185 207H347L323 351Q320 371 316 400Q312 429 310 451ZM361 127H140L72 0H-45L262 541H383L490 0H384ZM508 626H163L177 705H523Z" glyph-name="amacron.small" horiz-adv-x="539" unicode="&#63041;" /><glyph d="M199 357Q184 366 169 380Q149 400 137.5 427Q126 454 126 486Q126 527 141.5 564.5Q157 602 184 629Q220 665 273 678.5Q326 692 390 692Q403 692 420.5 691Q438 690 456.5 688Q475 686 492.5 683Q510 680 522 677L505 590Q478 598 448.5 600.5Q419 603 397 603Q350 603 321.5 593Q293 583 276 565Q261 551 253 529Q245 507 245 481Q245 465 250.5 448Q256 431 270 417Q298 389 360 389H488L532 484H601L583 389H707L691 302H567L540 154Q532 109 546.5 93.5Q561 78 609 78Q635 78 670 86L655 3Q630 -5 606.5 -7Q583 -9 560 -9Q513 -9 481 5.5Q449 20 439 52H437Q420 37 398 25Q376 13 351 4.5Q326 -4 299 -9Q272 -14 246 -14Q201 -14 160 -0.5Q119 13 93 39Q75 58 62 86.5Q49 115 49 149Q49 189 63 226.5Q77 264 110 297Q131 319 153.5 333Q176 347 198 356ZM343 302Q308 302 272.5 292.5Q237 283 209 255Q192 238 181 214Q170 190 170 161Q170 144 174.5 130Q179 116 190 105Q215 80 277 80Q320 80 362.5 98.5Q405 117 433 150L461 302Z" glyph-name="ampersand" horiz-adv-x="737" unicode="&amp;" /><glyph d="M-37 0 249 510H382L479 0H371L327 250Q319 301 312.5 341Q306 381 301 417H299Q282 379 262 340Q242 301 215 250L79 0Z" glyph-name="anocross" horiz-adv-x="535" unicode="&#59184;" /><glyph d="M74 0H-45L262 541H383L490 0H383L334 281Q331 299 327.5 320.5Q324 342 320.5 363.5Q317 385 314 405.5Q311 426 309 444H307Q290 408 268 363Q246 318 226 281Z" glyph-name="anocross.small" horiz-adv-x="539" unicode="&#59186;" /><glyph d="M363 232Q337 234 314 235Q291 236 280 236Q247 236 213.5 231Q180 226 157 203Q143 189 137 171Q131 153 131 135Q131 121 135.5 111Q140 101 146 95Q157 84 173.5 80.5Q190 77 210 77Q259 77 292 97.5Q325 118 346 143ZM288 311Q303 311 327 310Q351 309 377 307L387 363Q391 386 390 401Q389 416 377.5 425Q366 434 342 437.5Q318 441 276 441Q249 441 207 437Q165 433 114 422L130 506Q152 511 177.5 514.5Q203 518 228 520Q253 522 274.5 523Q296 524 311 524Q367 524 405.5 516Q444 508 466 488.5Q488 469 494.5 437Q501 405 492 356L428 0Q400 -13 383 -32Q372 -43 362.5 -57Q353 -71 353 -88Q353 -101 360 -107Q367 -116 390 -116Q405 -116 421 -114Q437 -112 457 -106L445 -167Q426 -175 401.5 -177Q377 -179 360 -179Q331 -179 311.5 -173Q292 -167 281 -156Q264 -139 264 -111Q264 -88 275.5 -68Q287 -48 304 -31Q325 -9 353 7L347 53H346Q313 22 269 6Q225 -10 178 -10Q139 -10 107.5 0Q76 10 53 33Q36 49 28 72.5Q20 96 20 119Q20 159 32 193Q44 227 70 253Q89 272 115.5 283.5Q142 295 171 301Q200 307 230.5 309Q261 311 288 311Z" glyph-name="aogonek" horiz-adv-x="546" unicode="&#261;" /><glyph d="M441 400Q433 408 405.5 420.5Q378 433 336 433Q301 433 272.5 423.5Q244 414 223 393Q206 376 193.5 351.5Q181 327 173 298Q165 269 160.5 238.5Q156 208 156 181Q156 152 162.5 133Q169 114 182 101Q207 77 255 77Q277 77 297.5 84.5Q318 92 336.5 103.5Q355 115 370 128.5Q385 142 396 154ZM40 173Q40 206 46 243.5Q52 281 63.5 318Q75 355 93 389Q111 423 137 449Q176 489 229 505Q282 521 338 521Q363 521 385.5 516Q408 511 426 504Q444 497 457.5 489Q471 481 478 475H480L500 510H569L477 0H476Q462 -7 451 -15Q440 -23 431 -32Q420 -43 410.5 -57Q401 -71 401 -88Q401 -100 408 -107Q417 -116 438 -116Q454 -116 469.5 -114Q485 -112 505 -106L494 -167Q474 -175 449.5 -177Q425 -179 408 -179Q380 -179 360.5 -173Q341 -167 330 -156Q321 -148 316.5 -136Q312 -124 312 -111Q312 -88 323.5 -68Q335 -48 352 -31Q362 -21 374 -11.5Q386 -2 400 6L397 58H396Q358 26 317 7.5Q276 -11 225 -11Q178 -11 143.5 3.5Q109 18 86 40Q64 61 52 95Q40 129 40 173Z" glyph-name="aogonek.hist" horiz-adv-x="603" unicode="&#59187;" /><glyph d="M308 451Q300 430 287.5 402.5Q275 375 262 351L185 207H347L323 351Q320 371 316 400Q312 429 310 451ZM361 127H140L72 0H-45L262 541H383L490 0H489Q475 -7 463.5 -15.5Q452 -24 442 -34Q431 -45 422.5 -59.5Q414 -74 414 -88Q414 -103 425 -109.5Q436 -116 451 -116Q467 -116 482.5 -114Q498 -112 518 -106L507 -167Q487 -175 462.5 -177Q438 -179 421 -179Q405 -179 388 -176Q371 -173 357 -165Q343 -157 334 -144Q325 -131 325 -111Q325 -88 336.5 -68Q348 -48 366 -30Q374 -22 384.5 -14.5Q395 -7 406 0H384Z" glyph-name="aogonek.small" horiz-adv-x="539" unicode="&#63042;" /><glyph d="M417 189Q453 189 495 200.5Q537 212 578 232L561 141Q529 125 488 112.5Q447 100 401 100Q372 100 344.5 107Q317 114 290 122.5Q263 131 236 138Q209 145 182 145Q147 145 105.5 133.5Q64 122 23 102L39 192Q71 208 112.5 221Q154 234 199 234Q227 234 254.5 227Q282 220 309 211.5Q336 203 362.5 196Q389 189 417 189ZM455 397Q491 397 533 408.5Q575 420 617 440L600 349Q568 333 527 320.5Q486 308 440 308Q411 308 383.5 315Q356 322 329 331Q302 340 275 347Q248 354 221 354Q186 354 144.5 342.5Q103 331 61 311L78 401Q109 417 150.5 430Q192 443 237 443Q265 443 292.5 436Q320 429 347 420Q374 411 401 404Q428 397 455 397Z" glyph-name="approxequal" horiz-adv-x="635" unicode="&#8776;" /><glyph d="M330 560Q283 560 261 582Q253 589 249.5 599.5Q246 610 246 622Q246 639 251.5 656.5Q257 674 270 687Q285 703 307 708Q329 713 357 713Q405 713 427 691Q442 677 442 651Q442 634 436.5 616.5Q431 599 418 586Q403 571 381 565.5Q359 560 330 560ZM339 605Q360 605 371 616Q382 627 382 646Q382 656 376 662Q370 669 351 669Q329 669 319 659Q314 654 311 645Q308 636 308 628Q308 617 313 612Q321 605 339 605ZM363 232Q337 234 314 235Q291 236 280 236Q247 236 213.5 231Q180 226 157 203Q143 189 137 171Q131 153 131 135Q131 121 135.5 111Q140 101 146 95Q157 84 173.5 80.5Q190 77 210 77Q259 77 292 97.5Q325 118 346 143ZM288 311Q303 311 327 310Q351 309 377 307L387 363Q391 386 390 401Q389 416 377.5 425Q366 434 342 437.5Q318 441 276 441Q249 441 207 437Q165 433 114 422L130 506Q152 511 177.5 514.5Q203 518 228 520Q253 522 274.5 523Q296 524 311 524Q367 524 405.5 516Q444 508 466 488.5Q488 469 494.5 437Q501 405 492 356L428 0H354L347 53H346Q313 22 269 6Q225 -10 178 -10Q139 -10 107.5 0Q76 10 53 33Q36 49 28 72.5Q20 96 20 119Q20 159 32 193Q44 227 70 253Q89 272 115.5 283.5Q142 295 171 301Q200 307 230.5 309Q261 311 288 311Z" glyph-name="aring" horiz-adv-x="546" unicode="&#229;" /><glyph d="M346 560Q298 560 276 582Q261 597 261 622Q261 639 266.5 656.5Q272 674 285 687Q301 703 322.5 708Q344 713 373 713Q421 713 443 691Q458 676 458 651Q458 634 452.5 616.5Q447 599 434 586Q418 571 396 565.5Q374 560 346 560ZM354 605Q376 605 386 616Q397 627 397 646Q397 657 392 662Q387 667 381.5 668Q376 669 366 669Q345 669 334 659Q329 654 326 645Q323 636 323 628Q323 618 329 612Q336 605 354 605ZM40 173Q40 206 46 243.5Q52 281 63.5 318Q75 355 93 389Q111 423 137 449Q176 489 229 505Q282 521 338 521Q363 521 385.5 516Q408 511 426 504Q444 497 457.5 489Q471 481 478 475H480L500 510H569L477 0H401L397 58H396Q358 26 317 7.5Q276 -11 225 -11Q178 -11 143.5 3.5Q109 18 86 40Q64 61 52 95Q40 129 40 173ZM441 400Q433 408 405.5 420.5Q378 433 336 433Q301 433 272.5 423.5Q244 414 223 393Q206 376 193.5 351.5Q181 327 173 298Q165 269 160.5 238.5Q156 208 156 181Q156 152 162.5 133Q169 114 182 101Q207 77 255 77Q277 77 297.5 84.5Q318 92 336.5 103.5Q355 115 370 128.5Q385 142 396 154Z" glyph-name="aring.hist" horiz-adv-x="603" unicode="&#59188;" /><glyph d="M308 451Q300 430 287.5 402.5Q275 375 262 351L185 207H347L323 351Q320 371 316 400Q312 429 310 451ZM361 127H140L72 0H-45L262 541H383L490 0H384ZM326 592Q279 592 257 614Q249 621 245.5 631.5Q242 642 242 654Q242 671 247.5 688.5Q253 706 266 719Q281 735 303 740Q325 745 353 745Q401 745 423 723Q438 709 438 683Q438 666 432.5 648.5Q427 631 414 618Q399 603 377 597.5Q355 592 326 592ZM335 637Q356 637 367 648Q378 659 378 678Q378 688 372 694Q366 701 347 701Q325 701 315 691Q310 686 307 677Q304 668 304 660Q304 649 309 644Q317 637 335 637Z" glyph-name="aring.small" horiz-adv-x="539" unicode="&#63461;" /><glyph d="M391 616Q402 627 402 646Q402 656 396 662Q390 669 371 669Q349 669 339 659Q334 654 331 645Q328 636 328 628Q328 617 333 612Q341 605 359 605Q380 605 391 616ZM399 710Q427 709 445 692Q462 677 462 651Q462 634 456.5 616.5Q451 599 438 586Q423 571 401 565.5Q379 560 350 560Q303 560 281 582Q273 589 269.5 599.5Q266 610 266 622Q266 649 283 672Q296 691 318 710L416 789H494ZM363 232Q337 234 314 235Q291 236 280 236Q247 236 213.5 231Q180 226 157 203Q143 189 137 171Q131 153 131 135Q131 121 135.5 111Q140 101 146 95Q157 84 173.5 80.5Q190 77 210 77Q259 77 292 97.5Q325 118 346 143ZM288 311Q303 311 327 310Q351 309 377 307L387 363Q391 386 390 401Q389 416 377.5 425Q366 434 342 437.5Q318 441 276 441Q249 441 207 437Q165 433 114 422L130 506Q152 511 177.5 514.5Q203 518 228 520Q253 522 274.5 523Q296 524 311 524Q367 524 405.5 516Q444 508 466 488.5Q488 469 494.5 437Q501 405 492 356L428 0H354L347 53H346Q313 22 269 6Q225 -10 178 -10Q139 -10 107.5 0Q76 10 53 33Q36 49 28 72.5Q20 96 20 119Q20 159 32 193Q44 227 70 253Q89 272 115.5 283.5Q142 295 171 301Q200 307 230.5 309Q261 311 288 311Z" glyph-name="aringacute" horiz-adv-x="546" unicode="&#507;" /><glyph d="M410 616Q421 627 421 646Q421 657 416 662Q411 667 405.5 668Q400 669 390 669Q369 669 358 659Q353 654 350 645Q347 636 347 628Q347 618 353 612Q360 605 378 605Q400 605 410 616ZM419 710Q447 709 465 692Q473 684 477.5 674.5Q482 665 482 651Q482 634 476.5 616.5Q471 599 458 586Q442 571 420 565.5Q398 560 370 560Q322 560 300 582Q285 597 285 622Q285 635 290 648Q295 661 303 672Q309 682 318 691Q327 700 338 710L436 789H514ZM40 173Q40 206 46 243.5Q52 281 63.5 318Q75 355 93 389Q111 423 137 449Q176 489 229 505Q282 521 338 521Q363 521 385.5 516Q408 511 426 504Q444 497 457.5 489Q471 481 478 475H480L500 510H569L477 0H401L397 58H396Q358 26 317 7.5Q276 -11 225 -11Q178 -11 143.5 3.5Q109 18 86 40Q64 61 52 95Q40 129 40 173ZM441 400Q433 408 405.5 420.5Q378 433 336 433Q301 433 272.5 423.5Q244 414 223 393Q206 376 193.5 351.5Q181 327 173 298Q165 269 160.5 238.5Q156 208 156 181Q156 152 162.5 133Q169 114 182 101Q207 77 255 77Q277 77 297.5 84.5Q318 92 336.5 103.5Q355 115 370 128.5Q385 142 396 154Z" glyph-name="aringacute.hist" horiz-adv-x="603" unicode="&#59189;" /><glyph d="M308 451Q300 430 287.5 402.5Q275 375 262 351L185 207H347L323 351Q320 371 316 400Q312 429 310 451ZM361 127H140L72 0H-45L262 541H383L490 0H384ZM376 648Q387 659 387 678Q387 688 381 694Q375 701 356 701Q334 701 324 691Q319 686 316 677Q313 668 313 660Q313 649 318 644Q326 637 344 637Q365 637 376 648ZM384 742Q412 741 430 724Q447 709 447 683Q447 666 441.5 648.5Q436 631 423 618Q408 603 386 597.5Q364 592 335 592Q288 592 266 614Q258 621 254.5 631.5Q251 642 251 654Q251 681 268 704Q281 723 303 742L401 821H479Z" glyph-name="aringacute.small" horiz-adv-x="539" unicode="&#63013;" /><glyph d="M489 0 179 310V422L467 148V678H556V147L844 422V310L534 0Z" glyph-name="arrowdown" horiz-adv-x="990" unicode="&#8595;" /><glyph d="M178 368 488 678H600L326 390H856V301H325L600 13H488L178 323Z" glyph-name="arrowleft" horiz-adv-x="990" unicode="&#8592;" /><glyph d="M844 323 534 13H422L697 301H166V390H696L422 678H534L844 368Z" glyph-name="arrowright" horiz-adv-x="990" unicode="&#8594;" /><glyph d="M534 678 844 368V256L556 531V0H467V530L179 256V368L489 678Z" glyph-name="arrowup" horiz-adv-x="990" unicode="&#8593;" /><glyph d="M368 678 488 382H407L326 599L160 382H69L299 678Z" glyph-name="asciicircum" horiz-adv-x="511" unicode="^" /><glyph d="M450 366Q486 366 528 377.5Q570 389 612 409L595 320Q563 304 522 291.5Q481 279 435 279Q406 279 378.5 286Q351 293 324 301.5Q297 310 270 317Q243 324 216 324Q181 324 139.5 312.5Q98 301 56 281L73 369Q104 385 145.5 398Q187 411 232 411Q260 411 287.5 404Q315 397 342 388.5Q369 380 396 373Q423 366 450 366Z" glyph-name="asciitilde" horiz-adv-x="635" unicode="~" /><glyph d="M399 593 534 633 543 569 407 525 465 415 409 378 349 483 248 377 198 418 297 529 176 573 206 633 327 593 356 730H422Z" glyph-name="asterisk" horiz-adv-x="600" unicode="*" /><glyph d="M480 307Q472 309 462.5 309.5Q453 310 446 310Q423 310 402.5 300.5Q382 291 366 274Q347 255 334 228Q321 201 321 171Q321 153 330 144Q339 135 358 135Q387 135 408.5 158Q430 181 441 207ZM447 116Q417 82 386 70Q355 58 329 58Q306 58 289 66Q272 74 259 86Q233 112 233 160Q233 203 250.5 245.5Q268 288 300 320Q357 379 461 379Q499 379 530.5 373Q562 367 585 359L527 199Q522 186 521.5 172.5Q521 159 525 148.5Q529 138 539 131Q549 124 567 124Q606 124 633 152Q662 180 672.5 223.5Q683 267 683 310Q683 395 635 445Q581 502 468 502Q401 502 340.5 478Q280 454 236 410Q187 361 160.5 291.5Q134 222 134 148Q134 54 188 0Q215 -28 259 -43Q303 -58 360 -58Q372 -58 389 -56Q406 -54 424.5 -50.5Q443 -47 461 -42Q479 -37 494 -31L479 -108Q455 -119 420 -125Q385 -131 346 -131Q271 -131 214 -110.5Q157 -90 119 -52Q85 -18 66 29.5Q47 77 47 137Q47 180 54.5 224Q62 268 78 310Q94 352 118 390.5Q142 429 174 462Q231 519 311 547.5Q391 576 481 575Q556 574 610.5 551.5Q665 529 700 493Q732 461 747 415.5Q762 370 762 316Q762 288 758.5 259Q755 230 747 202.5Q739 175 724.5 149.5Q710 124 688 102Q661 75 627 64.5Q593 54 555 54Q538 54 521 57Q504 60 489.5 67Q475 74 464 86Q453 98 449 116Z" glyph-name="at" horiz-adv-x="813" unicode="@" /><glyph d="M501 424Q493 426 483.5 426.5Q474 427 467 427Q444 427 423.5 417.5Q403 408 387 391Q368 372 355 345Q342 318 342 288Q342 270 351 261Q360 252 379 252Q408 252 429.5 275Q451 298 462 324ZM468 233Q438 199 407 187Q376 175 350 175Q327 175 310 183Q293 191 280 203Q254 229 254 277Q254 320 271.5 362.5Q289 405 321 437Q378 496 482 496Q520 496 551.5 490Q583 484 606 476L548 316Q543 303 542.5 289.5Q542 276 546 265.5Q550 255 560 248Q570 241 588 241Q627 241 654 269Q683 297 693.5 340.5Q704 384 704 427Q704 512 656 562Q602 619 489 619Q422 619 361.5 595Q301 571 257 527Q208 478 181.5 408.5Q155 339 155 265Q155 171 209 117Q236 89 280 74Q324 59 381 59Q393 59 410 61Q427 63 445.5 66.5Q464 70 482 75Q500 80 515 86L500 9Q476 -2 441 -8Q406 -14 367 -14Q292 -14 235 6.5Q178 27 140 65Q106 99 87 146.5Q68 194 68 254Q68 297 75.5 341Q83 385 99 427Q115 469 139 507.5Q163 546 195 579Q252 636 332 664.5Q412 693 502 692Q577 691 631.5 668.5Q686 646 721 610Q753 578 768 532.5Q783 487 783 433Q783 405 779.5 376Q776 347 768 319.5Q760 292 745.5 266.5Q731 241 709 219Q682 192 648 181.5Q614 171 576 171Q559 171 542 174Q525 177 510.5 184Q496 191 485 203Q474 215 470 233Z" glyph-name="at.cap" horiz-adv-x="813" unicode="&#58643;" /><glyph d="M423 658Q445 658 475 670Q505 682 528 696L514 619Q505 613 492 606Q479 599 464.5 594Q450 589 435.5 585.5Q421 582 408 582Q387 582 368.5 587Q350 592 333.5 598Q317 604 300 609Q283 614 265 614Q242 614 211.5 602.5Q181 591 157 577L172 655Q181 661 194 667.5Q207 674 222 679.5Q237 685 252 688.5Q267 692 279 692Q301 692 318.5 687Q336 682 352.5 675.5Q369 669 386 663.5Q403 658 423 658ZM363 232Q337 234 314 235Q291 236 280 236Q247 236 213.5 231Q180 226 157 203Q143 189 137 171Q131 153 131 135Q131 121 135.5 111Q140 101 146 95Q157 84 173.5 80.5Q190 77 210 77Q259 77 292 97.5Q325 118 346 143ZM288 311Q303 311 327 310Q351 309 377 307L387 363Q391 386 390 401Q389 416 377.5 425Q366 434 342 437.5Q318 441 276 441Q249 441 207 437Q165 433 114 422L130 506Q152 511 177.5 514.5Q203 518 228 520Q253 522 274.5 523Q296 524 311 524Q367 524 405.5 516Q444 508 466 488.5Q488 469 494.5 437Q501 405 492 356L428 0H354L347 53H346Q313 22 269 6Q225 -10 178 -10Q139 -10 107.5 0Q76 10 53 33Q36 49 28 72.5Q20 96 20 119Q20 159 32 193Q44 227 70 253Q89 272 115.5 283.5Q142 295 171 301Q200 307 230.5 309Q261 311 288 311Z" glyph-name="atilde" horiz-adv-x="546" unicode="&#227;" /><glyph d="M445 658Q467 658 497 670Q527 682 550 696L536 619Q527 613 514 606Q501 599 486.5 594Q472 589 457.5 585.5Q443 582 430 582Q409 582 390.5 587Q372 592 355.5 598Q339 604 322 609Q305 614 287 614Q264 614 233.5 602.5Q203 591 179 577L194 655Q203 661 216 667.5Q229 674 244 679.5Q259 685 274 688.5Q289 692 301 692Q323 692 340.5 687Q358 682 374.5 675.5Q391 669 408 663.5Q425 658 445 658ZM40 173Q40 206 46 243.5Q52 281 63.5 318Q75 355 93 389Q111 423 137 449Q176 489 229 505Q282 521 338 521Q363 521 385.5 516Q408 511 426 504Q444 497 457.5 489Q471 481 478 475H480L500 510H569L477 0H401L397 58H396Q358 26 317 7.5Q276 -11 225 -11Q178 -11 143.5 3.5Q109 18 86 40Q64 61 52 95Q40 129 40 173ZM441 400Q433 408 405.5 420.5Q378 433 336 433Q301 433 272.5 423.5Q244 414 223 393Q206 376 193.5 351.5Q181 327 173 298Q165 269 160.5 238.5Q156 208 156 181Q156 152 162.5 133Q169 114 182 101Q207 77 255 77Q277 77 297.5 84.5Q318 92 336.5 103.5Q355 115 370 128.5Q385 142 396 154Z" glyph-name="atilde.hist" horiz-adv-x="603" unicode="&#59190;" /><glyph d="M424 690Q446 690 476 702Q506 714 529 728L515 651Q506 645 493 638Q480 631 465.5 626Q451 621 436.5 617.5Q422 614 409 614Q388 614 369.5 619Q351 624 334.5 630Q318 636 301 641Q284 646 266 646Q243 646 212.5 634.5Q182 623 158 609L173 687Q182 693 195 699.5Q208 706 223 711.5Q238 717 253 720.5Q268 724 280 724Q302 724 319.5 719Q337 714 353.5 707.5Q370 701 387 695.5Q404 690 424 690ZM308 451Q300 430 287.5 402.5Q275 375 262 351L185 207H347L323 351Q320 371 316 400Q312 429 310 451ZM361 127H140L72 0H-45L262 541H383L490 0H384Z" glyph-name="atilde.small" horiz-adv-x="539" unicode="&#63459;" /><glyph d="M161 112Q178 94 208 85.5Q238 77 266 77Q338 77 380 119Q395 134 407.5 159Q420 184 428.5 213Q437 242 441.5 272.5Q446 303 446 330Q446 383 420 409Q408 421 389.5 427Q371 433 348 433Q309 433 271.5 409.5Q234 386 206 357ZM268 -11Q235 -11 194.5 0.5Q154 12 125 37H123L103 0H34L158 678H265L226 467H228Q265 496 302.5 508.5Q340 521 377 521Q425 521 459 507.5Q493 494 516 471Q537 450 549.5 416Q562 382 562 337Q562 302 556 264Q550 226 538 189.5Q526 153 508 120Q490 87 466 62Q425 20 373.5 4.5Q322 -11 268 -11Z" glyph-name="b" horiz-adv-x="603" unicode="b" /><glyph d="M491 171Q491 97 442 48Q425 31 401 21.5Q377 12 350 7Q323 2 295.5 1Q268 0 244 0H32L132 541H339Q392 541 431 531Q470 521 493 498Q507 484 514 463Q521 442 521 423Q521 355 472 304Q462 295 451.5 288Q441 281 431 275L430 273Q438 268 444.5 263.5Q451 259 459 252Q473 237 482 217Q491 197 491 171ZM302 316Q330 316 348.5 319.5Q367 323 383 339Q397 353 402 373.5Q407 394 407 412Q407 423 404 432Q401 441 396 446Q385 457 368.5 459.5Q352 462 326 462H224L197 316ZM381 180Q381 203 369 217Q355 230 338 233.5Q321 237 295 237H182L153 80H267Q292 80 315.5 84Q339 88 353 102Q371 119 376 140.5Q381 162 381 180Z" glyph-name="b.small" horiz-adv-x="547" unicode="&#63330;" /><glyph d="M152 355Q164 346 179.5 341.5Q195 337 211 337Q250 337 273 360Q283 370 290.5 385Q298 400 303 417.5Q308 435 310.5 453Q313 471 313 488Q313 520 298 534Q285 547 256 547Q237 547 216.5 537Q196 527 181 509ZM194 584H195Q217 598 239 604.5Q261 611 281 611Q311 611 332.5 603Q354 595 371 579Q399 549 399 495Q399 472 395 448Q391 424 383.5 400.5Q376 377 364 356.5Q352 336 337 320Q311 294 277 283Q243 272 205 272Q187 272 164.5 278.5Q142 285 124 298L113 279H57L137 708H218Z" glyph-name="b.superior" horiz-adv-x="389" unicode="&#58210;" /><glyph d="M80 763H175L311 -85H216Z" glyph-name="backslash" horiz-adv-x="360" unicode="\" /><glyph d="M241 -85H151L308 763H398Z" glyph-name="bar" horiz-adv-x="518" unicode="|" /><glyph d="M319 76Q410 76 462 128Q487 153 506 197.5Q525 242 537 293H180Q177 272 176 253.5Q175 235 175 219Q175 143 210 108Q242 76 319 76ZM273 551Q247 525 227 476.5Q207 428 195 375H553Q556 398 558 420Q560 442 560 460Q560 536 525 570Q493 602 416 602Q324 602 273 551ZM302 -14Q233 -14 185.5 4Q138 22 109 51Q80 80 66.5 123Q53 166 53 220Q53 264 60.5 318Q68 372 83.5 426Q99 480 122.5 528.5Q146 577 179 610Q223 654 286 673Q349 692 433 692Q502 692 549.5 674.5Q597 657 626 628Q655 599 668.5 555.5Q682 512 682 459Q682 415 674.5 360.5Q667 306 651.5 252Q636 198 612.5 150Q589 102 556 69Q512 25 449 5.5Q386 -14 302 -14Z" glyph-name="barredO" horiz-adv-x="704" unicode="&#59192;" /><glyph d="M265 69Q297 69 324 78Q351 87 373 109Q392 128 405.5 156Q419 184 427 216H158Q157 205 156.5 195Q156 185 156 176Q156 122 180 97Q194 82 215.5 75.5Q237 69 265 69ZM225 402Q205 382 191.5 353Q178 324 170 291H441Q442 302 442.5 312.5Q443 323 443 334Q443 363 436.5 382Q430 401 419 414Q405 429 383.5 435Q362 441 334 441Q302 441 274.5 432.5Q247 424 225 402ZM252 -14Q198 -14 157 0.5Q116 15 88 42Q66 64 54 98Q42 132 42 179Q42 214 47.5 252.5Q53 291 64.5 327.5Q76 364 94 397.5Q112 431 138 457Q180 499 234 511.5Q288 524 346 524Q397 524 439.5 510Q482 496 510 468Q532 447 544.5 412.5Q557 378 557 332Q557 297 551.5 259Q546 221 534.5 184Q523 147 505 114Q487 81 461 55Q420 14 364 0Q308 -14 252 -14Z" glyph-name="barredo" horiz-adv-x="599" unicode="&#59191;" /><glyph d="M269 71Q343 71 384 111Q403 130 417 162Q431 194 440 230H157Q155 216 155 204Q155 192 155 181Q155 123 182 97Q208 71 269 71ZM228 430Q208 409 193 374.5Q178 340 169 302H454Q456 318 457 332.5Q458 347 458 361Q458 418 433 444Q407 471 343 471Q269 471 228 430ZM254 -13Q194 -13 153.5 1.5Q113 16 88 41Q64 64 52.5 98Q41 132 41 174Q41 212 46.5 254.5Q52 297 64.5 338.5Q77 380 96.5 418Q116 456 144 484Q180 520 232 537Q284 554 355 554Q416 554 458.5 539.5Q501 525 526 500Q549 477 560 443Q571 409 571 367Q571 330 565.5 287.5Q560 245 547.5 203Q535 161 515.5 123Q496 85 469 57Q399 -13 254 -13Z" glyph-name="barredo.small" horiz-adv-x="607" unicode="&#59193;" /><glyph d="M511 693Q584 693 648.5 665Q713 637 761 589Q809 541 837 476.5Q865 412 865 339Q865 266 837 201.5Q809 137 761 89Q713 41 648.5 13Q584 -15 511 -15Q438 -15 373.5 13Q309 41 261 89Q213 137 185 201.5Q157 266 157 339Q157 412 185 476.5Q213 541 261 589Q309 637 373.5 665Q438 693 511 693Z" glyph-name="blackcircle" horiz-adv-x="990" unicode="&#9679;" /><glyph d="M256 510H766V0H256Z" glyph-name="blacksmallsquare" horiz-adv-x="990" unicode="&#9642;" /><glyph d="M172 678H850V0H172Z" glyph-name="blacksquare" horiz-adv-x="990" unicode="&#59200;" /><glyph d="M286 631Q271 616 266 587.5Q261 559 258.5 524.5Q256 490 253.5 452.5Q251 415 242 381Q238 364 230 347Q222 330 208 316Q219 295 219 263Q219 233 210 199Q201 165 190.5 131Q180 97 171 64.5Q162 32 162 5Q162 -16 174.5 -26.5Q187 -37 223 -37Q228 -37 233.5 -37Q239 -37 250 -36L235 -116Q224 -118 213 -118Q202 -118 194 -118Q117 -118 87.5 -90Q58 -62 58 -12Q58 19 65 51.5Q72 84 82 116.5Q92 149 102.5 181.5Q113 214 119 245L73 306L76 326L145 387Q149 425 151 467.5Q153 510 158.5 550.5Q164 591 174.5 626Q185 661 208 684Q231 707 264.5 718.5Q298 730 350 730Q358 730 371 729.5Q384 729 392 728L377 648Q367 649 362 649Q357 649 352 649Q326 649 310.5 644.5Q295 640 286 631Z" glyph-name="braceleft" horiz-adv-x="344" unicode="{" /><glyph d="M292 664Q277 649 272 620.5Q267 592 264.5 557.5Q262 523 259.5 485.5Q257 448 248 414Q244 397 236 380Q228 363 214 349Q225 328 225 296Q225 266 216 232Q207 198 196.5 164Q186 130 177 97.5Q168 65 168 38Q168 17 180.5 6.5Q193 -4 229 -4Q234 -4 239.5 -4Q245 -4 256 -3L241 -83Q230 -85 219 -85Q208 -85 200 -85Q123 -85 93.5 -57Q64 -29 64 21Q64 52 71 84.5Q78 117 88 149.5Q98 182 108.5 214.5Q119 247 125 278L79 339L82 359L151 420Q155 458 157 500.5Q159 543 164.5 583.5Q170 624 180.5 659Q191 694 214 717Q237 740 270.5 751.5Q304 763 356 763Q364 763 377 762.5Q390 762 398 761L383 681Q373 682 368 682Q363 682 358 682Q332 682 316.5 677.5Q301 673 292 664Z" glyph-name="braceleft.cap" horiz-adv-x="344" unicode="&#58517;" /><glyph d="M76 -19Q90 -5 95.5 23.5Q101 52 103.5 88Q106 124 109 163Q112 202 120 237Q125 259 133 278.5Q141 298 158 316Q153 327 150 339.5Q147 352 147 369Q147 399 155.5 429.5Q164 460 173.5 490.5Q183 521 191.5 550.5Q200 580 200 607Q200 628 188 638.5Q176 649 141 649Q136 649 130 649Q124 649 112 648L127 728Q139 730 149.5 730Q160 730 168 730Q207 730 233 722.5Q259 715 274.5 701.5Q290 688 297 668.5Q304 649 304 624Q304 591 297 561Q290 531 281 502.5Q272 474 262.5 446Q253 418 247 388L293 327L290 307L221 246Q216 206 213.5 160Q211 114 205.5 70.5Q200 27 188.5 -10.5Q177 -48 154 -71Q131 -94 97.5 -106Q64 -118 12 -118Q4 -118 -9 -117.5Q-22 -117 -30 -116L-15 -36Q-5 -37 1 -37Q7 -37 13 -37Q38 -37 52.5 -32.5Q67 -28 76 -19Z" glyph-name="braceright" horiz-adv-x="344" unicode="}" /><glyph d="M82 14Q96 28 101.5 56.5Q107 85 109.5 121Q112 157 115 196Q118 235 126 270Q131 292 139 311.5Q147 331 164 349Q159 360 156 372.5Q153 385 153 402Q153 432 161.5 462.5Q170 493 179.5 523.5Q189 554 197.5 583.5Q206 613 206 640Q206 661 194 671.5Q182 682 147 682Q142 682 136 682Q130 682 118 681L133 761Q145 763 155.5 763Q166 763 174 763Q213 763 239 755.5Q265 748 280.5 734.5Q296 721 303 701.5Q310 682 310 657Q310 624 303 594Q296 564 287 535.5Q278 507 268.5 479Q259 451 253 421L299 360L296 340L227 279Q222 239 219.5 193Q217 147 211.5 103.5Q206 60 194.5 22.5Q183 -15 160 -38Q137 -61 103.5 -73Q70 -85 18 -85Q10 -85 -3 -84.5Q-16 -84 -24 -83L-9 -3Q1 -4 7 -4Q13 -4 19 -4Q44 -4 58.5 0.5Q73 5 82 14Z" glyph-name="braceright.cap" horiz-adv-x="344" unicode="&#58518;" /><glyph d="M233 -118H29L186 730H390L375 649H277L150 -37H248Z" glyph-name="bracketleft" horiz-adv-x="342" unicode="[" /><glyph d="M239 -85H35L192 763H396L381 682H283L156 -4H254Z" glyph-name="bracketleft.cap" horiz-adv-x="342" unicode="&#58515;" /><glyph d="M-15 -37H83L210 649H112L128 730H332L175 -118H-30Z" glyph-name="bracketright" horiz-adv-x="342" unicode="]" /><glyph d="M-9 -4H89L216 682H118L134 763H338L181 -85H-24Z" glyph-name="bracketright.cap" horiz-adv-x="342" unicode="&#58516;" /><glyph d="M366 623Q389 623 410 628.5Q431 634 446 649Q458 661 465 678H557Q549 657 540 640.5Q531 624 517 610Q488 581 447.5 568.5Q407 556 358 556Q316 556 284 565.5Q252 575 232 595Q217 610 208 630Q199 650 200 678H287Q288 656 302 642Q313 631 329.5 627Q346 623 366 623Z" glyph-name="breve" horiz-adv-x="600" unicode="&#728;" /><glyph d="M366 791Q389 791 410 796.5Q431 802 446 817Q458 829 465 846H557Q549 825 540 808.5Q531 792 517 778Q488 749 447.5 736.5Q407 724 358 724Q316 724 284 733.5Q252 743 232 763Q217 778 208 798Q199 818 200 846H287Q288 824 302 810Q313 799 329.5 795Q346 791 366 791Z" glyph-name="breve.cap" horiz-adv-x="600" unicode="&#58406;" /><glyph d="M366 655Q389 655 410 660.5Q431 666 446 681Q458 693 465 710H557Q549 689 540 672.5Q531 656 517 642Q488 613 447.5 600.5Q407 588 358 588Q316 588 284 597.5Q252 607 232 627Q217 642 208 662Q199 682 200 710H287Q288 688 302 674Q313 663 329.5 659Q346 655 366 655Z" glyph-name="breve.small" horiz-adv-x="600" unicode="&#63220;" /><glyph d="M239 390 308 763H398L329 390ZM313 302 241 -85H151L223 302Z" glyph-name="brokenbar" horiz-adv-x="518" unicode="&#166;" /><glyph d="M175 343Q175 372 186 398Q197 424 216 443Q235 462 261 473Q287 484 316 484Q345 484 371 473Q397 462 416 443Q435 424 446 398Q457 372 457 343Q457 314 446 288Q435 262 416 243Q397 224 371 213Q345 202 316 202Q287 202 261 213Q235 224 216 243Q197 262 186 288Q175 314 175 343Z" glyph-name="bullet" horiz-adv-x="600" unicode="&#8226;" /><glyph d="M284 77Q306 77 342 81.5Q378 86 418 99L402 10Q357 -5 319.5 -9.5Q282 -14 251 -14Q194 -14 154.5 0.5Q115 15 89 40Q67 63 54 96.5Q41 130 41 175Q41 209 46 247.5Q51 286 62.5 323.5Q74 361 91.5 395Q109 429 134 454Q171 491 226 507.5Q281 524 350 524Q377 524 412 520.5Q447 517 480 506L465 422Q436 432 405 435.5Q374 439 351 439Q319 439 285 431.5Q251 424 225 398Q209 382 196.5 357Q184 332 175 302.5Q166 273 161.5 242.5Q157 212 157 185Q157 162 162.5 141Q168 120 181 106Q196 89 222 83Q248 77 284 77Z" glyph-name="c" horiz-adv-x="482" unicode="c" /><glyph d="M281 76Q308 76 349.5 81.5Q391 87 427 98L411 10Q392 2 369.5 -2.5Q347 -7 324.5 -9.5Q302 -12 282 -13Q262 -14 249 -14Q195 -14 155.5 0.5Q116 15 90 41Q42 89 42 181Q42 217 48 259.5Q54 302 67 343.5Q80 385 99 422.5Q118 460 145 487Q184 526 236 540.5Q288 555 354 555Q364 555 380.5 554.5Q397 554 416.5 552.5Q436 551 456.5 547Q477 543 497 537L482 454Q445 465 410 468Q375 471 358 471Q316 471 285.5 462Q255 453 231 429Q213 411 199 381Q185 351 175.5 317Q166 283 161 248.5Q156 214 156 187Q156 129 182 103Q198 88 223 82Q248 76 281 76Z" glyph-name="c.small" horiz-adv-x="492" unicode="&#63331;" /><glyph d="M217 336Q229 336 253 339Q277 342 308 353L296 287Q264 276 239 273Q214 270 194 270Q123 270 89 304Q74 319 66 339.5Q58 360 58 389Q58 411 62 436Q66 461 73.5 485Q81 509 92.5 530Q104 551 119 566Q144 591 177.5 602Q211 613 260 613Q276 613 298.5 610.5Q321 608 346 600L334 538Q311 546 291 548Q271 550 257 550Q238 550 219 545.5Q200 541 186 527Q176 517 168.5 501Q161 485 155.5 467Q150 449 147.5 430.5Q145 412 145 397Q145 384 148.5 372Q152 360 161 351Q176 336 217 336Z" glyph-name="c.superior" horiz-adv-x="311" unicode="&#58211;" /><glyph d="M284 77Q306 77 342 81.5Q378 86 418 99L402 10Q357 -5 319.5 -9.5Q282 -14 251 -14Q194 -14 154.5 0.5Q115 15 89 40Q67 63 54 96.5Q41 130 41 175Q41 209 46 247.5Q51 286 62.5 323.5Q74 361 91.5 395Q109 429 134 454Q171 491 226 507.5Q281 524 350 524Q377 524 412 520.5Q447 517 480 506L465 422Q436 432 405 435.5Q374 439 351 439Q319 439 285 431.5Q251 424 225 398Q209 382 196.5 357Q184 332 175 302.5Q166 273 161.5 242.5Q157 212 157 185Q157 162 162.5 141Q168 120 181 106Q196 89 222 83Q248 77 284 77ZM363 566H266L397 678H534Z" glyph-name="cacute" horiz-adv-x="482" unicode="&#263;" /><glyph d="M281 76Q308 76 349.5 81.5Q391 87 427 98L411 10Q392 2 369.5 -2.5Q347 -7 324.5 -9.5Q302 -12 282 -13Q262 -14 249 -14Q195 -14 155.5 0.5Q116 15 90 41Q42 89 42 181Q42 217 48 259.5Q54 302 67 343.5Q80 385 99 422.5Q118 460 145 487Q184 526 236 540.5Q288 555 354 555Q364 555 380.5 554.5Q397 554 416.5 552.5Q436 551 456.5 547Q477 543 497 537L482 454Q445 465 410 468Q375 471 358 471Q316 471 285.5 462Q255 453 231 429Q213 411 199 381Q185 351 175.5 317Q166 283 161 248.5Q156 214 156 187Q156 129 182 103Q198 88 223 82Q248 76 281 76ZM375 598H278L409 710H546Z" glyph-name="cacute.small" horiz-adv-x="492" unicode="&#63043;" /><glyph d="M217 680H312L365 616L441 680H547L409 562H310Z" glyph-name="caron" horiz-adv-x="600" unicode="&#711;" /><glyph d="M217 848H312L365 784L441 848H547L409 730H310Z" glyph-name="caron.cap" horiz-adv-x="600" unicode="&#58413;" /><glyph d="M217 712H312L365 648L441 712H547L409 594H310Z" glyph-name="caron.small" horiz-adv-x="600" unicode="&#63221;" /><glyph d="M462 678H577L457 496H388Z" glyph-name="caronSlovak" horiz-adv-x="600" unicode="&#58387;" /><glyph d="M284 77Q306 77 342 81.5Q378 86 418 99L402 10Q357 -5 319.5 -9.5Q282 -14 251 -14Q194 -14 154.5 0.5Q115 15 89 40Q67 63 54 96.5Q41 130 41 175Q41 209 46 247.5Q51 286 62.5 323.5Q74 361 91.5 395Q109 429 134 454Q171 491 226 507.5Q281 524 350 524Q377 524 412 520.5Q447 517 480 506L465 422Q436 432 405 435.5Q374 439 351 439Q319 439 285 431.5Q251 424 225 398Q209 382 196.5 357Q184 332 175 302.5Q166 273 161.5 242.5Q157 212 157 185Q157 162 162.5 141Q168 120 181 106Q196 89 222 83Q248 77 284 77ZM182 680H277L330 616L406 680H512L374 562H275Z" glyph-name="ccaron" horiz-adv-x="482" unicode="&#269;" /><glyph d="M281 76Q308 76 349.5 81.5Q391 87 427 98L411 10Q392 2 369.5 -2.5Q347 -7 324.5 -9.5Q302 -12 282 -13Q262 -14 249 -14Q195 -14 155.5 0.5Q116 15 90 41Q42 89 42 181Q42 217 48 259.5Q54 302 67 343.5Q80 385 99 422.5Q118 460 145 487Q184 526 236 540.5Q288 555 354 555Q364 555 380.5 554.5Q397 554 416.5 552.5Q436 551 456.5 547Q477 543 497 537L482 454Q445 465 410 468Q375 471 358 471Q316 471 285.5 462Q255 453 231 429Q213 411 199 381Q185 351 175.5 317Q166 283 161 248.5Q156 214 156 187Q156 129 182 103Q198 88 223 82Q248 76 281 76ZM188 712H283L336 648L412 712H518L380 594H281Z" glyph-name="ccaron.small" horiz-adv-x="492" unicode="&#63044;" /><glyph d="M199 -10Q162 -5 135 8Q108 21 89 40Q67 63 54 96.5Q41 130 41 175Q41 209 46 247.5Q51 286 62.5 323.5Q74 361 91.5 395Q109 429 134 454Q171 491 226 507.5Q281 524 350 524Q377 524 412 520.5Q447 517 480 506L465 422Q436 432 405 435.5Q374 439 351 439Q319 439 285 431.5Q251 424 225 398Q209 382 196.5 357Q184 332 175 302.5Q166 273 161.5 242.5Q157 212 157 185Q157 162 162.5 141Q168 120 181 106Q196 89 222 83Q248 77 284 77Q306 77 342 81.5Q378 86 418 99L402 10Q367 -1 336.5 -6Q306 -11 280 -13L264 -40Q282 -47 298 -59Q314 -71 314 -94Q314 -121 299.5 -137.5Q285 -154 263.5 -163Q242 -172 216.5 -175.5Q191 -179 169 -179Q152 -179 132 -177Q112 -175 87 -167L99 -106Q120 -114 138 -116Q156 -118 168 -118Q174 -118 183 -117.5Q192 -117 200.5 -114.5Q209 -112 215 -107Q221 -102 221 -93Q221 -81 206.5 -77.5Q192 -74 178 -72L176 -46Z" glyph-name="ccedilla" horiz-adv-x="482" unicode="&#231;" /><glyph d="M200 -10Q129 1 90 41Q42 89 42 181Q42 217 48 259.5Q54 302 67 343.5Q80 385 99 422.5Q118 460 145 487Q184 526 236 540.5Q288 555 354 555Q364 555 380.5 554.5Q397 554 416.5 552.5Q436 551 456.5 547Q477 543 497 537L482 454Q445 465 410 468Q375 471 358 471Q316 471 285.5 462Q255 453 231 429Q213 411 199 381Q185 351 175.5 317Q166 283 161 248.5Q156 214 156 187Q156 129 182 103Q198 88 223 82Q248 76 281 76Q308 76 349.5 81.5Q391 87 427 98L411 10Q382 -1 346 -6Q310 -11 281 -13L265 -40Q283 -47 299 -59Q315 -71 315 -94Q315 -121 300.5 -137.5Q286 -154 264.5 -163Q243 -172 217.5 -175.5Q192 -179 170 -179Q153 -179 133 -177Q113 -175 88 -167L100 -106Q121 -114 139 -116Q157 -118 169 -118Q175 -118 184 -117.5Q193 -117 201.5 -114.5Q210 -112 216 -107Q222 -102 222 -93Q222 -81 207.5 -77.5Q193 -74 179 -72L177 -46Z" glyph-name="ccedilla.small" horiz-adv-x="492" unicode="&#63463;" /><glyph d="M284 77Q306 77 342 81.5Q378 86 418 99L402 10Q357 -5 319.5 -9.5Q282 -14 251 -14Q194 -14 154.5 0.5Q115 15 89 40Q67 63 54 96.5Q41 130 41 175Q41 209 46 247.5Q51 286 62.5 323.5Q74 361 91.5 395Q109 429 134 454Q171 491 226 507.5Q281 524 350 524Q377 524 412 520.5Q447 517 480 506L465 422Q436 432 405 435.5Q374 439 351 439Q319 439 285 431.5Q251 424 225 398Q209 382 196.5 357Q184 332 175 302.5Q166 273 161.5 242.5Q157 212 157 185Q157 162 162.5 141Q168 120 181 106Q196 89 222 83Q248 77 284 77ZM495 564H400L347 627L271 564H165L303 682H402Z" glyph-name="ccircumflex" horiz-adv-x="482" unicode="&#265;" /><glyph d="M281 76Q308 76 349.5 81.5Q391 87 427 98L411 10Q392 2 369.5 -2.5Q347 -7 324.5 -9.5Q302 -12 282 -13Q262 -14 249 -14Q195 -14 155.5 0.5Q116 15 90 41Q42 89 42 181Q42 217 48 259.5Q54 302 67 343.5Q80 385 99 422.5Q118 460 145 487Q184 526 236 540.5Q288 555 354 555Q364 555 380.5 554.5Q397 554 416.5 552.5Q436 551 456.5 547Q477 543 497 537L482 454Q445 465 410 468Q375 471 358 471Q316 471 285.5 462Q255 453 231 429Q213 411 199 381Q185 351 175.5 317Q166 283 161 248.5Q156 214 156 187Q156 129 182 103Q198 88 223 82Q248 76 281 76ZM501 594H406L353 657L277 594H171L309 712H408Z" glyph-name="ccircumflex.small" horiz-adv-x="492" unicode="&#63016;" /><glyph d="M386 581H274L292 677H404ZM284 77Q306 77 342 81.5Q378 86 418 99L402 10Q357 -5 319.5 -9.5Q282 -14 251 -14Q194 -14 154.5 0.5Q115 15 89 40Q67 63 54 96.5Q41 130 41 175Q41 209 46 247.5Q51 286 62.5 323.5Q74 361 91.5 395Q109 429 134 454Q171 491 226 507.5Q281 524 350 524Q377 524 412 520.5Q447 517 480 506L465 422Q436 432 405 435.5Q374 439 351 439Q319 439 285 431.5Q251 424 225 398Q209 382 196.5 357Q184 332 175 302.5Q166 273 161.5 242.5Q157 212 157 185Q157 162 162.5 141Q168 120 181 106Q196 89 222 83Q248 77 284 77Z" glyph-name="cdotaccent" horiz-adv-x="482" unicode="&#267;" /><glyph d="M394 613H282L300 709H412ZM281 76Q308 76 349.5 81.5Q391 87 427 98L411 10Q392 2 369.5 -2.5Q347 -7 324.5 -9.5Q302 -12 282 -13Q262 -14 249 -14Q195 -14 155.5 0.5Q116 15 90 41Q42 89 42 181Q42 217 48 259.5Q54 302 67 343.5Q80 385 99 422.5Q118 460 145 487Q184 526 236 540.5Q288 555 354 555Q364 555 380.5 554.5Q397 554 416.5 552.5Q436 551 456.5 547Q477 543 497 537L482 454Q445 465 410 468Q375 471 358 471Q316 471 285.5 462Q255 453 231 429Q213 411 199 381Q185 351 175.5 317Q166 283 161 248.5Q156 214 156 187Q156 129 182 103Q198 88 223 82Q248 76 281 76Z" glyph-name="cdotaccent.small" horiz-adv-x="492" unicode="&#63017;" /><glyph d="M235 0H318L293 -40Q311 -47 327 -59Q343 -71 343 -94Q343 -121 328.5 -137.5Q314 -154 292.5 -163Q271 -172 245.5 -175.5Q220 -179 198 -179Q181 -179 161 -177Q141 -175 116 -167L128 -106Q149 -114 167 -116Q185 -118 197 -118Q203 -118 212 -117.5Q221 -117 229.5 -114.5Q238 -112 244 -107Q250 -102 250 -93Q250 -81 235.5 -77.5Q221 -74 207 -72L205 -46Z" glyph-name="cedilla" horiz-adv-x="600" unicode="&#184;" /><glyph d="M441 566Q469 563 501 552L486 468Q457 479 426.5 482.5Q396 486 373 486Q334 486 303 477Q272 468 249 446Q230 427 215.5 394.5Q201 362 191.5 326Q182 290 177 254Q172 218 172 193Q172 165 178 142.5Q184 120 200 104Q227 77 297 77Q319 77 355 81.5Q391 86 431 99L415 10Q372 -4 333 -9Q294 -14 263 -14Q252 -14 242.5 -13.5Q233 -13 223 -12L177 -118H79L138 15Q119 26 104 41Q81 65 69 99.5Q57 134 57 182Q57 219 63 263Q69 307 82 351Q95 395 115 435Q135 475 163 503Q195 535 242 551.5Q289 568 347 571L393 678H489Z" glyph-name="cent" horiz-adv-x="505" unicode="&#162;" /><glyph d="M525 635Q553 632 585 621L570 537Q541 548 510.5 551.5Q480 555 457 555Q418 555 387 546Q356 537 333 515Q314 496 299.5 463.5Q285 431 275.5 395Q266 359 261 323Q256 287 256 262Q256 234 262 211.5Q268 189 284 173Q311 146 381 146Q403 146 439 150.5Q475 155 515 168L499 79Q456 65 417 60Q378 55 347 55Q336 55 326 55.5Q316 56 306 57L260 -49H163L222 84Q203 95 188 110Q165 134 153 168.5Q141 203 141 251Q141 288 147 332Q153 376 166 420Q179 464 199 504Q219 544 247 572Q279 604 326.5 621Q374 638 431 640L477 747H573Z" glyph-name="cent.LP" horiz-adv-x="660" unicode="&#58659;" /><glyph d="M511 525Q567 525 616 503.5Q665 482 702 445.5Q739 409 760 359.5Q781 310 781 254Q781 198 760 149Q739 100 702 63Q665 26 616 5Q567 -16 511 -16Q455 -16 406 5Q357 26 320 63Q283 100 262 149Q241 198 241 254Q241 310 262 359.5Q283 409 320 445.5Q357 482 406 503.5Q455 525 511 525Z" glyph-name="circle" horiz-adv-x="990" unicode="&#59201;" /><glyph d="M525 564H430L377 627L301 564H195L333 682H432Z" glyph-name="circumflex" horiz-adv-x="600" unicode="&#710;" /><glyph d="M525 732H430L377 795L301 732H195L333 850H432Z" glyph-name="circumflex.cap" horiz-adv-x="600" unicode="&#58403;" /><glyph d="M525 594H430L377 657L301 594H195L333 712H432Z" glyph-name="circumflex.small" horiz-adv-x="600" unicode="&#63222;" /><glyph d="M162 0H32L54 122H184ZM234 388H103L126 510H256Z" glyph-name="colon" horiz-adv-x="288" unicode=":" /><glyph d="M77 136H216L54 -129H-34Z" glyph-name="comma" horiz-adv-x="288" unicode="," /><glyph d="M393 678H507L388 496H320Z" glyph-name="commaabovecmb" horiz-adv-x="600" unicode="&#787;" /><glyph d="M183 -75H298L178 -258H110Z" glyph-name="commaaccent" horiz-adv-x="600" unicode="&#63171;" /><glyph d="M639 565H525L645 747H712Z" glyph-name="commaturnedabove" horiz-adv-x="700" unicode="&#59202;" /><glyph d="M502 619Q422 619 362.5 596.5Q303 574 260 530Q209 479 184 407Q159 335 159 263Q159 217 172.5 180Q186 143 211 118Q270 59 398 59Q478 59 537.5 81.5Q597 104 641 148Q692 199 717 271Q742 343 742 415Q742 461 728 498Q714 535 689 560Q630 619 502 619ZM516 692Q598 692 658.5 670Q719 648 758 609Q792 575 810 527Q828 479 828 420Q828 378 820.5 334Q813 290 797.5 248.5Q782 207 759 169Q736 131 705 100Q645 40 566 13Q487 -14 385 -14Q303 -14 242.5 8.5Q182 31 143 69Q109 103 91 151.5Q73 200 73 259Q73 301 80.5 344.5Q88 388 103.5 430Q119 472 142 510Q165 548 196 579Q256 639 335 665.5Q414 692 516 692ZM368 481Q392 506 425 516Q458 526 500 526Q518 526 541 523Q564 520 587 512L576 451Q559 457 538 460Q517 463 500 463Q477 463 460.5 457.5Q444 452 430 438Q418 426 409 407Q400 388 395 367Q390 346 387.5 325Q385 304 385 287Q385 252 401 237Q416 222 455 222Q472 222 493 224.5Q514 227 532 232L521 171Q495 163 472 160.5Q449 158 432 158Q397 158 372.5 167.5Q348 177 331 194Q300 225 300 284Q300 309 304 336.5Q308 364 316.5 390.5Q325 417 337.5 440Q350 463 368 481Z" glyph-name="copyright" horiz-adv-x="870" unicode="&#169;" /><glyph d="M259 349Q275 349 303.5 352.5Q332 356 367 368L353 291Q317 279 287 275.5Q257 272 233 272Q147 272 107 312Q72 347 72 412Q72 437 76 466Q80 495 88.5 523.5Q97 552 110.5 578Q124 604 142 622Q170 649 210.5 663Q251 677 311 677Q328 677 355.5 674Q383 671 412 660L399 587Q373 596 348 599.5Q323 603 306 603Q285 603 262.5 598Q240 593 223 576Q212 565 203 547Q194 529 187.5 507.5Q181 486 177.5 463.5Q174 441 174 421Q174 407 177 392.5Q180 378 191 367Q202 356 219 352.5Q236 349 259 349Z" glyph-name="cordinal" horiz-adv-x="371" unicode="&#57729;" /><glyph d="M258 349Q276 349 309 353Q342 357 374 367L360 293Q344 286 325.5 282Q307 278 289.5 276Q272 274 256.5 273.5Q241 273 231 273Q149 273 109 312Q92 329 81.5 356Q71 383 71 419Q71 447 75.5 478Q80 509 90 539.5Q100 570 114.5 597.5Q129 625 149 645Q178 674 218.5 686.5Q259 699 310 699Q326 699 358 696.5Q390 694 424 682L410 609Q378 621 350.5 623.5Q323 626 309 626Q283 626 263 620Q243 614 227 597Q216 586 206 565.5Q196 545 189 521Q182 497 178 471.5Q174 446 174 425Q174 383 192 367Q203 356 219.5 352.5Q236 349 258 349Z" glyph-name="cordinal.small" horiz-adv-x="379" unicode="&#59203;" /><glyph d="M405 137Q448 137 489 151Q530 165 564 199Q599 235 618 289Q637 343 637 397Q637 433 627 459Q617 485 599 502Q577 525 546 533.5Q515 542 480 542Q438 542 396.5 528.5Q355 515 321 481Q286 445 267 391Q248 337 248 283Q248 247 258 221Q268 195 286 178Q308 155 339 146Q370 137 405 137ZM388 48Q339 48 296.5 59.5Q254 71 219 96L99 -6L39 68L159 169Q148 190 142 219Q136 248 136 279Q136 345 158.5 409.5Q181 474 226 528L152 621L227 685L308 585Q350 610 398.5 621Q447 632 497 632Q546 632 588.5 620.5Q631 609 666 585L786 686L846 612L726 511Q737 490 743 461Q749 432 749 401Q749 335 726.5 270.5Q704 206 659 152L733 59L658 -6L577 95Q535 70 486.5 59Q438 48 388 48Z" glyph-name="currency" horiz-adv-x="856" unicode="&#164;" /><glyph d="M441 400Q424 418 394.5 425.5Q365 433 336 433Q301 433 272.5 423.5Q244 414 222 392Q207 377 194.5 352Q182 327 173.5 298.5Q165 270 160.5 239.5Q156 209 156 182Q156 153 162.5 134Q169 115 182 101Q208 77 253 77Q273 77 293 83.5Q313 90 331.5 101Q350 112 366.5 125.5Q383 139 396 153ZM396 58Q355 23 311 6Q267 -11 225 -11Q178 -11 143 3.5Q108 18 85 41Q64 62 52 95.5Q40 129 40 173Q40 206 46 244Q52 282 64 319.5Q76 357 94 390.5Q112 424 136 449Q175 489 228 505Q281 521 335 521Q364 521 398.5 512.5Q433 504 457 487L493 678H600L477 0H401L397 58Z" glyph-name="d" horiz-adv-x="603" unicode="d" /><glyph d="M260 82Q288 82 316.5 88Q345 94 369 119Q387 137 401 163.5Q415 190 424 220.5Q433 251 437.5 283.5Q442 316 442 346Q442 369 437 394Q432 419 415 436Q400 451 379.5 455.5Q359 460 331 460H224L154 82ZM557 350Q557 314 551.5 275.5Q546 237 533.5 199.5Q521 162 501.5 127Q482 92 454 64Q413 23 359.5 11.5Q306 0 246 0H32L132 541H340Q393 541 435 529.5Q477 518 509 486Q535 460 546 424Q557 388 557 350Z" glyph-name="d.small" horiz-adv-x="594" unicode="&#63332;" /><glyph d="M306 531Q295 539 278.5 543Q262 547 248 547Q208 547 184 523Q175 514 168 499Q161 484 155.5 466.5Q150 449 147.5 430.5Q145 412 145 397Q145 364 161 349Q167 342 178 339Q189 336 203 336Q222 336 241.5 346Q261 356 277 374ZM279 309H278Q255 289 228 280.5Q201 272 176 272Q147 272 125.5 280.5Q104 289 89 303Q75 318 67 339Q59 360 59 389Q59 411 63 435.5Q67 460 74.5 483Q82 506 93 526.5Q104 547 119 562Q146 589 179.5 600Q213 611 253 611Q267 611 285.5 607.5Q304 604 318 596L339 708H421L341 279H279Z" glyph-name="d.superior" horiz-adv-x="389" unicode="&#58212;" /><glyph d="M302 470 453 480 436 386 288 396 191 -85H124L204 397L53 386L71 480L218 470L246 678H350Z" glyph-name="dagger" horiz-adv-x="440" unicode="&#8224;" /><glyph d="M260 263 385 272 371 192 247 200 190 -85H124L170 200L46 192L60 272L181 263L204 397L53 386L70 480L217 470L246 678H350L301 470L453 480L435 386L287 396Z" glyph-name="daggerdbl" horiz-adv-x="440" unicode="&#8225;" /><glyph d="M714 678H830L710 496H641ZM440 400Q423 418 393.5 425.5Q364 433 335 433Q300 433 271.5 423.5Q243 414 221 392Q206 377 193.5 352Q181 327 172.5 298.5Q164 270 159.5 239.5Q155 209 155 182Q155 153 161.5 134Q168 115 181 101Q207 77 252 77Q272 77 292 83.5Q312 90 330.5 101Q349 112 365.5 125.5Q382 139 395 153ZM395 58Q354 23 310 6Q266 -11 224 -11Q177 -11 142 3.5Q107 18 84 41Q63 62 51 95.5Q39 129 39 173Q39 206 45 244Q51 282 63 319.5Q75 357 93 390.5Q111 424 135 449Q174 489 227 505Q280 521 334 521Q363 521 397.5 512.5Q432 504 456 487L492 678H599L476 0H400L396 58Z" glyph-name="dcaron" horiz-adv-x="742" unicode="&#271;" /><glyph d="M203 712H298L351 648L427 712H533L395 594H296ZM260 82Q288 82 316.5 88Q345 94 369 119Q387 137 401 163.5Q415 190 424 220.5Q433 251 437.5 283.5Q442 316 442 346Q442 369 437 394Q432 419 415 436Q400 451 379.5 455.5Q359 460 331 460H224L154 82ZM557 350Q557 314 551.5 275.5Q546 237 533.5 199.5Q521 162 501.5 127Q482 92 454 64Q413 23 359.5 11.5Q306 0 246 0H32L132 541H340Q393 541 435 529.5Q477 518 509 486Q535 460 546 424Q557 388 557 350Z" glyph-name="dcaron.small" horiz-adv-x="594" unicode="&#63045;" /><glyph d="M440 400Q423 418 393.5 425.5Q364 433 335 433Q300 433 271.5 423.5Q243 414 221 392Q206 377 193.5 352Q181 327 172.5 298.5Q164 270 159.5 239.5Q155 209 155 182Q155 153 161.5 134Q168 115 181 101Q207 77 252 77Q272 77 292 83.5Q312 90 330.5 101Q349 112 365.5 125.5Q382 139 395 153ZM395 58Q354 23 310 6Q266 -11 224 -11Q177 -11 142 3.5Q107 18 84 41Q63 62 51 95.5Q39 129 39 173Q39 206 45 244Q51 282 63 319.5Q75 357 93 390.5Q111 424 135 449Q174 489 227 505Q280 521 334 521Q363 521 397.5 512.5Q432 504 456 487L492 678H599L476 0H400L396 58ZM227 -36Q243 -37 261.5 -40Q280 -43 296 -50Q312 -57 323 -69Q334 -81 334 -100Q334 -126 319 -141.5Q304 -157 282 -165.5Q260 -174 235.5 -176.5Q211 -179 193 -179Q176 -179 154.5 -177Q133 -175 108 -167L120 -106Q140 -114 157.5 -116Q175 -118 189 -118Q196 -118 205 -117.5Q214 -117 222 -115Q230 -113 235.5 -108Q241 -103 241 -95Q241 -89 236.5 -85.5Q232 -82 225 -79.5Q218 -77 211 -76Q204 -75 200 -75Z" glyph-name="dcedilla" horiz-adv-x="603" unicode="&#7697;" /><glyph d="M215 -36Q231 -37 249.5 -40Q268 -43 284 -50Q300 -57 311 -69Q322 -81 322 -100Q322 -126 307 -141.5Q292 -157 270 -165.5Q248 -174 223.5 -176.5Q199 -179 181 -179Q164 -179 142.5 -177Q121 -175 96 -167L108 -106Q128 -114 145.5 -116Q163 -118 177 -118Q184 -118 193 -117.5Q202 -117 210 -115Q218 -113 223.5 -108Q229 -103 229 -95Q229 -89 224.5 -85.5Q220 -82 213 -79.5Q206 -77 199 -76Q192 -75 188 -75ZM260 82Q288 82 316.5 88Q345 94 369 119Q387 137 401 163.5Q415 190 424 220.5Q433 251 437.5 283.5Q442 316 442 346Q442 369 437 394Q432 419 415 436Q400 451 379.5 455.5Q359 460 331 460H224L154 82ZM557 350Q557 314 551.5 275.5Q546 237 533.5 199.5Q521 162 501.5 127Q482 92 454 64Q413 23 359.5 11.5Q306 0 246 0H32L132 541H340Q393 541 435 529.5Q477 518 509 486Q535 460 546 424Q557 388 557 350Z" glyph-name="dcedilla.small" horiz-adv-x="594" unicode="&#59207;" /><glyph d="M440 400Q423 418 393.5 425.5Q364 433 335 433Q300 433 271.5 423.5Q243 414 221 392Q206 377 193.5 352Q181 327 172.5 298.5Q164 270 159.5 239.5Q155 209 155 182Q155 153 161.5 134Q168 115 181 101Q207 77 252 77Q272 77 292 83.5Q312 90 330.5 101Q349 112 365.5 125.5Q382 139 395 153ZM350 627H482L492 678H599L589 627H694L680 552H576L476 0H400L396 58H395Q354 23 310 6Q266 -11 224 -11Q177 -11 142 3.5Q107 18 84 41Q63 62 51 95.5Q39 129 39 173Q39 206 45 244Q51 282 63 319.5Q75 357 93 390.5Q111 424 135 449Q174 489 227 505Q280 521 334 521Q363 521 397.5 512.5Q432 504 456 487L468 552H336Z" glyph-name="dcroat" horiz-adv-x="603" unicode="&#273;" /><glyph d="M273 82Q301 82 329.5 88Q358 94 382 119Q400 137 414 163.5Q428 190 437 220.5Q446 251 450.5 283.5Q455 316 455 346Q455 369 450 394Q445 419 428 436Q413 451 392.5 455.5Q372 460 344 460H237L209 312H367L354 239H196L167 82ZM570 350Q570 314 564.5 275.5Q559 237 546.5 199.5Q534 162 514.5 127Q495 92 467 64Q426 23 372.5 11.5Q319 0 259 0H45L89 239H7L21 312H102L145 541H353Q406 541 448 529.5Q490 518 522 486Q548 460 559 424Q570 388 570 350Z" glyph-name="dcroat.small" horiz-adv-x="607" unicode="&#63046;" /><glyph d="M270 -189H163L181 -92H288ZM440 400Q423 418 393.5 425.5Q364 433 335 433Q300 433 271.5 423.5Q243 414 221 392Q206 377 193.5 352Q181 327 172.5 298.5Q164 270 159.5 239.5Q155 209 155 182Q155 153 161.5 134Q168 115 181 101Q207 77 252 77Q272 77 292 83.5Q312 90 330.5 101Q349 112 365.5 125.5Q382 139 395 153ZM395 58Q354 23 310 6Q266 -11 224 -11Q177 -11 142 3.5Q107 18 84 41Q63 62 51 95.5Q39 129 39 173Q39 206 45 244Q51 282 63 319.5Q75 357 93 390.5Q111 424 135 449Q174 489 227 505Q280 521 334 521Q363 521 397.5 512.5Q432 504 456 487L492 678H599L476 0H400L396 58Z" glyph-name="ddotbelow" horiz-adv-x="603" unicode="&#7693;" /><glyph d="M252 -189H145L163 -92H270ZM260 82Q288 82 316.5 88Q345 94 369 119Q387 137 401 163.5Q415 190 424 220.5Q433 251 437.5 283.5Q442 316 442 346Q442 369 437 394Q432 419 415 436Q400 451 379.5 455.5Q359 460 331 460H224L154 82ZM557 350Q557 314 551.5 275.5Q546 237 533.5 199.5Q521 162 501.5 127Q482 92 454 64Q413 23 359.5 11.5Q306 0 246 0H32L132 541H340Q393 541 435 529.5Q477 518 509 486Q535 460 546 424Q557 388 557 350Z" glyph-name="ddotbelow.small" horiz-adv-x="594" unicode="&#59208;" /><glyph d="M244 364Q206 364 173.5 374.5Q141 385 119 406Q102 423 92.5 446Q83 469 83 497Q83 534 96 571Q109 608 138 637Q169 668 212 680.5Q255 693 303 693Q341 693 373.5 682.5Q406 672 427 651Q444 634 453.5 611Q463 588 463 560Q463 523 450.5 486Q438 449 409 420Q378 389 334.5 376.5Q291 364 244 364ZM256 438Q313 438 343 469Q357 483 365.5 505.5Q374 528 374 552Q374 568 369.5 580Q365 592 357 600Q337 620 290 620Q234 620 204 589Q190 575 181.5 552.5Q173 530 173 506Q173 475 190 458Q210 438 256 438Z" glyph-name="degree" horiz-adv-x="444" unicode="&#176;" /><glyph d="M526 580H418L436 675H543ZM318 580H211L228 675H336Z" glyph-name="dieresis" horiz-adv-x="600" unicode="&#168;" /><glyph d="M526 748H418L436 843H543ZM318 748H211L228 843H336Z" glyph-name="dieresis.cap" horiz-adv-x="600" unicode="&#58409;" /><glyph d="M526 612H418L436 707H543ZM318 612H211L228 707H336Z" glyph-name="dieresis.small" horiz-adv-x="600" unicode="&#63400;" /><glyph d="M499 579H389L407 676H517ZM291 579H182L200 676H309ZM543 741H197L211 820H557Z" glyph-name="dieresismacron" horiz-adv-x="0" unicode="&#59209;" /><glyph d="M552 747H442L460 844H570ZM344 747H235L253 844H362ZM596 909H250L264 988H610Z" glyph-name="dieresismacron.cap" horiz-adv-x="0" unicode="&#59216;" /><glyph d="M385 400H273L293 503H405ZM319 39H207L225 142H337ZM547 226H45L62 315H564Z" glyph-name="divide" horiz-adv-x="605" unicode="&#247;" /><glyph d="M416 474H304L322 577H434ZM348 113H236L256 216H368ZM593 301H60L76 390H609Z" glyph-name="divide.cap" horiz-adv-x="636" unicode="&#58772;" /><glyph d="M90 -6Q70 -4 50 0.5Q30 5 13 11L30 99Q50 93 73 88.5Q96 84 118.5 81.5Q141 79 160.5 77.5Q180 76 193 76Q238 76 267.5 84.5Q297 93 314 110Q328 124 335 143Q342 162 342 182Q342 204 331 215Q315 231 287 235Q259 239 227 241.5Q195 244 162.5 251.5Q130 259 106 283Q92 297 82.5 317Q73 337 74 366Q74 405 88 443Q102 481 131 510Q166 545 215 557.5Q264 570 319 571L365 678H461L412 565Q447 560 477 551L462 467Q422 479 381.5 482.5Q341 486 317 486Q281 486 255 478.5Q229 471 212 454Q186 428 186 389Q186 378 189.5 370Q193 362 198 356Q212 342 239.5 339Q267 336 300 332.5Q333 329 366.5 319.5Q400 310 426 285Q439 272 447 252Q455 232 455 206Q455 117 392 52Q354 15 300 1Q246 -13 183 -14L138 -118H41Z" glyph-name="dollar" horiz-adv-x="512" unicode="$" /><glyph d="M178 22Q154 25 129 30.5Q104 36 84 45L101 140Q123 132 148.5 126.5Q174 121 198.5 118Q223 115 245 114Q267 113 281 113Q333 113 365.5 123.5Q398 134 417 153Q432 167 439 186.5Q446 206 446 226Q446 250 432 266Q414 284 383.5 288Q353 292 317.5 295.5Q282 299 246.5 308.5Q211 318 183 346Q167 362 157.5 386.5Q148 411 148 440Q148 483 164 522Q180 561 209 590Q246 627 301 642.5Q356 658 413 661L472 795H573L512 656Q532 654 552.5 649.5Q573 645 590 639L573 549Q531 563 490.5 566.5Q450 570 424 570Q336 570 299 532Q285 518 278.5 499.5Q272 481 272 463Q272 439 285 427Q300 412 330.5 408Q361 404 397.5 399.5Q434 395 471 385Q508 375 535 348Q550 333 560 310Q570 287 570 255Q570 207 553.5 165Q537 123 505 91Q464 50 405 34.5Q346 19 277 17L219 -118H118Z" glyph-name="dollar.LP" horiz-adv-x="660" unicode="&#58658;" /><glyph d="M562 737H216L231 816H576ZM416 581H304L322 677H434Z" glyph-name="dotabovemacron" horiz-adv-x="0" unicode="&#59218;" /><glyph d="M624 918H278L293 997H638ZM476 749H364L382 845H494Z" glyph-name="dotabovemacron.cap" horiz-adv-x="0" unicode="&#59219;" /><glyph d="M565 773H219L234 852H579ZM419 621H307L325 718H437Z" glyph-name="dotabovemacron.small" horiz-adv-x="0" unicode="&#59220;" /><glyph d="M416 581H304L322 677H434Z" glyph-name="dotaccent" horiz-adv-x="600" unicode="&#729;" /><glyph d="M416 749H304L322 845H434Z" glyph-name="dotaccent.cap" horiz-adv-x="600" unicode="&#58408;" /><glyph d="M416 613H304L322 709H434Z" glyph-name="dotaccent.small" horiz-adv-x="600" unicode="&#63223;" /><glyph d="M153 0H39L164 678H278Z" glyph-name="dotlessI" horiz-adv-x="286" unicode="&#59221;" /><glyph d="M-59 -118Q-8 -55 26 14.5Q60 84 75 169L170 678H284L195 197Q186 145 174 102Q162 59 146 21.5Q130 -16 108.5 -50Q87 -84 57 -118Z" glyph-name="dotlessJ" horiz-adv-x="292" unicode="&#59223;" /><glyph d="M141 0H34L128 510H235Z" glyph-name="dotlessi" horiz-adv-x="268" unicode="&#305;" /><glyph d="M139 0H32L132 541H239Z" glyph-name="dotlessi.small" horiz-adv-x="264" unicode="&#59222;" /><glyph d="M-55 -168Q-38 -147 -21.5 -121Q-5 -95 9 -66.5Q23 -38 33.5 -7Q44 24 50 54L134 510H241L172 133Q163 83 153.5 41.5Q144 0 131.5 -36Q119 -72 100.5 -104.5Q82 -137 54 -168Z" glyph-name="dotlessj" horiz-adv-x="273" unicode="&#567;" /><glyph d="M-54 -91Q-9 -38 20.5 17.5Q50 73 63 139L137 541H245L174 160Q166 119 157 85.5Q148 52 134.5 22Q121 -8 102.5 -35.5Q84 -63 59 -91Z" glyph-name="dotlessj.small" horiz-adv-x="270" unicode="&#59224;" /><glyph d="M321 -85H253L410 763H478ZM219 -85H151L308 763H376Z" glyph-name="doublebar" horiz-adv-x="598" unicode="&#8214;" /><glyph d="M118 678H235L323 565H246ZM281 678H398L486 565H409Z" glyph-name="doublegrave" horiz-adv-x="600" unicode="&#58386;" /><glyph d="M118 846H235L323 733H246ZM281 846H398L486 733H409Z" glyph-name="doublegrave.cap" horiz-adv-x="600" unicode="&#58412;" /><glyph d="M118 710H235L323 597H246ZM281 710H398L486 597H409Z" glyph-name="doublegrave.small" horiz-adv-x="600" unicode="&#59225;" /><glyph d="M323 441Q300 441 273 434Q246 427 225 406Q195 376 178 311H407Q411 324 413.5 338Q416 352 416 367Q416 380 413 394Q410 408 399 419Q387 431 367 436Q347 441 323 441ZM517 367Q517 332 510 298.5Q503 265 492 232H161Q155 200 155 175Q155 155 160 135.5Q165 116 180 101Q197 84 223 78Q249 72 289 72Q319 72 363.5 76.5Q408 81 449 94L433 11Q413 4 390 -0.5Q367 -5 343 -8Q319 -11 296 -12.5Q273 -14 254 -14Q194 -14 153.5 1.5Q113 17 88 42Q42 88 42 174Q42 210 47 248.5Q52 287 63.5 324Q75 361 93.5 395Q112 429 139 455Q180 496 232 510Q284 524 338 524Q388 524 423 509.5Q458 495 480 473Q517 437 517 367Z" glyph-name="e" horiz-adv-x="552" unicode="e" /><glyph d="M405 0H32L132 541H499L484 460H224L197 318H422L406 234H182L154 82H420Z" glyph-name="e.small" horiz-adv-x="489" unicode="&#63333;" /><glyph d="M240 552Q208 552 187.5 531Q167 510 159 479H287Q292 499 292 510Q292 530 281 540Q270 552 240 552ZM368 512Q368 489 363.5 467Q359 445 351 422H147Q145 412 144.5 405.5Q144 399 144 392Q144 381 147 370Q150 359 158 351Q174 335 221 335Q238 335 267.5 338.5Q297 342 327 350L316 287Q288 278 254.5 274Q221 270 196 270Q158 270 131 279Q104 288 87 305Q58 334 58 389Q58 411 62 435.5Q66 460 74 484Q82 508 94 529.5Q106 551 122 567Q148 593 181.5 603Q215 613 251 613Q284 613 307 604Q330 595 345 580Q368 557 368 512Z" glyph-name="e.superior" horiz-adv-x="354" unicode="&#58213;" /><glyph d="M323 441Q300 441 273 434Q246 427 225 406Q195 376 178 311H407Q411 324 413.5 338Q416 352 416 367Q416 380 413 394Q410 408 399 419Q387 431 367 436Q347 441 323 441ZM517 367Q517 332 510 298.5Q503 265 492 232H161Q155 200 155 175Q155 155 160 135.5Q165 116 180 101Q197 84 223 78Q249 72 289 72Q319 72 363.5 76.5Q408 81 449 94L433 11Q413 4 390 -0.5Q367 -5 343 -8Q319 -11 296 -12.5Q273 -14 254 -14Q194 -14 153.5 1.5Q113 17 88 42Q42 88 42 174Q42 210 47 248.5Q52 287 63.5 324Q75 361 93.5 395Q112 429 139 455Q180 496 232 510Q284 524 338 524Q388 524 423 509.5Q458 495 480 473Q517 437 517 367ZM383 566H286L417 678H554Z" glyph-name="eacute" horiz-adv-x="552" unicode="&#233;" /><glyph d="M362 598H265L396 710H533ZM405 0H32L132 541H499L484 460H224L197 318H422L406 234H182L154 82H420Z" glyph-name="eacute.small" horiz-adv-x="489" unicode="&#63465;" /><glyph d="M383 566H286L417 678H554ZM323 441Q300 441 273 434Q246 427 225 406Q195 376 178 311H407Q411 324 413.5 338Q416 352 416 367Q416 380 413 394Q410 408 399 419Q387 431 367 436Q347 441 323 441ZM517 367Q517 332 510 298.5Q503 265 492 232H161Q155 200 155 175Q155 155 160 135.5Q165 116 180 101Q197 84 223 78Q249 72 289 72Q319 72 363.5 76.5Q408 81 449 94L433 11Q413 4 390 -0.5Q367 -5 343 -8Q319 -11 296 -12.5Q273 -14 254 -14Q194 -14 153.5 1.5Q113 17 88 42Q42 88 42 174Q42 210 47 248.5Q52 287 63.5 324Q75 361 93.5 395Q112 429 139 455Q180 496 232 510Q284 524 338 524Q388 524 423 509.5Q458 495 480 473Q517 437 517 367ZM266 -189H159L177 -92H284Z" glyph-name="eacutedotbelow" horiz-adv-x="552" unicode="&#59232;" /><glyph d="M361 598H264L395 710H532ZM234 -189H128L146 -92H252ZM405 0H32L132 541H499L484 460H224L197 318H422L406 234H182L154 82H420Z" glyph-name="eacutedotbelow.small" horiz-adv-x="489" unicode="&#59234;" /><glyph d="M357 623Q380 623 401 628.5Q422 634 437 649Q449 661 456 678H548Q540 657 531 640.5Q522 624 508 610Q479 581 438.5 568.5Q398 556 349 556Q307 556 275 565.5Q243 575 223 595Q208 610 199 630Q190 650 191 678H278Q279 656 293 642Q304 631 320.5 627Q337 623 357 623ZM323 441Q300 441 273 434Q246 427 225 406Q195 376 178 311H407Q411 324 413.5 338Q416 352 416 367Q416 380 413 394Q410 408 399 419Q387 431 367 436Q347 441 323 441ZM517 367Q517 332 510 298.5Q503 265 492 232H161Q155 200 155 175Q155 155 160 135.5Q165 116 180 101Q197 84 223 78Q249 72 289 72Q319 72 363.5 76.5Q408 81 449 94L433 11Q413 4 390 -0.5Q367 -5 343 -8Q319 -11 296 -12.5Q273 -14 254 -14Q194 -14 153.5 1.5Q113 17 88 42Q42 88 42 174Q42 210 47 248.5Q52 287 63.5 324Q75 361 93.5 395Q112 429 139 455Q180 496 232 510Q284 524 338 524Q388 524 423 509.5Q458 495 480 473Q517 437 517 367Z" glyph-name="ebreve" horiz-adv-x="552" unicode="&#277;" /><glyph d="M332 655Q355 655 376 660.5Q397 666 412 681Q424 693 431 710H523Q515 689 506 672.5Q497 656 483 642Q454 613 413.5 600.5Q373 588 324 588Q282 588 250 597.5Q218 607 198 627Q183 642 174 662Q165 682 166 710H253Q254 688 268 674Q279 663 295.5 659Q312 655 332 655ZM405 0H32L132 541H499L484 460H224L197 318H422L406 234H182L154 82H420Z" glyph-name="ebreve.small" horiz-adv-x="489" unicode="&#63018;" /><glyph d="M323 441Q300 441 273 434Q246 427 225 406Q195 376 178 311H407Q411 324 413.5 338Q416 352 416 367Q416 380 413 394Q410 408 399 419Q387 431 367 436Q347 441 323 441ZM517 367Q517 332 510 298.5Q503 265 492 232H161Q155 200 155 175Q155 155 160 135.5Q165 116 180 101Q197 84 223 78Q249 72 289 72Q319 72 363.5 76.5Q408 81 449 94L433 11Q413 4 390 -0.5Q367 -5 343 -8Q319 -11 296 -12.5Q273 -14 254 -14Q194 -14 153.5 1.5Q113 17 88 42Q42 88 42 174Q42 210 47 248.5Q52 287 63.5 324Q75 361 93.5 395Q112 429 139 455Q180 496 232 510Q284 524 338 524Q388 524 423 509.5Q458 495 480 473Q517 437 517 367ZM204 680H299L352 616L428 680H534L396 562H297Z" glyph-name="ecaron" horiz-adv-x="552" unicode="&#283;" /><glyph d="M405 0H32L132 541H499L484 460H224L197 318H422L406 234H182L154 82H420ZM184 712H279L332 648L408 712H514L376 594H277Z" glyph-name="ecaron.small" horiz-adv-x="489" unicode="&#63047;" /><glyph d="M323 441Q300 441 273 434Q246 427 225 406Q195 376 178 311H407Q411 324 413.5 338Q416 352 416 367Q416 380 413 394Q410 408 399 419Q387 431 367 436Q347 441 323 441ZM517 367Q517 332 510 298.5Q503 265 492 232H161Q155 200 155 175Q155 155 160 135.5Q165 116 180 101Q197 84 223 78Q249 72 289 72Q319 72 363.5 76.5Q408 81 449 94L433 11Q413 4 390 -0.5Q367 -5 343 -8Q319 -11 296 -12.5Q273 -14 254 -14Q194 -14 153.5 1.5Q113 17 88 42Q42 88 42 174Q42 210 47 248.5Q52 287 63.5 324Q75 361 93.5 395Q112 429 139 455Q180 496 232 510Q284 524 338 524Q388 524 423 509.5Q458 495 480 473Q517 437 517 367ZM508 564H413L360 627L284 564H178L316 682H415Z" glyph-name="ecircumflex" horiz-adv-x="552" unicode="&#234;" /><glyph d="M405 0H32L132 541H499L484 460H224L197 318H422L406 234H182L154 82H420ZM493 594H398L345 657L269 594H163L301 712H400Z" glyph-name="ecircumflex.small" horiz-adv-x="489" unicode="&#63466;" /><glyph d="M323 441Q300 441 273 434Q246 427 225 406Q195 376 178 311H407Q411 324 413.5 338Q416 352 416 367Q416 380 413 394Q410 408 399 419Q387 431 367 436Q347 441 323 441ZM517 367Q517 332 510 298.5Q503 265 492 232H161Q155 200 155 175Q155 155 160 135.5Q165 116 180 101Q197 84 223 78Q249 72 289 72Q319 72 363.5 76.5Q408 81 449 94L433 11Q413 4 390 -0.5Q367 -5 343 -8Q319 -11 296 -12.5Q273 -14 254 -14Q194 -14 153.5 1.5Q113 17 88 42Q42 88 42 174Q42 210 47 248.5Q52 287 63.5 324Q75 361 93.5 395Q112 429 139 455Q180 496 232 510Q284 524 338 524Q388 524 423 509.5Q458 495 480 473Q517 437 517 367ZM506 580H398L416 675H523ZM298 580H191L208 675H316Z" glyph-name="edieresis" horiz-adv-x="552" unicode="&#235;" /><glyph d="M405 0H32L132 541H499L484 460H224L197 318H422L406 234H182L154 82H420ZM484 612H376L394 707H501ZM276 612H169L186 707H294Z" glyph-name="edieresis.small" horiz-adv-x="489" unicode="&#63467;" /><glyph d="M408 581H296L314 677H426ZM323 441Q300 441 273 434Q246 427 225 406Q195 376 178 311H407Q411 324 413.5 338Q416 352 416 367Q416 380 413 394Q410 408 399 419Q387 431 367 436Q347 441 323 441ZM517 367Q517 332 510 298.5Q503 265 492 232H161Q155 200 155 175Q155 155 160 135.5Q165 116 180 101Q197 84 223 78Q249 72 289 72Q319 72 363.5 76.5Q408 81 449 94L433 11Q413 4 390 -0.5Q367 -5 343 -8Q319 -11 296 -12.5Q273 -14 254 -14Q194 -14 153.5 1.5Q113 17 88 42Q42 88 42 174Q42 210 47 248.5Q52 287 63.5 324Q75 361 93.5 395Q112 429 139 455Q180 496 232 510Q284 524 338 524Q388 524 423 509.5Q458 495 480 473Q517 437 517 367Z" glyph-name="edotaccent" horiz-adv-x="552" unicode="&#279;" /><glyph d="M387 613H275L293 709H405ZM405 0H32L132 541H499L484 460H224L197 318H422L406 234H182L154 82H420Z" glyph-name="edotaccent.small" horiz-adv-x="489" unicode="&#63048;" /><glyph d="M111 678H228L316 565H239ZM274 678H391L479 565H402ZM323 441Q300 441 273 434Q246 427 225 406Q195 376 178 311H407Q411 324 413.5 338Q416 352 416 367Q416 380 413 394Q410 408 399 419Q387 431 367 436Q347 441 323 441ZM517 367Q517 332 510 298.5Q503 265 492 232H161Q155 200 155 175Q155 155 160 135.5Q165 116 180 101Q197 84 223 78Q249 72 289 72Q319 72 363.5 76.5Q408 81 449 94L433 11Q413 4 390 -0.5Q367 -5 343 -8Q319 -11 296 -12.5Q273 -14 254 -14Q194 -14 153.5 1.5Q113 17 88 42Q42 88 42 174Q42 210 47 248.5Q52 287 63.5 324Q75 361 93.5 395Q112 429 139 455Q180 496 232 510Q284 524 338 524Q388 524 423 509.5Q458 495 480 473Q517 437 517 367Z" glyph-name="edoublegrave" horiz-adv-x="552" unicode="&#513;" /><glyph d="M90 710H207L295 597H218ZM253 710H370L458 597H381ZM405 0H32L132 541H499L484 460H224L197 318H422L406 234H182L154 82H420Z" glyph-name="edoublegrave.small" horiz-adv-x="489" unicode="&#59235;" /><glyph d="M183 678H314L403 566H312ZM323 441Q300 441 273 434Q246 427 225 406Q195 376 178 311H407Q411 324 413.5 338Q416 352 416 367Q416 380 413 394Q410 408 399 419Q387 431 367 436Q347 441 323 441ZM517 367Q517 332 510 298.5Q503 265 492 232H161Q155 200 155 175Q155 155 160 135.5Q165 116 180 101Q197 84 223 78Q249 72 289 72Q319 72 363.5 76.5Q408 81 449 94L433 11Q413 4 390 -0.5Q367 -5 343 -8Q319 -11 296 -12.5Q273 -14 254 -14Q194 -14 153.5 1.5Q113 17 88 42Q42 88 42 174Q42 210 47 248.5Q52 287 63.5 324Q75 361 93.5 395Q112 429 139 455Q180 496 232 510Q284 524 338 524Q388 524 423 509.5Q458 495 480 473Q517 437 517 367Z" glyph-name="egrave" horiz-adv-x="552" unicode="&#232;" /><glyph d="M168 710H299L388 598H297ZM405 0H32L132 541H499L484 460H224L197 318H422L406 234H182L154 82H420Z" glyph-name="egrave.small" horiz-adv-x="489" unicode="&#63464;" /><glyph d="M184 678H314L403 566H313ZM266 -189H159L177 -92H284ZM323 441Q300 441 273 434Q246 427 225 406Q195 376 178 311H407Q411 324 413.5 338Q416 352 416 367Q416 380 413 394Q410 408 399 419Q387 431 367 436Q347 441 323 441ZM517 367Q517 332 510 298.5Q503 265 492 232H161Q155 200 155 175Q155 155 160 135.5Q165 116 180 101Q197 84 223 78Q249 72 289 72Q319 72 363.5 76.5Q408 81 449 94L433 11Q413 4 390 -0.5Q367 -5 343 -8Q319 -11 296 -12.5Q273 -14 254 -14Q194 -14 153.5 1.5Q113 17 88 42Q42 88 42 174Q42 210 47 248.5Q52 287 63.5 324Q75 361 93.5 395Q112 429 139 455Q180 496 232 510Q284 524 338 524Q388 524 423 509.5Q458 495 480 473Q517 437 517 367Z" glyph-name="egravedotbelow" horiz-adv-x="552" unicode="&#59236;" /><glyph d="M234 -189H128L146 -92H252ZM168 710H298L387 598H297ZM405 0H32L132 541H499L484 460H224L197 318H422L406 234H182L154 82H420Z" glyph-name="egravedotbelow.small" horiz-adv-x="489" unicode="&#59238;" /><glyph d="M404 692Q461 692 506 676.5Q551 661 579 633Q596 616 606 592Q616 568 616 541Q616 496 597.5 456Q579 416 548 385Q534 371 519.5 361Q505 351 490 343V341Q514 328 529 313Q547 295 557.5 268.5Q568 242 568 212Q568 168 552 127.5Q536 87 507 57Q465 15 404 0.5Q343 -14 278 -14Q218 -14 170.5 1.5Q123 17 94 46Q76 64 65 91Q54 118 54 150Q54 195 70.5 234.5Q87 274 117 304Q149 337 194 356V358Q189 362 183 366Q177 370 172 375Q152 395 140.5 421Q129 447 129 481Q129 522 143.5 560Q158 598 185 624Q224 663 280.5 677.5Q337 692 404 692ZM391 609Q348 609 320.5 599Q293 589 275 571Q259 554 250 527Q241 500 241 474Q241 441 264 418Q279 403 299.5 396.5Q320 390 350 390Q382 390 410 399Q438 408 461 430Q482 450 491 478Q500 506 500 532Q500 546 496 559.5Q492 573 482 582Q470 595 448 602Q426 609 391 609ZM334 304Q299 304 265.5 294.5Q232 285 206 259Q188 241 178.5 213Q169 185 169 159Q169 139 174.5 125.5Q180 112 191 101Q209 83 237.5 76.5Q266 70 293 70Q323 70 356.5 78Q390 86 415 111Q437 132 446 160Q455 188 455 216Q455 232 451 246Q447 260 434 272Q419 288 395 296Q371 304 334 304Z" glyph-name="eight" horiz-adv-x="650" unicode="8" /><glyph d="M402 692Q459 692 504 676.5Q549 661 577 633Q594 616 604 592Q614 568 614 541Q614 496 595.5 456Q577 416 546 385Q532 371 517.5 361Q503 351 488 343V341Q512 328 527 313Q545 295 555.5 268.5Q566 242 566 212Q566 168 550 127.5Q534 87 505 57Q463 15 402 0.5Q341 -14 276 -14Q216 -14 168.5 1.5Q121 17 92 46Q74 64 63 91Q52 118 52 150Q52 195 68.5 234.5Q85 274 115 304Q147 337 192 356V358Q187 362 181 366Q175 370 170 375Q150 395 138.5 421Q127 447 127 481Q127 522 141.5 560Q156 598 183 624Q222 663 278.5 677.5Q335 692 402 692ZM389 609Q346 609 318.5 599Q291 589 273 571Q257 554 248 527Q239 500 239 474Q239 441 262 418Q277 403 297.5 396.5Q318 390 348 390Q380 390 408 399Q436 408 459 430Q480 450 489 478Q498 506 498 532Q498 546 494 559.5Q490 573 480 582Q468 595 446 602Q424 609 389 609ZM332 304Q297 304 263.5 294.5Q230 285 204 259Q186 241 176.5 213Q167 185 167 159Q167 139 172.5 125.5Q178 112 189 101Q207 83 235.5 76.5Q264 70 291 70Q321 70 354.5 78Q388 86 413 111Q435 132 444 160Q453 188 453 216Q453 232 449 246Q445 260 432 272Q417 288 393 296Q369 304 332 304Z" glyph-name="eight.LP" horiz-adv-x="645" unicode="&#58685;" /><glyph d="M409 692Q466 692 511 676.5Q556 661 584 633Q601 616 611 592Q621 568 621 541Q621 496 602.5 456Q584 416 553 385Q539 371 524.5 361Q510 351 495 343V341Q519 328 534 313Q552 295 562.5 268.5Q573 242 573 212Q573 168 557 127.5Q541 87 512 57Q470 15 409 0.5Q348 -14 283 -14Q223 -14 175.5 1.5Q128 17 99 46Q81 64 70 91Q59 118 59 150Q59 195 75.5 234.5Q92 274 122 304Q154 337 199 356V358Q194 362 188 366Q182 370 177 375Q157 395 145.5 421Q134 447 134 481Q134 522 148.5 560Q163 598 190 624Q229 663 285.5 677.5Q342 692 409 692ZM396 609Q353 609 325.5 599Q298 589 280 571Q264 554 255 527Q246 500 246 474Q246 441 269 418Q284 403 304.5 396.5Q325 390 355 390Q387 390 415 399Q443 408 466 430Q487 450 496 478Q505 506 505 532Q505 546 501 559.5Q497 573 487 582Q475 595 453 602Q431 609 396 609ZM339 304Q304 304 270.5 294.5Q237 285 211 259Q193 241 183.5 213Q174 185 174 159Q174 139 179.5 125.5Q185 112 196 101Q214 83 242.5 76.5Q271 70 298 70Q328 70 361.5 78Q395 86 420 111Q442 132 451 160Q460 188 460 216Q460 232 456 246Q452 260 439 272Q424 288 400 296Q376 304 339 304Z" glyph-name="eight.LT" horiz-adv-x="660" unicode="&#58696;" /><glyph d="M409 692Q466 692 511 676.5Q556 661 584 633Q601 616 611 592Q621 568 621 541Q621 496 602.5 456Q584 416 553 385Q539 371 524.5 361Q510 351 495 343V341Q519 328 534 313Q552 295 562.5 268.5Q573 242 573 212Q573 168 557 127.5Q541 87 512 57Q470 15 409 0.5Q348 -14 283 -14Q223 -14 175.5 1.5Q128 17 99 46Q81 64 70 91Q59 118 59 150Q59 195 75.5 234.5Q92 274 122 304Q154 337 199 356V358Q194 362 188 366Q182 370 177 375Q157 395 145.5 421Q134 447 134 481Q134 522 148.5 560Q163 598 190 624Q229 663 285.5 677.5Q342 692 409 692ZM396 609Q353 609 325.5 599Q298 589 280 571Q264 554 255 527Q246 500 246 474Q246 441 269 418Q284 403 304.5 396.5Q325 390 355 390Q387 390 415 399Q443 408 466 430Q487 450 496 478Q505 506 505 532Q505 546 501 559.5Q497 573 487 582Q475 595 453 602Q431 609 396 609ZM339 304Q304 304 270.5 294.5Q237 285 211 259Q193 241 183.5 213Q174 185 174 159Q174 139 179.5 125.5Q185 112 196 101Q214 83 242.5 76.5Q271 70 298 70Q328 70 361.5 78Q395 86 420 111Q442 132 451 160Q460 188 460 216Q460 232 456 246Q452 260 439 272Q424 288 400 296Q376 304 339 304Z" glyph-name="eight.OT" horiz-adv-x="660" unicode="&#58718;" /><glyph d="M229 13Q237 8 243 1Q265 -21 265 -54Q265 -78 254.5 -99.5Q244 -121 228 -136Q205 -159 170.5 -167Q136 -175 100 -175Q68 -175 41 -167Q14 -159 -3 -142Q-13 -132 -19 -118Q-25 -104 -25 -87Q-25 -62 -16 -41.5Q-7 -21 8 -6Q24 10 42 19V20Q40 21 38 23Q27 34 20 48.5Q13 63 13 82Q13 104 21.5 124Q30 144 44 158Q66 180 98 188.5Q130 197 168 197Q236 197 268 163Q288 145 288 114Q288 90 278 69Q268 48 251 31Q242 22 229 14ZM130 -15Q113 -15 99.5 -19Q86 -23 76 -33Q68 -41 64 -54Q60 -67 60 -78Q60 -93 70 -103Q77 -111 88.5 -113.5Q100 -116 111 -116Q123 -116 137.5 -113Q152 -110 163 -99Q172 -89 176.5 -76.5Q181 -64 181 -52Q181 -38 173 -30Q161 -15 130 -15ZM158 139Q125 139 110 124Q102 116 98.5 103Q95 90 95 79Q95 65 105 55Q115 45 140 45Q155 45 165.5 48Q176 51 186 60Q196 69 200 82Q204 95 204 107Q204 120 196 128Q187 139 158 139Z" glyph-name="eight.inf" horiz-adv-x="358" unicode="&#58745;" /><glyph d="M323 441Q300 441 273 434Q246 427 225 406Q195 376 178 311H407Q411 324 413.5 338Q416 352 416 367Q416 380 413 394Q410 408 399 419Q387 431 367 436Q347 441 323 441ZM517 367Q517 332 510 298.5Q503 265 492 232H161Q155 200 155 175Q155 155 160 135.5Q165 116 180 101Q197 84 223 78Q249 72 289 72Q319 72 363.5 76.5Q408 81 449 94L433 11Q413 4 390 -0.5Q367 -5 343 -8Q319 -11 296 -12.5Q273 -14 254 -14Q194 -14 153.5 1.5Q113 17 88 42Q42 88 42 174Q42 210 47 248.5Q52 287 63.5 324Q75 361 93.5 395Q112 429 139 455Q180 496 232 510Q284 524 338 524Q388 524 423 509.5Q458 495 480 473Q517 437 517 367ZM355 620Q332 620 311.5 614.5Q291 609 276 594Q270 588 265 581Q260 574 256 565H165Q172 586 181 602.5Q190 619 204 633Q233 662 274 674.5Q315 687 363 687Q405 687 437 677.5Q469 668 489 648Q504 633 513.5 613Q523 593 522 565H434Q434 577 430 585.5Q426 594 419 601Q408 612 391.5 616Q375 620 355 620Z" glyph-name="einvertedbreve" horiz-adv-x="552" unicode="&#519;" /><glyph d="M335 652Q312 652 291.5 646.5Q271 641 256 626Q250 620 245 613Q240 606 236 597H145Q152 618 161 634.5Q170 651 184 665Q213 694 254 706.5Q295 719 343 719Q385 719 417 709.5Q449 700 469 680Q484 665 493.5 645Q503 625 502 597H414Q414 609 410 617.5Q406 626 399 633Q388 644 371.5 648Q355 652 335 652ZM405 0H32L132 541H499L484 460H224L197 318H422L406 234H182L154 82H420Z" glyph-name="einvertedbreve.small" horiz-adv-x="489" unicode="&#59239;" /><glyph d="M971 0H840L862 122H993ZM547 0H417L439 122H569ZM123 0H-8L15 122H145Z" glyph-name="ellipsis" horiz-adv-x="1057" unicode="&#8230;" /><glyph d="M525 594H180L194 673H540ZM323 441Q300 441 273 434Q246 427 225 406Q195 376 178 311H407Q411 324 413.5 338Q416 352 416 367Q416 380 413 394Q410 408 399 419Q387 431 367 436Q347 441 323 441ZM517 367Q517 332 510 298.5Q503 265 492 232H161Q155 200 155 175Q155 155 160 135.5Q165 116 180 101Q197 84 223 78Q249 72 289 72Q319 72 363.5 76.5Q408 81 449 94L433 11Q413 4 390 -0.5Q367 -5 343 -8Q319 -11 296 -12.5Q273 -14 254 -14Q194 -14 153.5 1.5Q113 17 88 42Q42 88 42 174Q42 210 47 248.5Q52 287 63.5 324Q75 361 93.5 395Q112 429 139 455Q180 496 232 510Q284 524 338 524Q388 524 423 509.5Q458 495 480 473Q517 437 517 367Z" glyph-name="emacron" horiz-adv-x="552" unicode="&#275;" /><glyph d="M501 626H156L170 705H516ZM405 0H32L132 541H499L484 460H224L197 318H422L406 234H182L154 82H420Z" glyph-name="emacron.small" horiz-adv-x="489" unicode="&#63049;" /><glyph d="M1099 226H46L62 315H1116Z" glyph-name="emdash" horiz-adv-x="1157" unicode="&#8212;" /><glyph d="M1112 301H59L75 390H1129Z" glyph-name="emdash.cap" horiz-adv-x="1157" unicode="&#58502;" /><glyph glyph-name="emspace" horiz-adv-x="1000" unicode="&#8195;" /><glyph d="M562 226H46L62 315H579Z" glyph-name="endash" horiz-adv-x="620" unicode="&#8211;" /><glyph d="M575 301H59L75 390H592Z" glyph-name="endash.cap" horiz-adv-x="620" unicode="&#58500;" /><glyph d="M511 133Q502 83 492.5 41.5Q483 0 470.5 -36Q458 -72 439.5 -104.5Q421 -137 393 -168H285Q320 -126 348.5 -66.5Q377 -7 388 54L441 341Q450 392 435.5 412Q421 432 371 432Q328 432 282.5 407.5Q237 383 204 348L141 0H34L127 510H202L205 441H206Q257 485 309.5 503Q362 521 413 521Q460 521 490 510.5Q520 500 536 479Q552 458 554.5 427Q557 396 550 355Z" glyph-name="eng" horiz-adv-x="605" unicode="&#331;" /><glyph d="M257 278Q240 313 228 341.5Q216 370 205 398H203Q199 371 194 340.5Q189 310 184 279Q179 248 174 219Q169 190 165 166L135 0H32L131 541H245L375 263Q390 230 403 202Q416 174 427 144H429Q433 171 438 201.5Q443 232 448 262.5Q453 293 458 322Q463 351 468 375L498 541H602L517 83Q509 42 500 8.5Q491 -25 477.5 -55Q464 -85 445.5 -112.5Q427 -140 402 -168H290Q323 -127 348.5 -85.5Q374 -44 390 2Z" glyph-name="eng.small" horiz-adv-x="628" unicode="&#63019;" /><glyph glyph-name="enspace" horiz-adv-x="500" unicode="&#8194;" /><glyph d="M323 441Q300 441 273 434Q246 427 225 406Q195 376 178 311H407Q411 324 413.5 338Q416 352 416 367Q416 380 413 394Q410 408 399 419Q387 431 367 436Q347 441 323 441ZM517 367Q517 332 510 298.5Q503 265 492 232H161Q155 200 155 175Q155 155 160 135.5Q165 116 180 101Q197 84 223 78Q249 72 289 72Q319 72 363.5 76.5Q408 81 449 94L433 11Q412 1 397 -10.5Q382 -22 371 -34Q360 -45 352.5 -58.5Q345 -72 344 -86Q343 -99 351 -107Q360 -116 381 -116Q396 -116 412 -114Q428 -112 448 -106L436 -167Q417 -175 392.5 -177Q368 -179 351 -179Q323 -179 303.5 -173Q284 -167 273 -156Q252 -139 255 -106Q257 -89 265.5 -71.5Q274 -54 287 -40Q299 -25 318 -11Q283 -14 254 -14Q194 -14 153.5 1.5Q113 17 88 42Q42 88 42 174Q42 210 47 248.5Q52 287 63.5 324Q75 361 93.5 395Q112 429 139 455Q180 496 232 510Q284 524 338 524Q388 524 423 509.5Q458 495 480 473Q517 437 517 367Z" glyph-name="eogonek" horiz-adv-x="552" unicode="&#281;" /><glyph d="M357 -34Q346 -45 337.5 -59.5Q329 -74 329 -88Q329 -103 340 -109.5Q351 -116 366 -116Q382 -116 397.5 -114Q413 -112 433 -106L422 -167Q402 -175 377.5 -177Q353 -179 336 -179Q320 -179 303 -176Q286 -173 272 -165Q258 -157 249 -144Q240 -131 240 -111Q240 -88 251.5 -68Q263 -48 281 -30Q289 -22 299.5 -14.5Q310 -7 321 0H32L132 541H499L484 460H224L197 318H422L406 234H182L154 82H420L405 0H404Q390 -7 378.5 -15.5Q367 -24 357 -34Z" glyph-name="eogonek.small" horiz-adv-x="489" unicode="&#63050;" /><glyph d="M558 121H26L43 210H574ZM597 333H66L82 422H614Z" glyph-name="equal" horiz-adv-x="635" unicode="=" /><glyph d="M632 195H40L57 284H649ZM672 408H80L96 497H688Z" glyph-name="equal.cap" horiz-adv-x="695" unicode="&#58773;" /><glyph d="M285 -68H-17L-6 -7H297ZM305 39H3L14 100H317Z" glyph-name="equal.inf" horiz-adv-x="388" unicode="&#58749;" /><glyph d="M475 632Q412 632 370 611Q328 590 302 553.5Q276 517 264 468.5Q252 420 250 366H696Q694 420 683 468.5Q672 517 646.5 553.5Q621 590 579 611Q537 632 475 632ZM802 229Q792 166 765 120.5Q738 75 695.5 45.5Q653 16 597.5 2Q542 -12 475 -12Q399 -12 335.5 12.5Q272 37 226.5 83Q181 129 156 193.5Q131 258 131 338Q131 418 156 483Q181 548 226.5 594Q272 640 335.5 665Q399 690 475 690Q550 690 612.5 665Q675 640 720 594Q765 548 790 483Q815 418 815 338V309H250Q252 255 264 207Q276 159 302 123Q328 87 370 66Q412 45 475 45Q588 45 653.5 88.5Q719 132 735 229Z" glyph-name="estimated" horiz-adv-x="914" unicode="&#8494;" /><glyph d="M373 105Q392 124 405.5 150.5Q419 177 427 207Q435 237 439 267.5Q443 298 443 326Q443 349 438 367Q433 385 420 398Q406 412 383.5 419.5Q361 427 326 427Q291 427 265.5 416.5Q240 406 221 387Q203 369 190 343.5Q177 318 169.5 290Q162 262 158.5 232.5Q155 203 155 176Q155 119 182 92Q207 67 264 67Q335 67 373 105ZM558 650 478 618Q519 574 540 511.5Q561 449 561 374Q561 333 557 289.5Q553 246 541.5 203.5Q530 161 510 121.5Q490 82 458 50Q436 29 411 15.5Q386 2 358.5 -5Q331 -12 302.5 -14.5Q274 -17 246 -17Q200 -17 159 -3.5Q118 10 89 39Q69 59 55.5 93.5Q42 128 42 176Q42 210 47 246Q52 282 63 316.5Q74 351 91.5 382.5Q109 414 135 440Q159 464 187 478Q215 492 242 499Q269 506 294 508Q319 510 338 510Q362 510 390.5 505Q419 500 436 487L439 488Q431 518 414.5 542Q398 566 377 582L221 520L207 581L318 622Q315 624 307.5 627.5Q300 631 291.5 634.5Q283 638 274.5 641Q266 644 262 646L351 696Q369 690 385.5 683Q402 676 420 665L544 713Z" glyph-name="eth" horiz-adv-x="600" unicode="&#240;" /><glyph d="M273 82Q301 82 329.5 88Q358 94 382 119Q400 137 414 163.5Q428 190 437 220.5Q446 251 450.5 283.5Q455 316 455 346Q455 369 450 394Q445 419 428 436Q413 451 392.5 455.5Q372 460 344 460H237L209 312H367L354 239H196L167 82ZM570 350Q570 314 564.5 275.5Q559 237 546.5 199.5Q534 162 514.5 127Q495 92 467 64Q426 23 372.5 11.5Q319 0 259 0H45L89 239H7L21 312H102L145 541H353Q406 541 448 529.5Q490 518 522 486Q548 460 559 424Q570 388 570 350Z" glyph-name="eth.small" horiz-adv-x="607" unicode="&#59240;" /><glyph d="M162 0H32L54 122H184ZM182 225H95L161 678H283Z" glyph-name="exclam" horiz-adv-x="288" unicode="!" /><glyph d="M125 510H255L233 388H103ZM105 285H192L126 -168H4Z" glyph-name="exclamdown" horiz-adv-x="288" unicode="&#161;" /><glyph d="M156 678H286L264 556H134ZM136 453H223L157 0H35Z" glyph-name="exclamdown.cap" horiz-adv-x="288" unicode="&#58433;" /></font>
</defs>
</svg>
